<svg width="54" height="54" viewBox="0 0 54 54" fill="none" xmlns="http://www.w3.org/2000/svg">
<g clip-path="url(#clip0_1336_3147)">
<path d="M44.9613 7.57419L37.79 6.22694C34.903 5.68455 32.1228 7.58531 31.5804 10.4724L30.2332 17.6437C29.6908 20.5308 31.5915 23.3109 34.4786 23.8533L41.6499 25.2006C44.537 25.743 47.3172 23.8422 47.8595 20.9551L49.2068 13.7838C49.7492 10.8967 47.8484 8.11659 44.9613 7.57419Z" fill="#469ED7"/>
<path fill-rule="evenodd" clip-rule="evenodd" d="M41.0268 8.37675C40.4205 8.26176 39.7938 8.32921 39.2259 8.57057C38.658 8.81194 38.1744 9.21636 37.8365 9.73266C37.4985 10.249 37.3213 10.8539 37.3273 11.471C37.3333 12.088 37.5222 12.6894 37.8702 13.199C38.2181 13.7086 38.7094 14.1036 39.2819 14.3339C39.8544 14.5641 40.4824 14.6194 41.0863 14.4926C41.6902 14.3658 42.2429 14.0628 42.6745 13.6217C43.1061 13.1807 43.3971 12.6215 43.5108 12.015C43.6611 11.2035 43.4842 10.3654 43.0188 9.68379C42.5535 9.00217 41.8373 8.5323 41.0268 8.37675ZM40.0615 13.5C39.6523 13.4216 39.2754 13.2235 38.9788 12.9308C38.6821 12.6381 38.479 12.264 38.395 11.8558C38.3111 11.4476 38.3501 11.0237 38.5072 10.6377C38.6643 10.2517 38.9324 9.92101 39.2775 9.68746C39.6227 9.4539 40.0294 9.32799 40.4461 9.32566C40.8628 9.32333 41.2709 9.44469 41.6186 9.67438C41.9663 9.90407 42.2381 10.2318 42.3995 10.616C42.5609 11.0002 42.6047 11.4236 42.5253 11.8328C42.4174 12.3794 42.098 12.8612 41.6366 13.1735C41.1752 13.4858 40.6091 13.6031 40.0615 13.5Z" fill="white"/>
<path d="M35.8291 14.5598L37.2196 15.3225C38.6388 16.1132 40.2693 16.4412 41.8838 16.2608L43.7604 16.0515" stroke="white" stroke-width="3" stroke-miterlimit="10" stroke-linecap="round"/>
<path d="M41.9111 22.005L39.5891 17.0977L35.3906 20.7832" stroke="white" stroke-width="3" stroke-miterlimit="10" stroke-linecap="round"/>
<path d="M24.5671 5.99799L11.9949 8.91437C9.13328 9.57819 7.3516 12.4361 8.01542 15.2977L10.9318 27.8699C11.5956 30.7315 14.4535 32.5132 17.3152 31.8494L29.8873 28.933C32.749 28.2692 34.5306 25.4113 33.8668 22.5496L30.9504 9.97746C30.2866 7.11585 27.4287 5.33417 24.5671 5.99799Z" fill="#469ED7" stroke="white" stroke-width="2" stroke-miterlimit="10"/>
<path d="M23.7131 19.7437L22.6803 21.4785L23.2743 24.0435L20.9388 24.5835L18.5898 14.4585L20.9186 13.9185L22.0188 18.6435L25.3938 12.8587L28.0061 12.258L24.8471 17.7525L30.6048 22.3425L27.8846 22.95L23.7131 19.7437Z" fill="white"/>
<path d="M18.7045 14.4112L20.527 22.275C19.7761 22.4185 18.9995 22.3331 18.2977 22.0298C17.596 21.7265 17.0017 21.2193 16.5918 20.574L13.2168 15.6937L10.9893 16.2L14.8503 22.0253C15.4428 23.0069 16.3224 23.7832 17.3701 24.2491C18.4179 24.715 19.5834 24.8482 20.7093 24.6308L23.0718 24.084L20.7228 13.959L18.7045 14.4112Z" fill="white"/>
<path d="M41.7945 28.1824L21.3031 26.1262C19.1666 25.9119 17.2608 27.4701 17.0464 29.6066L15.9769 40.2654C15.7625 42.4019 17.3207 44.3077 19.4573 44.5221L39.9486 46.5783C42.0852 46.7926 43.991 45.2344 44.2054 43.0979L45.2749 32.4391C45.4893 30.3026 43.931 28.3968 41.7945 28.1824Z" fill="#469ED7" stroke="white" stroke-width="2" stroke-miterlimit="10"/>
<path fill-rule="evenodd" clip-rule="evenodd" d="M36.3422 36.9293L27.7022 30.7125L26.6357 41.3032L36.3422 36.9293Z" fill="white"/>
<path d="M46.2441 46.2578L49.1534 49.1603" stroke="#469ED7" stroke-width="2" stroke-miterlimit="10" stroke-linecap="round"/>
<path d="M49.3359 34.9987H53.1632" stroke="#469ED7" stroke-width="2" stroke-miterlimit="10" stroke-linecap="round"/>
<path d="M34.9854 49.3493V53.1765" stroke="#469ED7" stroke-width="2" stroke-miterlimit="10" stroke-linecap="round"/>
<path d="M7.45914 7.44525L4.55664 4.54275" stroke="#469ED7" stroke-width="2" stroke-miterlimit="10" stroke-linecap="round"/>
<path d="M4.44141 17.928H0.836914" stroke="#469ED7" stroke-width="2" stroke-miterlimit="10" stroke-linecap="round"/>
<path d="M17.9414 4.428V0.823502" stroke="#469ED7" stroke-width="2" stroke-miterlimit="10" stroke-linecap="round"/>
</g>
<defs>
<clipPath id="clip0_1336_3147">
<rect width="54" height="54" fill="white"/>
</clipPath>
</defs>
</svg>
