<svg width="56" height="56" viewBox="0 0 56 56" fill="none" xmlns="http://www.w3.org/2000/svg">
<g clip-path="url(#clip0_1336_3163)">
<path d="M28 47.705V52.36" stroke="#469ED7" stroke-width="2" stroke-miterlimit="10" stroke-linecap="round"/>
<path d="M45.374 37.338L49.987 37.982" stroke="#469ED7" stroke-width="2" stroke-miterlimit="10" stroke-linecap="round"/>
<path d="M10.6257 37.338L6.0127 37.982" stroke="#469ED7" stroke-width="2" stroke-miterlimit="10" stroke-linecap="round"/>
<path d="M15.6591 44.408L12.3691 47.705" stroke="#469ED7" stroke-width="2" stroke-miterlimit="10" stroke-linecap="round"/>
<path d="M10.6257 18.774L6.0127 18.137" stroke="#469ED7" stroke-width="2" stroke-miterlimit="10" stroke-linecap="round"/>
<path d="M45.374 18.774L49.987 18.137" stroke="#469ED7" stroke-width="2" stroke-miterlimit="10" stroke-linecap="round"/>
<path d="M28 8.414V3.759" stroke="#469ED7" stroke-width="2" stroke-miterlimit="10" stroke-linecap="round"/>
<path d="M15.6591 11.704L12.3691 8.414" stroke="#469ED7" stroke-width="2" stroke-miterlimit="10" stroke-linecap="round"/>
<path d="M40.3408 11.704L43.6308 8.414" stroke="#469ED7" stroke-width="2" stroke-miterlimit="10" stroke-linecap="round"/>
<path d="M8.01 29.9L8.05 28L10.56 25.62H12.42L10.01 28.07L9.2 28.73L8.01 29.9ZM6.72 31V23.58H8.28V31H6.72ZM10.73 31L8.91 28.74L9.89 27.53L12.62 31H10.73ZM15.4939 31.08C15.0472 31.08 14.6472 30.9933 14.2939 30.82C13.9472 30.6467 13.6772 30.3833 13.4839 30.03C13.2906 29.67 13.1939 29.2133 13.1939 28.66V25.62H14.7539V28.43C14.7539 28.8767 14.8472 29.2067 15.0339 29.42C15.2272 29.6267 15.4972 29.73 15.8439 29.73C16.0839 29.73 16.2972 29.68 16.4839 29.58C16.6706 29.4733 16.8172 29.3133 16.9239 29.1C17.0306 28.88 17.0839 28.6067 17.0839 28.28V25.62H18.6439V31H17.1639V29.52L17.4339 29.95C17.2539 30.3233 16.9872 30.6067 16.6339 30.8C16.2872 30.9867 15.9072 31.08 15.4939 31.08ZM20.0891 31V25.62H21.5791V27.14L21.3691 26.7C21.5291 26.32 21.7858 26.0333 22.1391 25.84C22.4925 25.64 22.9225 25.54 23.4291 25.54V26.98C23.3625 26.9733 23.3025 26.97 23.2491 26.97C23.1958 26.9633 23.1391 26.96 23.0791 26.96C22.6525 26.96 22.3058 27.0833 22.0391 27.33C21.7791 27.57 21.6491 27.9467 21.6491 28.46V31H20.0891ZM26.2058 31.08C25.7458 31.08 25.3024 31.0267 24.8758 30.92C24.4558 30.8067 24.1224 30.6667 23.8758 30.5L24.3958 29.38C24.6424 29.5333 24.9324 29.66 25.2658 29.76C25.6058 29.8533 25.9391 29.9 26.2658 29.9C26.6258 29.9 26.8791 29.8567 27.0258 29.77C27.1791 29.6833 27.2558 29.5633 27.2558 29.41C27.2558 29.2833 27.1958 29.19 27.0758 29.13C26.9624 29.0633 26.8091 29.0133 26.6158 28.98C26.4224 28.9467 26.2091 28.9133 25.9758 28.88C25.7491 28.8467 25.5191 28.8033 25.2858 28.75C25.0524 28.69 24.8391 28.6033 24.6458 28.49C24.4524 28.3767 24.2958 28.2233 24.1758 28.03C24.0624 27.8367 24.0058 27.5867 24.0058 27.28C24.0058 26.94 24.1024 26.64 24.2958 26.38C24.4958 26.12 24.7824 25.9167 25.1558 25.77C25.5291 25.6167 25.9758 25.54 26.4958 25.54C26.8624 25.54 27.2358 25.58 27.6158 25.66C27.9958 25.74 28.3124 25.8567 28.5658 26.01L28.0458 27.12C27.7858 26.9667 27.5224 26.8633 27.2558 26.81C26.9958 26.75 26.7424 26.72 26.4958 26.72C26.1491 26.72 25.8958 26.7667 25.7358 26.86C25.5758 26.9533 25.4958 27.0733 25.4958 27.22C25.4958 27.3533 25.5524 27.4533 25.6658 27.52C25.7858 27.5867 25.9424 27.64 26.1358 27.68C26.3291 27.72 26.5391 27.7567 26.7658 27.79C26.9991 27.8167 27.2324 27.86 27.4658 27.92C27.6991 27.98 27.9091 28.0667 28.0958 28.18C28.2891 28.2867 28.4458 28.4367 28.5658 28.63C28.6858 28.8167 28.7458 29.0633 28.7458 29.37C28.7458 29.7033 28.6458 30 28.4458 30.26C28.2458 30.5133 27.9558 30.7133 27.5758 30.86C27.2024 31.0067 26.7458 31.08 26.2058 31.08ZM30.2906 33.02C30.0106 33.02 29.734 32.9767 29.4606 32.89C29.1873 32.8033 28.964 32.6833 28.7906 32.53L29.3606 31.42C29.4806 31.5267 29.6173 31.61 29.7706 31.67C29.9306 31.73 30.0873 31.76 30.2406 31.76C30.4606 31.76 30.634 31.7067 30.7606 31.6C30.894 31.5 31.014 31.33 31.1206 31.09L31.4006 30.43L31.5206 30.26L33.4506 25.62H34.9506L32.5206 31.33C32.3473 31.7633 32.1473 32.1033 31.9206 32.35C31.7006 32.5967 31.454 32.77 31.1806 32.87C30.914 32.97 30.6173 33.02 30.2906 33.02ZM31.2106 31.21L28.8106 25.62H30.4206L32.2806 30.12L31.2106 31.21ZM35.8549 31.08C35.5883 31.08 35.3583 30.99 35.1649 30.81C34.9783 30.6233 34.8849 30.3867 34.8849 30.1C34.8849 29.8133 34.9783 29.5833 35.1649 29.41C35.3583 29.23 35.5883 29.14 35.8549 29.14C36.1283 29.14 36.3583 29.23 36.5449 29.41C36.7316 29.5833 36.8249 29.8133 36.8249 30.1C36.8249 30.3867 36.7316 30.6233 36.5449 30.81C36.3583 30.99 36.1283 31.08 35.8549 31.08ZM37.8821 31V25.62H39.3721V27.14L39.1621 26.7C39.3221 26.32 39.5788 26.0333 39.9321 25.84C40.2854 25.64 40.7154 25.54 41.2221 25.54V26.98C41.1554 26.9733 41.0954 26.97 41.0421 26.97C40.9888 26.9633 40.9321 26.96 40.8721 26.96C40.4454 26.96 40.0988 27.0833 39.8321 27.33C39.5721 27.57 39.4421 27.9467 39.4421 28.46V31H37.8821ZM44.4588 31.08C44.0121 31.08 43.6121 30.9933 43.2588 30.82C42.9121 30.6467 42.6421 30.3833 42.4488 30.03C42.2554 29.67 42.1588 29.2133 42.1588 28.66V25.62H43.7188V28.43C43.7188 28.8767 43.8121 29.2067 43.9988 29.42C44.1921 29.6267 44.4621 29.73 44.8088 29.73C45.0488 29.73 45.2621 29.68 45.4488 29.58C45.6354 29.4733 45.7821 29.3133 45.8888 29.1C45.9954 28.88 46.0488 28.6067 46.0488 28.28V25.62H47.6088V31H46.1288V29.52L46.3988 29.95C46.2188 30.3233 45.9521 30.6067 45.5988 30.8C45.2521 30.9867 44.8721 31.08 44.4588 31.08Z" fill="#469ED7"/>
<path d="M51.0162 20.804H4.99125C2.45902 20.804 0.40625 22.8568 0.40625 25.389V30.611C0.40625 33.1432 2.45902 35.196 4.99125 35.196H51.0162C53.5485 35.196 55.6012 33.1432 55.6012 30.611V25.389C55.6012 22.8568 53.5485 20.804 51.0162 20.804Z" stroke="#469ED7" stroke-miterlimit="10"/>
<path d="M40.1867 47.082L43.0987 52.038L45.5487 50.498L42.5667 45.696L49.7907 43.876L34.7057 33.733C34.1667 33.334 34.1947 33.768 34.1807 34.034L35.1887 52.36L40.1867 47.082Z" fill="#469ED7"/>
</g>
<defs>
<clipPath id="clip0_1336_3163">
<rect width="56" height="56" fill="white"/>
</clipPath>
</defs>
</svg>
