<svg width="56" height="56" viewBox="0 0 56 56" fill="none" xmlns="http://www.w3.org/2000/svg">
<g clip-path="url(#clip0_1336_3183)">
<path d="M31.5283 39.347H38.7173" stroke="#469ED7" stroke-width="2" stroke-miterlimit="10" stroke-linecap="round"/>
<path d="M35.1191 35.756V42.945" stroke="#469ED7" stroke-width="2" stroke-miterlimit="10" stroke-linecap="round"/>
<path d="M8.08502 36.953C11.1469 36.953 13.629 34.4709 13.629 31.409C13.629 28.3471 11.1469 25.865 8.08502 25.865C5.02315 25.865 2.54102 28.3471 2.54102 31.409C2.54102 34.4709 5.02315 36.953 8.08502 36.953Z" fill="white" stroke="#469ED7" stroke-width="2" stroke-miterlimit="10"/>
<path d="M6.48935 39.347H9.68835C10.439 39.347 11.1824 39.495 11.8759 39.7825C12.5693 40.07 13.1993 40.4913 13.7298 41.0225C14.2603 41.5536 14.6809 42.1841 14.9676 42.878C15.2542 43.5718 15.4013 44.3153 15.4003 45.066V53.97H0.777348V45.066C0.776428 44.3153 0.923494 43.5718 1.21014 42.878C1.49678 42.1841 1.91738 41.5536 2.44788 41.0225C2.97838 40.4913 3.60837 40.07 4.30184 39.7825C4.99531 39.495 5.73865 39.347 6.48935 39.347Z" fill="white" stroke="#469ED7" stroke-width="2" stroke-miterlimit="10"/>
<path d="M20.6426 33.705C23.7045 33.705 26.1866 31.2229 26.1866 28.161C26.1866 25.0991 23.7045 22.617 20.6426 22.617C17.5808 22.617 15.0986 25.0991 15.0986 28.161C15.0986 31.2229 17.5808 33.705 20.6426 33.705Z" fill="white" stroke="#469ED7" stroke-width="2" stroke-miterlimit="10"/>
<path d="M19.0398 36.099H22.2388C22.9889 36.099 23.7317 36.2467 24.4247 36.5338C25.1177 36.8209 25.7474 37.2416 26.2778 37.772C26.8082 38.3024 27.229 38.9321 27.516 39.6251C27.8031 40.3181 27.9508 41.0609 27.9508 41.811V50.715H13.2998V41.811C13.2998 41.0585 13.4485 40.3135 13.7373 39.6186C14.0261 38.9238 14.4493 38.2928 14.9827 37.7621C15.5161 37.2313 16.1491 36.8111 16.8453 36.5257C17.5416 36.2403 18.2873 36.0953 19.0398 36.099Z" fill="white" stroke="#469ED7" stroke-width="2" stroke-miterlimit="10"/>
<path d="M48.0059 38.276C51.0678 38.276 53.5499 35.7939 53.5499 32.732C53.5499 29.6701 51.0678 27.188 48.0059 27.188C44.944 27.188 42.4619 29.6701 42.4619 32.732C42.4619 35.7939 44.944 38.276 48.0059 38.276Z" fill="white" stroke="#469ED7" stroke-width="2" stroke-miterlimit="10"/>
<path d="M46.4034 40.67H49.6024C51.1149 40.6737 52.5642 41.2771 53.6324 42.3479C54.7005 43.4188 55.3004 44.8695 55.3004 46.382V55.3H40.6914V46.382C40.6914 44.8671 41.2932 43.4142 42.3644 42.343C43.4356 41.2718 44.8885 40.67 46.4034 40.67Z" fill="white" stroke="#469ED7" stroke-width="2" stroke-miterlimit="10"/>
<path d="M33.5373 9.485H31.7453C31.3045 9.485 30.9473 9.84228 30.9473 10.283V17.661C30.9473 18.1017 31.3045 18.459 31.7453 18.459H33.5373C33.978 18.459 34.3353 18.1017 34.3353 17.661V10.283C34.3353 9.84228 33.978 9.485 33.5373 9.485Z" fill="#469ED7"/>
<path d="M38.6398 9.485H36.8478C36.4071 9.485 36.0498 9.84228 36.0498 10.283V17.661C36.0498 18.1017 36.4071 18.459 36.8478 18.459H38.6398C39.0805 18.459 39.4378 18.1017 39.4378 17.661V10.283C39.4378 9.84228 39.0805 9.485 38.6398 9.485Z" fill="#469ED7"/>
<path fill-rule="evenodd" clip-rule="evenodd" d="M41.3346 10.5L42.8396 9.576C42.9281 9.5212 43.0268 9.48492 43.1298 9.46935C43.2327 9.45378 43.3377 9.45925 43.4385 9.48542C43.5393 9.51159 43.6337 9.55793 43.716 9.62162C43.7984 9.68532 43.8669 9.76505 43.9176 9.856L47.5996 16.303C47.7069 16.4878 47.7384 16.707 47.6875 16.9145C47.6366 17.1221 47.5072 17.3018 47.3266 17.416L45.8286 18.34C45.7398 18.3938 45.6411 18.4293 45.5384 18.4443C45.4357 18.4594 45.331 18.4537 45.2305 18.4276C45.13 18.4015 45.0358 18.3555 44.9533 18.2924C44.8709 18.2292 44.802 18.1502 44.7506 18.06L41.0616 11.634C40.9496 11.4469 40.9155 11.2233 40.9665 11.0112C41.0175 10.7992 41.1497 10.6157 41.3346 10.5Z" fill="#469ED7"/>
<path fill-rule="evenodd" clip-rule="evenodd" d="M55.3001 11.025C55.3001 7 51.8631 3.738 47.6001 3.738C45.7874 3.73194 44.0268 4.34431 42.6091 5.474C42.0298 4.02713 41.0251 2.79012 39.7277 1.92647C38.4304 1.06281 36.9015 0.61318 35.3431 0.637001C31.0871 0.637001 27.6431 3.899 27.6431 7.917C27.644 8.43062 27.7027 8.94251 27.8181 9.443C27.4181 9.35529 27.0097 9.3107 26.6001 9.31C25.1982 9.27232 23.8384 9.79196 22.8189 10.7551C21.7994 11.7182 21.2032 13.0461 21.1611 14.448C21.1996 15.8523 21.7941 17.1839 22.8141 18.15C23.834 19.1161 25.1958 19.6376 26.6001 19.6C27.2145 19.5985 27.8245 19.4969 28.4061 19.299C28.5995 21.1915 29.4999 22.9414 30.9274 24.1989C32.3549 25.4564 34.2043 26.1289 36.1061 26.082C37.4852 26.0985 38.8438 25.7472 40.0422 25.0644C41.2405 24.3816 42.2352 23.3918 42.9241 22.197C43.428 22.9771 44.1208 23.6172 44.9384 24.0578C45.7559 24.4984 46.6715 24.7251 47.6001 24.717C48.9991 24.7566 50.3568 24.2405 51.3761 23.2815C52.3955 22.3225 52.9934 20.9988 53.0391 19.6C53.0385 18.6275 52.7486 17.6772 52.2061 16.87C53.1546 16.217 53.9312 15.3446 54.4699 14.3269C55.0086 13.3092 55.2934 12.1764 55.3001 11.025Z" stroke="#469ED7" stroke-miterlimit="10"/>
<path d="M17.8503 12.152C18.925 12.152 19.7963 11.2807 19.7963 10.206C19.7963 9.13125 18.925 8.26 17.8503 8.26C16.7756 8.26 15.9043 9.13125 15.9043 10.206C15.9043 11.2807 16.7756 12.152 17.8503 12.152Z" stroke="#469ED7" stroke-miterlimit="10"/>
<path d="M12.4457 13.076C13.2383 13.076 13.8807 12.4335 13.8807 11.641C13.8807 10.8485 13.2383 10.206 12.4457 10.206C11.6532 10.206 11.0107 10.8485 11.0107 11.641C11.0107 12.4335 11.6532 13.076 12.4457 13.076Z" stroke="#469ED7" stroke-miterlimit="10"/>
<path d="M11.5502 17.682C12.2267 17.682 12.7752 17.1335 12.7752 16.457C12.7752 15.7805 12.2267 15.232 11.5502 15.232C10.8736 15.232 10.3252 15.7805 10.3252 16.457C10.3252 17.1335 10.8736 17.682 11.5502 17.682Z" stroke="#469ED7" stroke-miterlimit="10"/>
</g>
<defs>
<clipPath id="clip0_1336_3183">
<rect width="56" height="56" fill="white"/>
</clipPath>
</defs>
</svg>
