<svg width="349" height="349" viewBox="0 0 349 349" fill="none" xmlns="http://www.w3.org/2000/svg">
<mask id="path-1-inside-1_905_2093" fill="white">
<path fill-rule="evenodd" clip-rule="evenodd" d="M174.5 349C270.874 349 349 270.874 349 174.5C349 78.1263 270.874 0 174.5 0C78.1263 0 0 78.1263 0 174.5C0 270.874 78.1263 349 174.5 349ZM174.501 312.119C250.507 312.119 312.122 250.504 312.122 174.498C312.122 98.4918 250.507 36.8768 174.501 36.8768C98.4947 36.8768 36.8796 98.4918 36.8796 174.498C36.8796 250.504 98.4947 312.119 174.501 312.119Z"/>
</mask>
<path d="M346 174.5C346 269.217 269.217 346 174.5 346V352C272.531 352 352 272.531 352 174.5H346ZM174.5 3C269.217 3 346 79.7832 346 174.5H352C352 76.4695 272.531 -3 174.5 -3V3ZM3 174.5C3 79.7832 79.7832 3 174.5 3V-3C76.4695 -3 -3 76.4695 -3 174.5H3ZM174.5 346C79.7832 346 3 269.217 3 174.5H-3C-3 272.531 76.4695 352 174.5 352V346ZM309.122 174.498C309.122 248.847 248.85 309.119 174.501 309.119V315.119C252.164 315.119 315.122 252.161 315.122 174.498H309.122ZM174.501 39.8768C248.85 39.8768 309.122 100.149 309.122 174.498H315.122C315.122 96.835 252.164 33.8768 174.501 33.8768V39.8768ZM39.8796 174.498C39.8796 100.149 100.152 39.8768 174.501 39.8768V33.8768C96.8378 33.8768 33.8796 96.835 33.8796 174.498H39.8796ZM174.501 309.119C100.152 309.119 39.8796 248.847 39.8796 174.498H33.8796C33.8796 252.161 96.8378 315.119 174.501 315.119V309.119Z" fill="#469ED7" mask="url(#path-1-inside-1_905_2093)"/>
<mask id="path-3-inside-2_905_2093" fill="white">
<path d="M325.745 87.4643C305.667 52.5745 274.144 25.6992 236.518 11.3926C198.892 -2.91396 157.476 -3.77186 119.29 8.96427L130.959 43.9507C161.074 33.9064 193.736 34.583 223.41 45.8658C253.084 57.1487 277.945 78.3438 293.779 105.86L325.745 87.4643Z"/>
</mask>
<path d="M325.745 87.4643C305.667 52.5745 274.144 25.6992 236.518 11.3926C198.892 -2.91396 157.476 -3.77186 119.29 8.96427L130.959 43.9507C161.074 33.9064 193.736 34.583 223.41 45.8658C253.084 57.1487 277.945 78.3438 293.779 105.86L325.745 87.4643Z" stroke="#469ED7" stroke-width="80" mask="url(#path-3-inside-2_905_2093)"/>
<path d="M114.432 161.496C111.701 161.496 109.365 161.123 107.424 160.376C105.483 159.608 104 158.499 102.976 157.048C101.952 155.597 101.44 153.837 101.44 151.768C101.44 149.699 101.952 147.939 102.976 146.488C104 145.037 105.483 143.928 107.424 143.16C109.365 142.392 111.701 142.008 114.432 142.008C114.475 142.008 114.549 142.008 114.656 142.008C114.784 142.008 114.901 142.008 115.008 142.008C115.136 142.008 115.211 142.008 115.232 142.008C117.963 142.008 120.288 142.392 122.208 143.16C124.149 143.928 125.632 145.037 126.656 146.488C127.68 147.939 128.192 149.699 128.192 151.768C128.192 153.816 127.68 155.576 126.656 157.048C125.653 158.499 124.192 159.608 122.272 160.376C120.373 161.123 118.069 161.496 115.36 161.496C115.317 161.496 115.221 161.496 115.072 161.496C114.944 161.496 114.816 161.496 114.688 161.496C114.56 161.496 114.475 161.496 114.432 161.496ZM114.784 159C114.827 159 114.88 159 114.944 159C115.008 159 115.04 159 115.04 159C117.216 158.979 119.051 158.701 120.544 158.168C122.037 157.613 123.168 156.803 123.936 155.736C124.725 154.648 125.12 153.315 125.12 151.736C125.12 150.179 124.725 148.867 123.936 147.8C123.147 146.733 122.005 145.923 120.512 145.368C119.04 144.813 117.237 144.536 115.104 144.536C115.083 144.536 115.029 144.536 114.944 144.536C114.88 144.536 114.827 144.536 114.784 144.536C112.587 144.536 110.72 144.813 109.184 145.368C107.669 145.901 106.517 146.701 105.728 147.768C104.939 148.835 104.544 150.168 104.544 151.768C104.544 153.368 104.949 154.701 105.76 155.768C106.571 156.835 107.733 157.645 109.248 158.2C110.784 158.733 112.629 159 114.784 159ZM113.344 163.832V139.768H116.32V163.832H113.344ZM140.153 163.192C138.34 163.192 136.74 162.819 135.353 162.072C133.988 161.325 132.921 160.301 132.153 159C131.406 157.699 131.033 156.205 131.033 154.52C131.033 152.835 131.396 151.341 132.121 150.04C132.868 148.739 133.881 147.725 135.161 147C136.462 146.253 137.924 145.88 139.545 145.88C141.188 145.88 142.638 146.243 143.897 146.968C145.156 147.693 146.137 148.717 146.841 150.04C147.566 151.341 147.929 152.867 147.929 154.616C147.929 154.744 147.918 154.893 147.897 155.064C147.897 155.235 147.886 155.395 147.865 155.544H133.433V153.336H146.265L145.017 154.104C145.038 153.016 144.814 152.045 144.345 151.192C143.876 150.339 143.225 149.677 142.393 149.208C141.582 148.717 140.633 148.472 139.545 148.472C138.478 148.472 137.529 148.717 136.697 149.208C135.865 149.677 135.214 150.349 134.745 151.224C134.276 152.077 134.041 153.059 134.041 154.168V154.68C134.041 155.811 134.297 156.824 134.809 157.72C135.342 158.595 136.078 159.277 137.017 159.768C137.956 160.259 139.033 160.504 140.249 160.504C141.252 160.504 142.158 160.333 142.969 159.992C143.801 159.651 144.526 159.139 145.145 158.456L146.841 160.44C146.073 161.336 145.113 162.019 143.961 162.488C142.83 162.957 141.561 163.192 140.153 163.192ZM152.695 163V146.04H160.567C162.551 146.04 164.108 146.424 165.239 147.192C166.391 147.939 166.967 149.005 166.967 150.392C166.967 151.779 166.423 152.856 165.335 153.624C164.268 154.371 162.849 154.744 161.079 154.744L161.559 153.912C163.585 153.912 165.089 154.285 166.071 155.032C167.052 155.779 167.543 156.877 167.543 158.328C167.543 159.8 166.988 160.952 165.879 161.784C164.791 162.595 163.116 163 160.855 163H152.695ZM155.703 160.632H160.631C161.911 160.632 162.871 160.44 163.511 160.056C164.151 159.651 164.471 159.011 164.471 158.136C164.471 157.24 164.172 156.589 163.575 156.184C162.999 155.757 162.081 155.544 160.823 155.544H155.703V160.632ZM155.703 153.336H160.311C161.484 153.336 162.369 153.123 162.967 152.696C163.585 152.248 163.895 151.629 163.895 150.84C163.895 150.029 163.585 149.421 162.967 149.016C162.369 148.611 161.484 148.408 160.311 148.408H155.703V153.336ZM181.343 163.192C179.935 163.192 178.644 162.872 177.471 162.232C176.319 161.571 175.391 160.6 174.687 159.32C174.004 158.04 173.663 156.44 173.663 154.52C173.663 152.6 173.994 151 174.655 149.72C175.338 148.44 176.255 147.48 177.407 146.84C178.58 146.2 179.892 145.88 181.343 145.88C183.007 145.88 184.479 146.243 185.759 146.968C187.039 147.693 188.052 148.707 188.799 150.008C189.546 151.288 189.919 152.792 189.919 154.52C189.919 156.248 189.546 157.763 188.799 159.064C188.052 160.365 187.039 161.379 185.759 162.104C184.479 162.829 183.007 163.192 181.343 163.192ZM172.351 169.208V146.04H175.295V150.616L175.103 154.552L175.423 158.488V169.208H172.351ZM181.087 160.504C182.175 160.504 183.146 160.259 183.999 159.768C184.874 159.277 185.556 158.584 186.047 157.688C186.559 156.771 186.815 155.715 186.815 154.52C186.815 153.304 186.559 152.259 186.047 151.384C185.556 150.488 184.874 149.795 183.999 149.304C183.146 148.813 182.175 148.568 181.087 148.568C180.02 148.568 179.05 148.813 178.175 149.304C177.322 149.795 176.639 150.488 176.127 151.384C175.636 152.259 175.391 153.304 175.391 154.52C175.391 155.715 175.636 156.771 176.127 157.688C176.639 158.584 177.322 159.277 178.175 159.768C179.05 160.259 180.02 160.504 181.087 160.504ZM204.626 163V159.416L204.466 158.744V152.632C204.466 151.331 204.082 150.328 203.314 149.624C202.567 148.899 201.437 148.536 199.922 148.536C198.919 148.536 197.938 148.707 196.978 149.048C196.018 149.368 195.207 149.805 194.546 150.36L193.266 148.056C194.141 147.352 195.186 146.819 196.402 146.456C197.639 146.072 198.93 145.88 200.274 145.88C202.599 145.88 204.391 146.445 205.65 147.576C206.909 148.707 207.538 150.435 207.538 152.76V163H204.626ZM199.058 163.192C197.799 163.192 196.69 162.979 195.73 162.552C194.791 162.125 194.066 161.539 193.554 160.792C193.042 160.024 192.786 159.16 192.786 158.2C192.786 157.283 192.999 156.451 193.426 155.704C193.874 154.957 194.589 154.36 195.57 153.912C196.573 153.464 197.917 153.24 199.602 153.24H204.978V155.448H199.73C198.194 155.448 197.159 155.704 196.626 156.216C196.093 156.728 195.826 157.347 195.826 158.072C195.826 158.904 196.157 159.576 196.818 160.088C197.479 160.579 198.397 160.824 199.57 160.824C200.722 160.824 201.725 160.568 202.578 160.056C203.453 159.544 204.082 158.797 204.466 157.816L205.074 159.928C204.669 160.931 203.954 161.731 202.93 162.328C201.906 162.904 200.615 163.192 199.058 163.192ZM210.254 162.968L210.446 160.376C210.595 160.397 210.734 160.419 210.862 160.44C210.99 160.461 211.107 160.472 211.214 160.472C211.896 160.472 212.43 160.237 212.814 159.768C213.219 159.299 213.518 158.68 213.71 157.912C213.902 157.123 214.04 156.237 214.126 155.256C214.211 154.275 214.275 153.293 214.318 152.312L214.606 146.04H227.63V163H224.558V147.832L225.294 148.728H216.59L217.294 147.8L217.07 152.504C217.006 153.997 216.888 155.395 216.718 156.696C216.547 157.997 216.28 159.139 215.918 160.12C215.576 161.101 215.096 161.869 214.478 162.424C213.88 162.979 213.102 163.256 212.142 163.256C211.864 163.256 211.566 163.224 211.246 163.16C210.947 163.117 210.616 163.053 210.254 162.968ZM241.41 151.8C243.564 151.821 245.207 152.312 246.338 153.272C247.468 154.232 248.034 155.587 248.034 157.336C248.034 159.171 247.415 160.589 246.178 161.592C244.94 162.573 243.191 163.053 240.93 163.032L233.57 163V146.04H236.642V151.768L241.41 151.8ZM240.674 160.696C242.06 160.717 243.106 160.44 243.81 159.864C244.535 159.288 244.898 158.435 244.898 157.304C244.898 156.195 244.546 155.384 243.842 154.872C243.138 154.36 242.082 154.093 240.674 154.072L236.642 154.008V160.664L240.674 160.696ZM137.497 209V206.824L146.617 198.024C147.427 197.256 148.025 196.584 148.409 196.008C148.814 195.411 149.081 194.867 149.209 194.376C149.358 193.864 149.433 193.373 149.433 192.904C149.433 191.752 149.027 190.845 148.217 190.184C147.406 189.523 146.222 189.192 144.665 189.192C143.47 189.192 142.393 189.395 141.433 189.8C140.473 190.184 139.641 190.792 138.937 191.624L136.761 189.736C137.614 188.648 138.755 187.816 140.185 187.24C141.635 186.643 143.225 186.344 144.953 186.344C146.51 186.344 147.865 186.6 149.017 187.112C150.169 187.603 151.054 188.317 151.673 189.256C152.313 190.195 152.633 191.304 152.633 192.584C152.633 193.309 152.537 194.024 152.345 194.728C152.153 195.432 151.79 196.179 151.257 196.968C150.723 197.757 149.955 198.643 148.953 199.624L140.825 207.464L140.057 206.216H153.593V209H137.497ZM165.344 209.256C163.595 209.256 162.027 208.808 160.64 207.912C159.275 207.016 158.187 205.715 157.376 204.008C156.587 202.301 156.192 200.232 156.192 197.8C156.192 195.368 156.587 193.299 157.376 191.592C158.187 189.885 159.275 188.584 160.64 187.688C162.027 186.792 163.595 186.344 165.344 186.344C167.072 186.344 168.63 186.792 170.016 187.688C171.403 188.584 172.491 189.885 173.28 191.592C174.07 193.299 174.464 195.368 174.464 197.8C174.464 200.232 174.07 202.301 173.28 204.008C172.491 205.715 171.403 207.016 170.016 207.912C168.63 208.808 167.072 209.256 165.344 209.256ZM165.344 206.408C166.518 206.408 167.542 206.088 168.416 205.448C169.312 204.808 170.006 203.848 170.496 202.568C171.008 201.288 171.264 199.699 171.264 197.8C171.264 195.901 171.008 194.312 170.496 193.032C170.006 191.752 169.312 190.792 168.416 190.152C167.542 189.512 166.518 189.192 165.344 189.192C164.171 189.192 163.136 189.512 162.24 190.152C161.344 190.792 160.64 191.752 160.128 193.032C159.638 194.312 159.392 195.901 159.392 197.8C159.392 199.699 159.638 201.288 160.128 202.568C160.64 203.848 161.344 204.808 162.24 205.448C163.136 206.088 164.171 206.408 165.344 206.408ZM177.184 209V206.824L186.304 198.024C187.115 197.256 187.712 196.584 188.096 196.008C188.501 195.411 188.768 194.867 188.896 194.376C189.045 193.864 189.12 193.373 189.12 192.904C189.12 191.752 188.715 190.845 187.904 190.184C187.093 189.523 185.909 189.192 184.352 189.192C183.157 189.192 182.08 189.395 181.12 189.8C180.16 190.184 179.328 190.792 178.624 191.624L176.448 189.736C177.301 188.648 178.443 187.816 179.872 187.24C181.323 186.643 182.912 186.344 184.64 186.344C186.197 186.344 187.552 186.6 188.704 187.112C189.856 187.603 190.741 188.317 191.36 189.256C192 190.195 192.32 191.304 192.32 192.584C192.32 193.309 192.224 194.024 192.032 194.728C191.84 195.432 191.477 196.179 190.944 196.968C190.411 197.757 189.643 198.643 188.64 199.624L180.512 207.464L179.744 206.216H193.28V209H177.184ZM202.759 209.256C201.18 209.256 199.644 209.011 198.151 208.52C196.679 208.029 195.474 207.368 194.535 206.536L196.007 204.008C196.754 204.712 197.724 205.288 198.919 205.736C200.114 206.184 201.394 206.408 202.759 206.408C204.423 206.408 205.714 206.056 206.631 205.352C207.57 204.627 208.039 203.656 208.039 202.44C208.039 201.267 207.591 200.328 206.695 199.624C205.82 198.899 204.423 198.536 202.503 198.536H200.711V196.296L207.367 188.104L207.815 189.384H195.559V186.6H210.343V188.776L203.719 196.936L202.055 195.944H203.111C205.82 195.944 207.847 196.552 209.191 197.768C210.556 198.984 211.239 200.531 211.239 202.408C211.239 203.667 210.93 204.819 210.311 205.864C209.692 206.909 208.754 207.741 207.495 208.36C206.258 208.957 204.679 209.256 202.759 209.256Z" fill="#101820"/>
</svg>
