<svg width="56" height="56" viewBox="0 0 56 56" fill="none" xmlns="http://www.w3.org/2000/svg">
<path d="M5.407 17.23L5.435 15.9L7.192 14.234H8.494L6.807 15.949L6.24 16.411L5.407 17.23ZM4.504 18V12.806H5.596V18H4.504ZM7.311 18L6.037 16.418L6.723 15.571L8.634 18H7.311ZM10.6457 18.056C10.3331 18.056 10.0531 17.9953 9.80573 17.874C9.56307 17.7527 9.37407 17.5683 9.23873 17.321C9.1034 17.069 9.03573 16.7493 9.03573 16.362V14.234H10.1277V16.201C10.1277 16.5137 10.1931 16.7447 10.3237 16.894C10.4591 17.0387 10.6481 17.111 10.8907 17.111C11.0587 17.111 11.2081 17.076 11.3387 17.006C11.4694 16.9313 11.5721 16.8193 11.6467 16.67C11.7214 16.516 11.7587 16.3247 11.7587 16.096V14.234H12.8507V18H11.8147V16.964L12.0037 17.265C11.8777 17.5263 11.6911 17.7247 11.4437 17.86C11.2011 17.9907 10.9351 18.056 10.6457 18.056ZM13.8624 18V14.234H14.9054V15.298L14.7584 14.99C14.8704 14.724 15.0501 14.5233 15.2974 14.388C15.5447 14.248 15.8457 14.178 16.2004 14.178V15.186C16.1537 15.1813 16.1117 15.179 16.0744 15.179C16.0371 15.1743 15.9974 15.172 15.9554 15.172C15.6567 15.172 15.4141 15.2583 15.2274 15.431C15.0454 15.599 14.9544 15.8627 14.9544 16.222V18H13.8624ZM18.144 18.056C17.822 18.056 17.5117 18.0187 17.213 17.944C16.919 17.8647 16.6857 17.7667 16.513 17.65L16.877 16.866C17.0497 16.9733 17.2527 17.062 17.486 17.132C17.724 17.1973 17.9574 17.23 18.186 17.23C18.438 17.23 18.6154 17.1997 18.718 17.139C18.8254 17.0783 18.879 16.9943 18.879 16.887C18.879 16.7983 18.837 16.733 18.753 16.691C18.6737 16.6443 18.5664 16.6093 18.431 16.586C18.2957 16.5627 18.1464 16.5393 17.983 16.516C17.8244 16.4927 17.6634 16.4623 17.5 16.425C17.3367 16.383 17.1874 16.3223 17.052 16.243C16.9167 16.1637 16.807 16.0563 16.723 15.921C16.6437 15.7857 16.604 15.6107 16.604 15.396C16.604 15.158 16.6717 14.948 16.807 14.766C16.947 14.584 17.1477 14.4417 17.409 14.339C17.6704 14.2317 17.983 14.178 18.347 14.178C18.6037 14.178 18.865 14.206 19.131 14.262C19.397 14.318 19.6187 14.3997 19.796 14.507L19.432 15.284C19.25 15.1767 19.0657 15.1043 18.879 15.067C18.697 15.025 18.5197 15.004 18.347 15.004C18.1044 15.004 17.927 15.0367 17.815 15.102C17.703 15.1673 17.647 15.2513 17.647 15.354C17.647 15.4473 17.6867 15.5173 17.766 15.564C17.85 15.6107 17.9597 15.648 18.095 15.676C18.2304 15.704 18.3774 15.7297 18.536 15.753C18.6994 15.7717 18.8627 15.802 19.026 15.844C19.1894 15.886 19.3364 15.9467 19.467 16.026C19.6024 16.1007 19.712 16.2057 19.796 16.341C19.88 16.4717 19.922 16.6443 19.922 16.859C19.922 17.0923 19.852 17.3 19.712 17.482C19.572 17.6593 19.369 17.7993 19.103 17.902C18.8417 18.0047 18.522 18.056 18.144 18.056ZM20.5958 18V14.234H21.6878V18H20.5958ZM21.1418 13.709C20.9411 13.709 20.7778 13.6507 20.6518 13.534C20.5258 13.4173 20.4628 13.2727 20.4628 13.1C20.4628 12.9273 20.5258 12.7827 20.6518 12.666C20.7778 12.5493 20.9411 12.491 21.1418 12.491C21.3425 12.491 21.5058 12.547 21.6318 12.659C21.7578 12.7663 21.8208 12.9063 21.8208 13.079C21.8208 13.261 21.7578 13.4127 21.6318 13.534C21.5105 13.6507 21.3471 13.709 21.1418 13.709ZM23.1143 18.056C22.9276 18.056 22.7666 17.993 22.6313 17.867C22.5006 17.7363 22.4353 17.5707 22.4353 17.37C22.4353 17.1693 22.5006 17.0083 22.6313 16.887C22.7666 16.761 22.9276 16.698 23.1143 16.698C23.3056 16.698 23.4666 16.761 23.5973 16.887C23.7279 17.0083 23.7933 17.1693 23.7933 17.37C23.7933 17.5707 23.7279 17.7363 23.5973 17.867C23.4666 17.993 23.3056 18.056 23.1143 18.056ZM24.5333 18V14.234H25.5763V15.298L25.4293 14.99C25.5413 14.724 25.721 14.5233 25.9683 14.388C26.2156 14.248 26.5166 14.178 26.8713 14.178V15.186C26.8246 15.1813 26.7826 15.179 26.7453 15.179C26.708 15.1743 26.6683 15.172 26.6263 15.172C26.3276 15.172 26.085 15.2583 25.8983 15.431C25.7163 15.599 25.6253 15.8627 25.6253 16.222V18H24.5333ZM29.1369 18.056C28.8243 18.056 28.5443 17.9953 28.2969 17.874C28.0543 17.7527 27.8653 17.5683 27.7299 17.321C27.5946 17.069 27.5269 16.7493 27.5269 16.362V14.234H28.6189V16.201C28.6189 16.5137 28.6843 16.7447 28.8149 16.894C28.9503 17.0387 29.1393 17.111 29.3819 17.111C29.5499 17.111 29.6993 17.076 29.8299 17.006C29.9606 16.9313 30.0633 16.8193 30.1379 16.67C30.2126 16.516 30.2499 16.3247 30.2499 16.096V14.234H31.3419V18H30.3059V16.964L30.4949 17.265C30.3689 17.5263 30.1823 17.7247 29.9349 17.86C29.6923 17.9907 29.4263 18.056 29.1369 18.056Z" fill="#469ED7"/>
<path d="M35.6717 10.514H4.52173C2.3529 10.514 0.594727 12.2722 0.594727 14.441V16.492C0.594727 18.6608 2.3529 20.419 4.52173 20.419H35.6717C37.8405 20.419 39.5987 18.6608 39.5987 16.492V14.441C39.5987 12.2722 37.8405 10.514 35.6717 10.514Z" stroke="#469ED7" stroke-miterlimit="10"/>
<path d="M50.6732 29.638H8.7432C6.21098 29.638 4.1582 31.6908 4.1582 34.223V38.381C4.1582 40.9132 6.21098 42.966 8.7432 42.966H50.6732C53.2054 42.966 55.2582 40.9132 55.2582 38.381V34.223C55.2582 31.6908 53.2054 29.638 50.6732 29.638Z" fill="white" stroke="#469ED7" stroke-miterlimit="10"/>
<path d="M10.01 37.9L10.05 36L12.56 33.62H14.42L12.01 36.07L11.2 36.73L10.01 37.9ZM8.72 39V31.58H10.28V39H8.72ZM12.73 39L10.91 36.74L11.89 35.53L14.62 39H12.73ZM17.4939 39.08C17.0472 39.08 16.6472 38.9933 16.2939 38.82C15.9472 38.6467 15.6772 38.3833 15.4839 38.03C15.2906 37.67 15.1939 37.2133 15.1939 36.66V33.62H16.7539V36.43C16.7539 36.8767 16.8472 37.2067 17.0339 37.42C17.2272 37.6267 17.4972 37.73 17.8439 37.73C18.0839 37.73 18.2972 37.68 18.4839 37.58C18.6706 37.4733 18.8172 37.3133 18.9239 37.1C19.0306 36.88 19.0839 36.6067 19.0839 36.28V33.62H20.6439V39H19.1639V37.52L19.4339 37.95C19.2539 38.3233 18.9872 38.6067 18.6339 38.8C18.2872 38.9867 17.9072 39.08 17.4939 39.08ZM22.0891 39V33.62H23.5791V35.14L23.3691 34.7C23.5291 34.32 23.7858 34.0333 24.1391 33.84C24.4925 33.64 24.9225 33.54 25.4291 33.54V34.98C25.3625 34.9733 25.3025 34.97 25.2491 34.97C25.1958 34.9633 25.1391 34.96 25.0791 34.96C24.6525 34.96 24.3058 35.0833 24.0391 35.33C23.7791 35.57 23.6491 35.9467 23.6491 36.46V39H22.0891ZM28.2058 39.08C27.7458 39.08 27.3024 39.0267 26.8758 38.92C26.4558 38.8067 26.1224 38.6667 25.8758 38.5L26.3958 37.38C26.6424 37.5333 26.9324 37.66 27.2658 37.76C27.6058 37.8533 27.9391 37.9 28.2658 37.9C28.6258 37.9 28.8791 37.8567 29.0258 37.77C29.1791 37.6833 29.2558 37.5633 29.2558 37.41C29.2558 37.2833 29.1958 37.19 29.0758 37.13C28.9624 37.0633 28.8091 37.0133 28.6158 36.98C28.4224 36.9467 28.2091 36.9133 27.9758 36.88C27.7491 36.8467 27.5191 36.8033 27.2858 36.75C27.0524 36.69 26.8391 36.6033 26.6458 36.49C26.4524 36.3767 26.2958 36.2233 26.1758 36.03C26.0624 35.8367 26.0058 35.5867 26.0058 35.28C26.0058 34.94 26.1024 34.64 26.2958 34.38C26.4958 34.12 26.7824 33.9167 27.1558 33.77C27.5291 33.6167 27.9758 33.54 28.4958 33.54C28.8624 33.54 29.2358 33.58 29.6158 33.66C29.9958 33.74 30.3124 33.8567 30.5658 34.01L30.0458 35.12C29.7858 34.9667 29.5224 34.8633 29.2558 34.81C28.9958 34.75 28.7424 34.72 28.4958 34.72C28.1491 34.72 27.8958 34.7667 27.7358 34.86C27.5758 34.9533 27.4958 35.0733 27.4958 35.22C27.4958 35.3533 27.5524 35.4533 27.6658 35.52C27.7858 35.5867 27.9424 35.64 28.1358 35.68C28.3291 35.72 28.5391 35.7567 28.7658 35.79C28.9991 35.8167 29.2324 35.86 29.4658 35.92C29.6991 35.98 29.9091 36.0667 30.0958 36.18C30.2891 36.2867 30.4458 36.4367 30.5658 36.63C30.6858 36.8167 30.7458 37.0633 30.7458 37.37C30.7458 37.7033 30.6458 38 30.4458 38.26C30.2458 38.5133 29.9558 38.7133 29.5758 38.86C29.2024 39.0067 28.7458 39.08 28.2058 39.08ZM32.2906 41.02C32.0106 41.02 31.734 40.9767 31.4606 40.89C31.1873 40.8033 30.964 40.6833 30.7906 40.53L31.3606 39.42C31.4806 39.5267 31.6173 39.61 31.7706 39.67C31.9306 39.73 32.0873 39.76 32.2406 39.76C32.4606 39.76 32.634 39.7067 32.7606 39.6C32.894 39.5 33.014 39.33 33.1206 39.09L33.4006 38.43L33.5206 38.26L35.4506 33.62H36.9506L34.5206 39.33C34.3473 39.7633 34.1473 40.1033 33.9206 40.35C33.7006 40.5967 33.454 40.77 33.1806 40.87C32.914 40.97 32.6173 41.02 32.2906 41.02ZM33.2106 39.21L30.8106 33.62H32.4206L34.2806 38.12L33.2106 39.21ZM37.8549 39.08C37.5883 39.08 37.3583 38.99 37.1649 38.81C36.9783 38.6233 36.8849 38.3867 36.8849 38.1C36.8849 37.8133 36.9783 37.5833 37.1649 37.41C37.3583 37.23 37.5883 37.14 37.8549 37.14C38.1283 37.14 38.3583 37.23 38.5449 37.41C38.7316 37.5833 38.8249 37.8133 38.8249 38.1C38.8249 38.3867 38.7316 38.6233 38.5449 38.81C38.3583 38.99 38.1283 39.08 37.8549 39.08ZM39.8821 39V33.62H41.3721V35.14L41.1621 34.7C41.3221 34.32 41.5788 34.0333 41.9321 33.84C42.2854 33.64 42.7154 33.54 43.2221 33.54V34.98C43.1554 34.9733 43.0954 34.97 43.0421 34.97C42.9888 34.9633 42.9321 34.96 42.8721 34.96C42.4454 34.96 42.0988 35.0833 41.8321 35.33C41.5721 35.57 41.4421 35.9467 41.4421 36.46V39H39.8821ZM46.4588 39.08C46.0121 39.08 45.6121 38.9933 45.2588 38.82C44.9121 38.6467 44.6421 38.3833 44.4488 38.03C44.2554 37.67 44.1588 37.2133 44.1588 36.66V33.62H45.7188V36.43C45.7188 36.8767 45.8121 37.2067 45.9988 37.42C46.1921 37.6267 46.4621 37.73 46.8088 37.73C47.0488 37.73 47.2621 37.68 47.4488 37.58C47.6354 37.4733 47.7821 37.3133 47.8888 37.1C47.9954 36.88 48.0488 36.6067 48.0488 36.28V33.62H49.6088V39H48.1288V37.52L48.3988 37.95C48.2188 38.3233 47.9521 38.6067 47.5988 38.8C47.2521 38.9867 46.8721 39.08 46.4588 39.08Z" fill="#469ED7"/>
<path d="M42.4971 15.197C44.5846 15.5493 46.4622 16.6768 47.7541 18.354C48.5129 19.4278 49.0191 20.6593 49.2349 21.9563C49.4507 23.2533 49.3704 24.5824 49.0001 25.844" fill="white"/>
<path d="M42.4971 15.197C44.5846 15.5493 46.4622 16.6768 47.7541 18.354C48.5129 19.4278 49.0191 20.6593 49.2349 21.9563C49.4507 23.2533 49.3704 24.5824 49.0001 25.844" stroke="#469ED7" stroke-width="2" stroke-miterlimit="10" stroke-linecap="round"/>
<path d="M53.2977 22.134L49.0207 26.411L44.5967 21.987" stroke="#469ED7" stroke-width="2" stroke-miterlimit="10" stroke-linecap="round"/>
</svg>
