<svg width="50" height="56" viewBox="0 0 50 56" fill="none" xmlns="http://www.w3.org/2000/svg">
<path d="M6.19193 56C3.53824 51.422 1.73753 46.6183 0.789786 41.5889C-0.157958 36.4951 -0.252731 31.4657 0.505464 26.5009C1.26366 21.536 2.84323 16.7968 5.24418 12.2832C7.64514 7.70524 10.8359 3.61082 14.8164 0L19.9342 3.28841C20.882 3.93321 21.2926 4.73921 21.1663 5.70639C21.1031 6.60909 20.8188 7.31836 20.3133 7.83419C18.6706 9.89752 17.2489 12.4122 16.0485 15.3782C14.9112 18.3443 14.1846 21.536 13.8687 24.9534C13.5527 28.3063 13.7107 31.7881 14.3425 35.399C14.9744 39.0098 16.2696 42.4916 18.2283 45.8446C19.0497 47.1986 19.2708 48.4237 18.8917 49.5199C18.5758 50.5515 17.8176 51.3253 16.6171 51.8411L6.19193 56ZM35.0033 56C32.3497 51.422 30.5489 46.6183 29.6012 41.5889C28.6535 36.4951 28.5587 31.4657 29.3169 26.5009C30.0751 21.536 31.6546 16.7968 34.0556 12.2832C36.4566 7.70524 39.6473 3.61082 43.6278 0L48.7456 3.28841C49.6934 3.93321 50.1041 4.73921 49.9777 5.70639C49.9145 6.60909 49.6302 7.31836 49.1247 7.83419C47.482 9.89752 46.0604 12.4122 44.8599 15.3782C43.7226 18.3443 42.996 21.536 42.6801 24.9534C42.3642 28.3063 42.5221 31.7881 43.1539 35.399C43.7858 39.0098 45.081 42.4916 47.0397 45.8446C47.8611 47.1986 48.0822 48.4237 47.7031 49.5199C47.3872 50.5515 46.629 51.3253 45.4285 51.8411L35.0033 56Z" fill="#469ED7"/>
</svg>
