<svg width="32" height="32" viewBox="0 0 32 32" fill="none" xmlns="http://www.w3.org/2000/svg">
<path d="M16.5714 20C18.465 20 20 18.465 20 16.5714C20 14.6779 18.465 13.1429 16.5714 13.1429C14.6779 13.1429 13.1429 14.6779 13.1429 16.5714C13.1429 18.465 14.6779 20 16.5714 20Z" stroke="#469ED7" stroke-width="1.71429" stroke-linecap="round" stroke-linejoin="round"/>
<path d="M25.0286 20C24.8764 20.3447 24.8311 20.7271 24.8983 21.0978C24.9655 21.4686 25.1422 21.8107 25.4057 22.08L25.4743 22.1486C25.6868 22.3609 25.8554 22.6129 25.9704 22.8904C26.0854 23.1679 26.1447 23.4653 26.1447 23.7657C26.1447 24.0661 26.0854 24.3635 25.9704 24.641C25.8554 24.9185 25.6868 25.1706 25.4743 25.3829C25.262 25.5954 25.0099 25.764 24.7324 25.879C24.455 25.994 24.1575 26.0532 23.8571 26.0532C23.5568 26.0532 23.2593 25.994 22.9819 25.879C22.7044 25.764 22.4523 25.5954 22.24 25.3829L22.1714 25.3143C21.9021 25.0508 21.56 24.8741 21.1892 24.8069C20.8185 24.7396 20.4361 24.785 20.0914 24.9371C19.7534 25.082 19.4651 25.3226 19.2621 25.6292C19.059 25.9358 18.95 26.2951 18.9486 26.6629V26.8571C18.9486 27.4634 18.7078 28.0447 18.2791 28.4734C17.8504 28.902 17.2691 29.1429 16.6629 29.1429C16.0566 29.1429 15.4753 28.902 15.0466 28.4734C14.618 28.0447 14.3771 27.4634 14.3771 26.8571V26.7543C14.3683 26.376 14.2458 26.0091 14.0257 25.7014C13.8056 25.3936 13.498 25.1592 13.1429 25.0286C12.7982 24.8764 12.4158 24.8311 12.045 24.8983C11.6743 24.9655 11.3322 25.1422 11.0629 25.4057L10.9943 25.4743C10.782 25.6868 10.5299 25.8554 10.2524 25.9704C9.97495 26.0854 9.67752 26.1447 9.37714 26.1447C9.07676 26.1447 8.77933 26.0854 8.50185 25.9704C8.22437 25.8554 7.97228 25.6868 7.76 25.4743C7.54748 25.262 7.37889 25.0099 7.26386 24.7324C7.14884 24.455 7.08963 24.1575 7.08963 23.8571C7.08963 23.5568 7.14884 23.2593 7.26386 22.9819C7.37889 22.7044 7.54748 22.4523 7.76 22.24L7.82857 22.1714C8.09204 21.9021 8.26878 21.56 8.33601 21.1892C8.40323 20.8185 8.35785 20.4361 8.20571 20.0914C8.06084 19.7534 7.82029 19.4651 7.51367 19.2621C7.20706 19.059 6.84776 18.95 6.48 18.9486H6.28571C5.67951 18.9486 5.09812 18.7078 4.66947 18.2791C4.24082 17.8504 4 17.2691 4 16.6629C4 16.0566 4.24082 15.4753 4.66947 15.0466C5.09812 14.618 5.67951 14.3771 6.28571 14.3771H6.38857C6.76685 14.3683 7.13372 14.2458 7.44148 14.0257C7.74925 13.8056 7.98368 13.498 8.11429 13.1429C8.26642 12.7982 8.3118 12.4158 8.24458 12.045C8.17736 11.6743 8.00061 11.3322 7.73714 11.0629L7.66857 10.9943C7.45605 10.782 7.28746 10.5299 7.17244 10.2524C7.05741 9.97495 6.9982 9.67752 6.9982 9.37714C6.9982 9.07676 7.05741 8.77933 7.17244 8.50185C7.28746 8.22437 7.45605 7.97228 7.66857 7.76C7.88085 7.54748 8.13294 7.37889 8.41042 7.26386C8.6879 7.14884 8.98534 7.08963 9.28571 7.08963C9.58609 7.08963 9.88353 7.14884 10.161 7.26386C10.4385 7.37889 10.6906 7.54748 10.9029 7.76L10.9714 7.82857C11.2408 8.09204 11.5829 8.26878 11.9536 8.33601C12.3244 8.40323 12.7067 8.35785 13.0514 8.20571H13.1429C13.4809 8.06084 13.7692 7.82029 13.9722 7.51367C14.1753 7.20706 14.2842 6.84776 14.2857 6.48V6.28571C14.2857 5.67951 14.5265 5.09812 14.9552 4.66947C15.3838 4.24082 15.9652 4 16.5714 4C17.1776 4 17.759 4.24082 18.1877 4.66947C18.6163 5.09812 18.8571 5.67951 18.8571 6.28571V6.38857C18.8586 6.75633 18.9676 7.11563 19.1706 7.42225C19.3737 7.72886 19.662 7.96941 20 8.11429C20.3447 8.26642 20.7271 8.3118 21.0978 8.24458C21.4686 8.17736 21.8107 8.00061 22.08 7.73714L22.1486 7.66857C22.3609 7.45605 22.6129 7.28746 22.8904 7.17244C23.1679 7.05741 23.4653 6.9982 23.7657 6.9982C24.0661 6.9982 24.3635 7.05741 24.641 7.17244C24.9185 7.28746 25.1706 7.45605 25.3829 7.66857C25.5954 7.88085 25.764 8.13294 25.879 8.41042C25.994 8.6879 26.0532 8.98534 26.0532 9.28571C26.0532 9.58609 25.994 9.88353 25.879 10.161C25.764 10.4385 25.5954 10.6906 25.3829 10.9029L25.3143 10.9714C25.0508 11.2408 24.8741 11.5829 24.8069 11.9536C24.7396 12.3244 24.785 12.7067 24.9371 13.0514V13.1429C25.082 13.4809 25.3226 13.7692 25.6292 13.9722C25.9358 14.1753 26.2951 14.2842 26.6629 14.2857H26.8571C27.4634 14.2857 28.0447 14.5265 28.4734 14.9552C28.902 15.3838 29.1429 15.9652 29.1429 16.5714C29.1429 17.1776 28.902 17.759 28.4734 18.1877C28.0447 18.6163 27.4634 18.8571 26.8571 18.8571H26.7543C26.3865 18.8586 26.0272 18.9676 25.7206 19.1706C25.414 19.3737 25.1734 19.662 25.0286 20Z" stroke="#469ED7" stroke-width="1.71429" stroke-linecap="round" stroke-linejoin="round"/>
</svg>
