<svg width="32" height="32" viewBox="0 0 32 32" fill="none" xmlns="http://www.w3.org/2000/svg">
<path d="M15.9999 4C15.7779 4 15.5649 4.08838 15.4079 4.24574C15.2509 4.4031 15.1627 4.61657 15.1627 4.8391V16.0271C15.1627 16.2496 15.2509 16.4631 15.4079 16.6204C15.5649 16.7778 15.7779 16.8662 15.9999 16.8662H27.1628C27.3848 16.8662 27.5978 16.7778 27.7548 16.6204C27.9118 16.4631 28 16.2496 28 16.0271C27.997 12.8382 26.7318 9.78077 24.482 7.52594C22.2322 5.27107 19.1816 4.00296 15.9999 4ZM26.2809 15.188H16.8371V5.72295C19.2751 5.92293 21.5629 6.98439 23.2926 8.71797C25.0223 10.4515 26.0814 12.7445 26.2809 15.188Z" fill="#469ED7"/>
<path d="M26.7555 19.1536C26.546 19.0774 26.3148 19.0869 26.1122 19.18C25.9096 19.2732 25.7517 19.4426 25.6727 19.6515C21.481 30.3304 5.8642 27.5278 5.67443 16.0266C5.67884 13.9207 6.32171 11.866 7.51786 10.1346C8.71402 8.40334 10.4069 7.07729 12.3721 6.33222C12.4831 6.30168 12.5866 6.24854 12.6762 6.17609C12.7657 6.10371 12.8394 6.01353 12.8927 5.91133C12.9459 5.80907 12.9776 5.69691 12.9856 5.58185C12.9937 5.46683 12.978 5.35132 12.9396 5.24263C12.9011 5.13394 12.8407 5.03436 12.7621 4.95006C12.6835 4.86582 12.5884 4.79869 12.4828 4.75293C12.3772 4.70711 12.2633 4.68368 12.1482 4.68396C12.0331 4.68429 11.9194 4.70834 11.814 4.75472C9.52483 5.61793 7.55163 7.15829 6.15605 9.17139C4.76053 11.1845 4.0086 13.5753 4 16.0266C4.22326 29.3962 22.3685 32.6519 27.2467 20.2333C27.3228 20.0247 27.314 19.7945 27.222 19.5925C27.1301 19.3904 26.9625 19.2327 26.7555 19.1536Z" fill="#469ED7"/>
<path d="M15.9999 4C15.7779 4 15.5649 4.08838 15.4079 4.24574C15.2509 4.4031 15.1627 4.61657 15.1627 4.8391V16.0271C15.1627 16.2496 15.2509 16.4631 15.4079 16.6204C15.5649 16.7778 15.7779 16.8662 15.9999 16.8662H27.1628C27.3848 16.8662 27.5978 16.7778 27.7548 16.6204C27.9118 16.4631 28 16.2496 28 16.0271C27.997 12.8382 26.7318 9.78077 24.482 7.52594C22.2322 5.27107 19.1816 4.00296 15.9999 4ZM26.2809 15.188H16.8371V5.72295C19.2751 5.92293 21.5629 6.98439 23.2926 8.71797C25.0223 10.4515 26.0814 12.7445 26.2809 15.188Z" stroke="#469ED7" stroke-width="0.285714"/>
<path d="M26.7555 19.1536C26.546 19.0774 26.3148 19.0869 26.1122 19.18C25.9096 19.2732 25.7517 19.4426 25.6727 19.6515C21.481 30.3304 5.8642 27.5278 5.67443 16.0266C5.67884 13.9207 6.32171 11.866 7.51786 10.1346C8.71402 8.40334 10.4069 7.07729 12.3721 6.33222C12.4831 6.30168 12.5866 6.24854 12.6762 6.17609C12.7657 6.10371 12.8394 6.01353 12.8927 5.91133C12.9459 5.80907 12.9776 5.69691 12.9856 5.58185C12.9937 5.46683 12.978 5.35132 12.9396 5.24263C12.9011 5.13394 12.8407 5.03436 12.7621 4.95006C12.6835 4.86582 12.5884 4.79869 12.4828 4.75293C12.3772 4.70711 12.2633 4.68368 12.1482 4.68396C12.0331 4.68429 11.9194 4.70834 11.814 4.75472C9.52483 5.61793 7.55163 7.15829 6.15605 9.17139C4.76053 11.1845 4.0086 13.5753 4 16.0266C4.22326 29.3962 22.3685 32.6519 27.2467 20.2333C27.3228 20.0247 27.314 19.7945 27.222 19.5925C27.1301 19.3904 26.9625 19.2327 26.7555 19.1536Z" stroke="#469ED7" stroke-width="0.285714"/>
</svg>
