<svg width="32" height="32" viewBox="0 0 32 32" fill="none" xmlns="http://www.w3.org/2000/svg">
<path d="M16.0003 17.3335C16.7367 17.3335 17.3337 16.7366 17.3337 16.0002C17.3337 15.2638 16.7367 14.6668 16.0003 14.6668C15.2639 14.6668 14.667 15.2638 14.667 16.0002C14.667 16.7366 15.2639 17.3335 16.0003 17.3335Z" fill="#469ED7"/>
<path d="M16.0003 8.00016C16.7367 8.00016 17.3337 7.4032 17.3337 6.66683C17.3337 5.93046 16.7367 5.3335 16.0003 5.3335C15.2639 5.3335 14.667 5.93046 14.667 6.66683C14.667 7.4032 15.2639 8.00016 16.0003 8.00016Z" fill="#469ED7"/>
<path d="M16.0003 26.6668C16.7367 26.6668 17.3337 26.0699 17.3337 25.3335C17.3337 24.5971 16.7367 24.0002 16.0003 24.0002C15.2639 24.0002 14.667 24.5971 14.667 25.3335C14.667 26.0699 15.2639 26.6668 16.0003 26.6668Z" fill="#469ED7"/>
<path d="M16.0003 17.3335C16.7367 17.3335 17.3337 16.7366 17.3337 16.0002C17.3337 15.2638 16.7367 14.6668 16.0003 14.6668C15.2639 14.6668 14.667 15.2638 14.667 16.0002C14.667 16.7366 15.2639 17.3335 16.0003 17.3335Z" stroke="#469ED7" stroke-width="1.71429" stroke-linecap="round" stroke-linejoin="round"/>
<path d="M16.0003 8.00016C16.7367 8.00016 17.3337 7.4032 17.3337 6.66683C17.3337 5.93046 16.7367 5.3335 16.0003 5.3335C15.2639 5.3335 14.667 5.93046 14.667 6.66683C14.667 7.4032 15.2639 8.00016 16.0003 8.00016Z" stroke="#469ED7" stroke-width="1.71429" stroke-linecap="round" stroke-linejoin="round"/>
<path d="M16.0003 26.6668C16.7367 26.6668 17.3337 26.0699 17.3337 25.3335C17.3337 24.5971 16.7367 24.0002 16.0003 24.0002C15.2639 24.0002 14.667 24.5971 14.667 25.3335C14.667 26.0699 15.2639 26.6668 16.0003 26.6668Z" stroke="#469ED7" stroke-width="1.71429" stroke-linecap="round" stroke-linejoin="round"/>
</svg>
