<svg width="32" height="32" viewBox="0 0 32 32" fill="none" xmlns="http://www.w3.org/2000/svg">
<mask id="mask0_1_21" style="mask-type:luminance" maskUnits="userSpaceOnUse" x="5" y="5" width="21" height="21">
<path d="M26 5H5V26H26V5Z" fill="white"/>
</mask>
<g mask="url(#mask0_1_21)">
<path d="M14.2137 22.5788C14.1875 22.5788 14.1612 22.5788 14.135 22.5788C13.89 22.5525 13.6625 22.43 13.5137 22.2288L12.0175 20.2338C11.7287 19.8488 11.8075 19.2975 12.1925 19.0088C12.5775 18.72 13.1287 18.7988 13.4175 19.1838L14.3275 20.4L17.6787 17.3025C18.0287 16.97 18.5887 16.9963 18.9125 17.355C19.245 17.7138 19.2187 18.265 18.86 18.5888L14.7912 22.3425C14.6425 22.4913 14.4325 22.5788 14.2137 22.5788Z" fill="#A9AAAA"/>
<path d="M24.46 13.645V8.9725C24.46 6.785 22.675 5 20.4875 5H10.5825C8.395 5 6.61 6.785 6.61 8.9725V10.4425C6.61 10.9238 7.00375 11.3175 7.485 11.3175C7.96625 11.3175 8.36 10.9238 8.36 10.4425V8.9725C8.36 7.7475 9.3575 6.75 10.5825 6.75H20.4875C21.7125 6.75 22.71 7.7475 22.71 8.9725V13.6538H6.54C5.69125 13.645 5 14.3362 5 15.1937V24.46C5 25.3087 5.69125 26 6.54 26H24.4512C25.3 26 25.9912 25.3087 25.9912 24.46V15.1937C26 14.3362 25.3087 13.645 24.46 13.645ZM24.25 23.9C24.25 24.0925 24.0925 24.25 23.9 24.25H7.1C6.9075 24.25 6.75 24.0925 6.75 23.9V15.7537C6.75 15.5612 6.9075 15.4038 7.1 15.4038H23.9C24.0925 15.4038 24.25 15.5612 24.25 15.7537V23.9Z" fill="#A9AAAA"/>
</g>
</svg>
