<svg width="32" height="32" viewBox="0 0 32 32" fill="none" xmlns="http://www.w3.org/2000/svg">
<mask id="mask0_1_14" style="mask-type:luminance" maskUnits="userSpaceOnUse" x="5" y="6" width="21" height="21">
<path d="M26 6H5V27H26V6Z" fill="white"/>
</mask>
<g mask="url(#mask0_1_14)">
<path d="M14.2137 23.5788C14.1875 23.5788 14.1612 23.5788 14.135 23.5788C13.89 23.5525 13.6625 23.43 13.5137 23.2288L12.0175 21.2338C11.7287 20.8488 11.8075 20.2975 12.1925 20.0088C12.5775 19.72 13.1287 19.7988 13.4175 20.1838L14.3275 21.4L17.6787 18.3025C18.0287 17.97 18.5887 17.9963 18.9125 18.355C19.245 18.7138 19.2187 19.265 18.86 19.5888L14.7912 23.3425C14.6425 23.4913 14.4325 23.5788 14.2137 23.5788Z" fill="#469ED7"/>
<path d="M24.46 14.645V9.9725C24.46 7.785 22.675 6 20.4875 6H10.5825C8.395 6 6.61 7.785 6.61 9.9725V11.4425C6.61 11.9238 7.00375 12.3175 7.485 12.3175C7.96625 12.3175 8.36 11.9238 8.36 11.4425V9.9725C8.36 8.7475 9.3575 7.75 10.5825 7.75H20.4875C21.7125 7.75 22.71 8.7475 22.71 9.9725V14.6538H6.54C5.69125 14.645 5 15.3362 5 16.1937V25.46C5 26.3087 5.69125 27 6.54 27H24.4512C25.3 27 25.9912 26.3087 25.9912 25.46V16.1937C26 15.3362 25.3087 14.645 24.46 14.645ZM24.25 24.9C24.25 25.0925 24.0925 25.25 23.9 25.25H7.1C6.9075 25.25 6.75 25.0925 6.75 24.9V16.7537C6.75 16.5612 6.9075 16.4038 7.1 16.4038H23.9C24.0925 16.4038 24.25 16.5612 24.25 16.7537V24.9Z" fill="#469ED7"/>
</g>
</svg>
