<svg width="32" height="32" viewBox="0 0 32 32" fill="none" xmlns="http://www.w3.org/2000/svg">
<path d="M23.7143 7.43287H20.2C20.0033 6.46405 19.4777 5.59303 18.7122 4.9674C17.9468 4.34177 16.9886 4 16 4C15.0114 4 14.0532 4.34177 13.2878 4.9674C12.5223 5.59303 11.9967 6.46405 11.8 7.43287H8.28571C7.14907 7.43287 6.05898 7.8844 5.25526 8.68812C4.45153 9.49185 4 10.5819 4 11.7186V17.7186C4 17.9459 4.09031 18.1639 4.25105 18.3247C4.4118 18.4854 4.62981 18.5757 4.85714 18.5757H5.71429V23.7186C5.71429 24.8552 6.16582 25.9453 6.96954 26.749C7.77327 27.5528 8.86336 28.0043 10 28.0043H22C23.1366 28.0043 24.2267 27.5528 25.0305 26.749C25.8342 25.9453 26.2857 24.8552 26.2857 23.7186V18.5757H27.1429C27.3702 18.5757 27.5882 18.4854 27.7489 18.3247C27.9097 18.1639 28 17.9459 28 17.7186V11.7186C28 10.5819 27.5485 9.49185 26.7447 8.68812C25.941 7.8844 24.8509 7.43287 23.7143 7.43287ZM16 5.71858C16.532 5.7183 17.051 5.88303 17.4854 6.19006C17.9199 6.49709 18.2484 6.93131 18.4257 7.43287H13.5743C13.7516 6.93131 14.0801 6.49709 14.5146 6.19006C14.949 5.88303 15.468 5.7183 16 5.71858V5.71858ZM24.5714 23.7186C24.5714 24.4006 24.3005 25.0546 23.8183 25.5369C23.336 26.0191 22.682 26.29 22 26.29H10C9.31801 26.29 8.66396 26.0191 8.18173 25.5369C7.69949 25.0546 7.42857 24.4006 7.42857 23.7186V18.5757H13.5829C13.763 19.0721 14.0917 19.501 14.5241 19.8041C14.9566 20.1072 15.4719 20.2698 16 20.2698C16.5281 20.2698 17.0434 20.1072 17.4759 19.8041C17.9083 19.501 18.237 19.0721 18.4171 18.5757H24.5714V23.7186ZM15.1429 17.7186C15.1429 17.5491 15.1931 17.3833 15.2873 17.2424C15.3815 17.1014 15.5154 16.9916 15.672 16.9267C15.8286 16.8618 16.001 16.8448 16.1672 16.8779C16.3335 16.911 16.4862 16.9926 16.6061 17.1125C16.726 17.2324 16.8076 17.3851 16.8407 17.5514C16.8737 17.7176 16.8568 17.89 16.7919 18.0466C16.727 18.2032 16.6172 18.3371 16.4762 18.4313C16.3352 18.5255 16.1695 18.5757 16 18.5757C15.7727 18.5757 15.5547 18.4854 15.3939 18.3247C15.2332 18.1639 15.1429 17.9459 15.1429 17.7186ZM26.2857 16.8614H18.4171C18.237 16.365 17.9083 15.9361 17.4759 15.633C17.0434 15.3299 16.5281 15.1673 16 15.1673C15.4719 15.1673 14.9566 15.3299 14.5241 15.633C14.0917 15.9361 13.763 16.365 13.5829 16.8614H5.71429V11.7186C5.71429 11.0366 5.9852 10.3825 6.46744 9.90031C6.94968 9.41807 7.60373 9.14715 8.28571 9.14715H23.7143C24.3963 9.14715 25.0503 9.41807 25.5326 9.90031C26.0148 10.3825 26.2857 11.0366 26.2857 11.7186V16.8614Z" fill="#101820" stroke="#101820" stroke-width="0.285714"/>
</svg>
