<svg width="32" height="32" viewBox="0 0 32 32" fill="none" xmlns="http://www.w3.org/2000/svg">
<path d="M16.5714 6.39137C16.8184 6.39137 17.0553 6.29326 17.2299 6.11862C17.4045 5.94399 17.5026 5.70713 17.5026 5.46015V3.59772C17.5026 3.35075 17.4045 3.11389 17.2299 2.93925C17.0553 2.76461 16.8184 2.6665 16.5714 2.6665C16.3245 2.6665 16.0876 2.76461 15.913 2.93925C15.7383 3.11389 15.6402 3.35075 15.6402 3.59772V5.46015C15.6402 5.70713 15.7383 5.94399 15.913 6.11862C16.0876 6.29326 16.3245 6.39137 16.5714 6.39137Z" fill="#101820"/>
<path d="M28.2116 14.3067H26.3492C26.1022 14.3067 25.8654 14.4048 25.6907 14.5795C25.5161 14.7541 25.418 14.991 25.418 15.2379C25.418 15.4849 25.5161 15.7218 25.6907 15.8964C25.8654 16.071 26.1022 16.1691 26.3492 16.1691H28.2116C28.4586 16.1691 28.6955 16.071 28.8701 15.8964C29.0447 15.7218 29.1429 15.4849 29.1429 15.2379C29.1429 14.991 29.0447 14.7541 28.8701 14.5795C28.6955 14.4048 28.4586 14.3067 28.2116 14.3067Z" fill="#101820"/>
<path d="M6.79365 14.3067H4.93122C4.68424 14.3067 4.44738 14.4048 4.27275 14.5795C4.09811 14.7541 4 14.991 4 15.2379C4 15.4849 4.09811 15.7218 4.27275 15.8964C4.44738 16.071 4.68424 16.1691 4.93122 16.1691H6.79365C7.04063 16.1691 7.27748 16.071 7.45212 15.8964C7.62676 15.7218 7.72487 15.4849 7.72487 15.2379C7.72487 14.991 7.62676 14.7541 7.45212 14.5795C7.27748 14.4048 7.04063 14.3067 6.79365 14.3067Z" fill="#101820"/>
<path d="M23.4857 9.25486C23.608 9.2552 23.7292 9.23125 23.8422 9.18441C23.9553 9.13758 24.0579 9.06878 24.1441 8.98202L25.4608 7.66528C25.6305 7.48965 25.7243 7.25442 25.7222 7.01026C25.7201 6.7661 25.6221 6.53253 25.4495 6.35988C25.2768 6.18722 25.0433 6.08929 24.7991 6.08717C24.5549 6.08505 24.3197 6.17891 24.1441 6.34854L22.8273 7.66528C22.6972 7.79551 22.6085 7.96142 22.5726 8.14203C22.5367 8.32264 22.5551 8.50985 22.6256 8.67998C22.696 8.85012 22.8154 8.99554 22.9685 9.09786C23.1216 9.20019 23.3016 9.25482 23.4857 9.25486Z" fill="#101820"/>
<path d="M8.99877 8.98202C9.1744 9.15165 9.40963 9.24551 9.65379 9.24339C9.89795 9.24126 10.1315 9.14333 10.3042 8.97067C10.4768 8.79802 10.5748 8.56446 10.5769 8.3203C10.579 8.07613 10.4851 7.84091 10.3155 7.66528L8.99877 6.34854C8.91287 6.2596 8.81012 6.18865 8.6965 6.13985C8.58289 6.09104 8.4607 6.06536 8.33705 6.06428C8.2134 6.06321 8.09078 6.08677 7.97634 6.13359C7.8619 6.18041 7.75792 6.24956 7.67049 6.33699C7.58306 6.42443 7.51391 6.5284 7.46709 6.64284C7.42026 6.75729 7.3967 6.87991 7.39778 7.00355C7.39885 7.1272 7.42454 7.2494 7.47334 7.36301C7.52215 7.47662 7.59309 7.57937 7.68203 7.66528L8.99877 8.98202Z" fill="#101820"/>
<path d="M21.8505 9.33961C21.0644 8.63266 20.1447 8.09036 19.1456 7.7447C18.1465 7.39903 17.0883 7.25702 16.0334 7.32704C14.9785 7.39706 13.9483 7.67769 13.0037 8.15236C12.059 8.62704 11.219 9.28615 10.5333 10.0908C9.84754 10.8954 9.32992 11.8293 9.011 12.8372C8.69208 13.8452 8.57831 14.9068 8.67641 15.9595C8.7745 17.0121 9.08248 18.0344 9.58215 18.9661C10.0818 19.8978 10.7631 20.7199 11.5857 21.384C11.9656 21.6749 12.276 22.0468 12.4941 22.4727C12.7122 22.8986 12.8326 23.3678 12.8466 23.8461V25.9469C12.8466 26.6879 13.1409 27.3984 13.6648 27.9223C14.1887 28.4462 14.8993 28.7406 15.6402 28.7406H17.5026C18.2436 28.7406 18.9541 28.4462 19.4781 27.9223C20.002 27.3984 20.2963 26.6879 20.2963 25.9469V23.9234C20.2863 23.4621 20.3811 23.0045 20.5735 22.5851C20.766 22.1658 21.051 21.7955 21.4072 21.5022C22.3264 20.7924 23.0781 19.8891 23.6091 18.8562C24.14 17.8233 24.4372 16.6863 24.4795 15.5258C24.5218 14.3652 24.3082 13.2095 23.8538 12.1408C23.3995 11.072 22.7155 10.1163 21.8505 9.34147V9.33961ZM18.4339 25.9469C18.4339 26.1939 18.3358 26.4308 18.1611 26.6054C17.9865 26.78 17.7496 26.8781 17.5026 26.8781H15.6402C15.3932 26.8781 15.1564 26.78 14.9817 26.6054C14.8071 26.4308 14.709 26.1939 14.709 25.9469V25.0157H18.4339V25.9469ZM20.2693 20.0272C19.2963 20.8016 18.6593 21.9212 18.4907 23.1533H17.5026V19.4284H18.4339C18.6808 19.4284 18.9177 19.3303 19.0923 19.1557C19.267 18.981 19.3651 18.7442 19.3651 18.4972C19.3651 18.2502 19.267 18.0134 19.0923 17.8387C18.9177 17.6641 18.6808 17.566 18.4339 17.566H14.709C14.462 17.566 14.2252 17.6641 14.0505 17.8387C13.8759 18.0134 13.7778 18.2502 13.7778 18.4972C13.7778 18.7442 13.8759 18.981 14.0505 19.1557C14.2252 19.3303 14.462 19.4284 14.709 19.4284H15.6402V23.1533H14.6568C14.4478 21.8811 13.7705 20.7332 12.7581 19.935C11.7821 19.1428 11.0769 18.0665 10.7405 16.8553C10.404 15.6442 10.453 14.3583 10.8806 13.1762C11.3082 11.9942 12.0932 10.9746 13.1266 10.2589C14.1601 9.54333 15.3906 9.1672 16.6476 9.18279C17.9045 9.19837 19.1254 9.60489 20.1408 10.3459C21.1561 11.0869 21.9156 12.1257 22.3138 13.318C22.7119 14.5103 22.729 15.797 22.3627 16.9994C21.9963 18.2018 21.2646 19.2604 20.2693 20.0281V20.0272Z" fill="#101820"/>
</svg>
