<svg width="22" height="21" viewBox="0 0 22 21" fill="none" xmlns="http://www.w3.org/2000/svg">
<path d="M7.30859 14.6158C7.61629 15.5388 8.46244 16.1542 9.46244 16.1542M8.69176 11.5391V13.0775M13.3085 11.5391V13.0775M12.4619 1C14.2312 2.46154 14.8465 5 13.7696 7.07692C12.7696 9 10.385 9.69231 8.53885 8.69231C7.00039 7.92308 6.46192 6 7.23116 4.46154C7.84654 3.23077 9.385 2.76923 10.6158 3.38462C11.6158 3.92308 12.0004 5.07692 11.4619 6.07692M7.84615 3.69212C5.38462 4.69212 3.53846 6.76904 2.84615 9.3075C1.76923 9.46135 1 10.3844 1 11.5383C1 12.6921 1.76923 13.6152 2.84615 13.769C3.84615 17.3844 7.07692 19.9998 11 19.9998C14.9231 19.9998 18.1538 17.3844 19.1538 13.769C20.2308 13.6152 21 12.6921 21 11.5383C21 10.3844 20.2308 9.46135 19.1538 9.3075C18.4615 6.76904 16.6154 4.69212 14.1538 3.69212" stroke="#469ED7" stroke-width="1.5" stroke-miterlimit="10" stroke-linecap="round" stroke-linejoin="round"/>
</svg>
