<svg width="23" height="22" viewBox="0 0 23 22" fill="none" xmlns="http://www.w3.org/2000/svg">
<path d="M7.64062 15.3324C7.96451 16.304 8.8552 16.9518 9.90783 16.9518M9.09659 12.0938V13.7132M13.9563 12.0938V13.7132M13.0652 1C14.9275 2.53846 15.5753 5.21053 14.4417 7.39676C13.3891 9.42105 10.8789 10.1498 8.93563 9.09717C7.3162 8.28745 6.74939 6.26316 7.55911 4.64372C8.20688 3.34818 9.82632 2.86235 11.1219 3.51012C12.1745 4.07692 12.5794 5.2915 12.0126 6.34413M8.20648 3.83381C5.61538 4.88644 3.67206 7.07267 2.94332 9.74474C1.80972 9.90668 1 10.8783 1 12.0929C1 13.3075 1.80972 14.2791 2.94332 14.4411C3.99595 18.2468 7.39676 20.9998 11.5263 20.9998C15.6559 20.9998 19.0567 18.2468 20.1093 14.4411C21.2429 14.2791 22.0526 13.3075 22.0526 12.0929C22.0526 10.8783 21.2429 9.90668 20.1093 9.74474C19.3806 7.07267 17.4372 4.88644 14.8462 3.83381" stroke="#A9AAAA" stroke-width="1.5" stroke-miterlimit="10" stroke-linecap="round" stroke-linejoin="round"/>
</svg>
