<svg width="32" height="32" viewBox="0 0 32 32" fill="none" xmlns="http://www.w3.org/2000/svg">
<path d="M17.3335 5.6665C17.3335 7.32336 14.6472 8.6665 11.3335 8.6665C8.01979 8.6665 5.3335 7.32336 5.3335 5.6665M17.3335 5.6665C17.3335 4.00965 14.6472 2.6665 11.3335 2.6665C8.01979 2.6665 5.3335 4.00965 5.3335 5.6665M17.3335 5.6665V9.6665M5.3335 5.6665V9.6665M5.3335 9.6665C5.3335 11.3665 8.0335 12.6665 11.3335 12.6665C14.6335 12.6665 17.3335 11.3665 17.3335 9.6665M5.3335 9.6665V13.6665M17.3335 9.6665V13.6665M5.3335 13.6665C5.3335 15.3665 8.0335 16.6665 11.3335 16.6665C14.6335 16.6665 17.3335 15.3665 17.3335 13.6665M5.3335 13.6665V17.6665M17.3335 13.6665V17.6665M5.3335 17.6665C5.3335 19.3665 8.0335 20.6665 11.3335 20.6665C14.6335 20.6665 17.3335 19.3665 17.3335 17.6665M5.3335 17.6665V21.6665M17.3335 17.6665V21.6665M5.3335 21.6665C5.3335 23.3665 8.0335 24.6665 11.3335 24.6665C14.6335 24.6665 17.3335 23.3665 17.3335 21.6665M5.3335 21.6665V25.6665C5.3335 27.3665 8.0335 28.6665 11.3335 28.6665C14.6335 28.6665 17.3335 27.3665 17.3335 25.6665V21.6665M17.3335 21.8665C18.4335 22.3665 19.8335 22.6665 21.3335 22.6665C24.6335 22.6665 27.3335 21.3665 27.3335 19.6665M27.3335 19.6665V15.6665M27.3335 19.6665V23.6665C27.3335 25.3665 24.6335 26.6665 21.3335 26.6665C19.8335 26.6665 18.4335 26.3665 17.3335 25.8665M27.3335 15.6665C27.3335 13.9665 24.6335 12.6665 21.3335 12.6665C19.8335 12.6665 18.4335 12.9665 17.3335 13.4665M27.3335 15.6665C27.3335 17.3665 24.6335 18.6665 21.3335 18.6665C19.8335 18.6665 18.4335 18.3665 17.3335 17.8665" stroke="#101820" stroke-width="1.71429" stroke-miterlimit="10" stroke-linecap="round" stroke-linejoin="round"/>
</svg>
