<svg width="32" height="32" viewBox="0 0 32 32" fill="none" xmlns="http://www.w3.org/2000/svg">
<path d="M17.2172 22.6667H26.7825M17.2172 22.6667L14.6665 28M17.2172 22.6667L21.0376 14.6787C21.3454 14.0351 21.4993 13.7132 21.71 13.6115C21.893 13.5231 22.1066 13.5231 22.2897 13.6115C22.5004 13.7132 22.6542 14.0351 22.9621 14.6787L26.7825 22.6667M26.7825 22.6667L29.3332 28M2.6665 6.66667H10.6665M10.6665 6.66667H15.3332M10.6665 6.66667V4M15.3332 6.66667H18.6665M15.3332 6.66667C14.6717 10.6097 13.1366 14.1816 10.8872 17.1792M13.3332 18.6667C12.5165 18.2997 11.6834 17.7895 10.8872 17.1792M10.8872 17.1792C9.08386 15.7971 7.47018 13.9021 6.6665 12M10.8872 17.1792C8.74765 20.0305 5.96174 22.3624 2.6665 24" stroke="#D9D9D9" stroke-width="1.71429" stroke-linecap="round" stroke-linejoin="round"/>
</svg>
