<svg width="32" height="32" viewBox="0 0 32 32" fill="none" xmlns="http://www.w3.org/2000/svg">
<path d="M27.6192 5.31092L12.0454 20.8847M20.3698 19.0494L27.6192 26.2857M12.0454 10.7119L17.1318 15.7983M13.199 7.93277C13.199 10.1048 11.4383 11.8655 9.26627 11.8655C7.09426 11.8655 5.3335 10.1048 5.3335 7.93277C5.3335 5.76076 7.09426 4 9.26627 4C11.4383 4 13.199 5.76076 13.199 7.93277ZM13.199 23.6639C13.199 25.8359 11.4383 27.5966 9.26627 27.5966C7.09426 27.5966 5.3335 25.8359 5.3335 23.6639C5.3335 21.4919 7.09426 19.7311 9.26627 19.7311C11.4383 19.7311 13.199 21.4919 13.199 23.6639Z" stroke="#D9D9D9" stroke-width="2.28571" stroke-linecap="round" stroke-linejoin="round"/>
</svg>
