<svg width="32" height="32" viewBox="0 0 32 32" fill="none" xmlns="http://www.w3.org/2000/svg">
<path d="M4 24.9083L6.51429 20.8467C7.96484 18.6225 10.3824 17.172 13.0901 17.172H19.4725C19.4725 19.2995 17.7319 21.0401 15.6044 21.0401H13.6703M16.5714 21.0401H23.3407L24.5011 19.4929C25.5648 18.0423 27.3055 17.172 29.1429 17.172L26.5319 21.8138C25.178 24.328 22.4703 25.8753 19.6659 25.8753C15.1209 25.8753 10.6725 27.2291 6.9011 29.7434M18.5055 2.6665V17.172M18.5055 10.4028C18.5055 6.63134 21.5033 3.63354 25.2747 3.63354C25.2747 7.40497 22.2769 10.4028 18.5055 10.4028ZM18.5055 13.3039C14.7341 13.3039 11.7363 10.3061 11.7363 6.53464C15.5077 6.53464 18.5055 9.53244 18.5055 13.3039Z" stroke="#469ED7" stroke-width="1.71429" stroke-miterlimit="10" stroke-linecap="round" stroke-linejoin="round"/>
</svg>
