<svg width="32" height="32" viewBox="0 0 32 32" fill="none" xmlns="http://www.w3.org/2000/svg">
<path d="M20.6291 8.52299C19.5814 7.97803 18.3251 7.83115 17.1081 8.21483C16.4822 8.41259 15.9311 8.73355 15.4665 9.13995C15.0019 8.73355 14.4508 8.41291 13.8249 8.21483C12.6079 7.83147 11.3516 7.97835 10.3039 8.52299L2.6665 12.6126V14.9268C9.7353 25.6007 21.1945 25.603 28.2665 14.9268V12.6126L20.6291 8.52299ZM11.2873 10.4167C11.879 10.1105 12.5516 10.051 13.183 10.2491C13.5062 10.3502 13.8019 10.5191 14.0643 10.7483L15.4665 11.9707L16.8687 10.7479C17.1311 10.5188 17.4281 10.3502 17.7487 10.25C18.382 10.051 19.054 10.1095 19.622 10.4039L25.6387 13.6257C19.0073 15.9153 11.9065 15.9172 5.28346 13.6311L11.2873 10.4167ZM15.4643 20.8001C12.1945 20.8001 9.05178 19.1707 6.38106 16.2081C12.4841 17.9374 18.7603 17.8407 24.5641 16.1937C21.8892 19.1659 18.7414 20.8001 15.4643 20.8001Z" fill="#101820"/>
</svg>
