<svg width="48" height="48" viewBox="0 0 48 48" fill="none" xmlns="http://www.w3.org/2000/svg">
<path d="M28.8351 10.981C27.883 10.8051 27.0086 11.4127 26.8273 12.342C26.6461 13.2714 27.2556 14.1788 28.1817 14.3607C30.9703 14.9043 33.1234 17.0628 33.6692 19.8609V19.8629C33.8245 20.6683 34.5336 21.2539 35.3503 21.2539C35.4598 21.2539 35.5693 21.2439 35.6809 21.2239C36.6071 21.0381 37.2166 20.1327 37.0353 19.2013C36.2207 15.0222 33.0039 11.7944 28.8351 10.981Z" fill="#469ED7"/>
<path d="M28.7102 4.01732C28.2641 3.95337 27.8159 4.08528 27.4594 4.36908C27.0929 4.65689 26.8638 5.0726 26.814 5.53828C26.7085 6.47963 27.3877 7.33105 28.3278 7.43698C34.8111 8.16048 39.8504 13.211 40.5794 19.7145C40.677 20.5859 41.408 21.2435 42.2804 21.2435C42.3461 21.2435 42.4099 21.2395 42.4756 21.2315C42.9317 21.1815 43.338 20.9557 43.6249 20.5959C43.9097 20.2362 44.0392 19.7885 43.9874 19.3308C43.0791 11.2164 36.7989 4.91871 28.7102 4.01732Z" fill="#469ED7"/>
<path fill-rule="evenodd" clip-rule="evenodd" d="M22.0642 25.9448C30.0424 33.9207 31.8523 24.6934 36.932 29.7696C41.8293 34.6655 44.644 35.6464 38.4392 41.8494C37.662 42.474 32.724 49.9885 15.3699 32.6393C-1.98622 15.288 5.5239 10.3449 6.14867 9.5679C12.3685 3.34769 13.3325 6.17877 18.2297 11.0747C23.3095 16.153 14.086 17.9688 22.0642 25.9448Z" fill="#469ED7"/>
</svg>
