<svg id="Слой_1" data-name="Слой 1" xmlns="http://www.w3.org/2000/svg" viewBox="0 0 41 41"><defs><style>.cls-1{fill:#469ed7;}.cls-2{fill:none;stroke:#469ed7;stroke-miterlimit:10;stroke-width:1.5px;}</style></defs><path class="cls-1" d="M38.81,9.88a.68.68,0,0,1,.69.68V30.44a.68.68,0,0,1-.69.68H2.19a.68.68,0,0,1-.69-.68V10.56a.68.68,0,0,1,.69-.68H38.81m0-1.5H2.19A2.18,2.18,0,0,0,0,10.56V30.44a2.18,2.18,0,0,0,2.19,2.18H38.81A2.18,2.18,0,0,0,41,30.44V10.56a2.18,2.18,0,0,0-2.19-2.18Z"/><path class="cls-2" d="M.91,9.66l17,13.54a4.17,4.17,0,0,0,5.24,0l17-13.89"/><line class="cls-2" x1="14.96" y1="20.88" x2="0.71" y2="31.54"/><line class="cls-2" x1="25.6" y1="20.88" x2="39.95" y2="31.61"/></svg>