<svg width="14" height="14" viewBox="0 0 14 14" fill="none" xmlns="http://www.w3.org/2000/svg">
<path fill-rule="evenodd" clip-rule="evenodd" d="M7.73715 1.78459L8.95542 4.21842C9.07482 4.45736 9.30529 4.62303 9.57254 4.66137L12.2979 5.05366C12.9712 5.15088 13.2392 5.96695 12.7519 6.43455L10.7811 8.32821C10.5874 8.51443 10.4993 8.78212 10.5451 9.04501L11.0102 11.7185C11.1247 12.3798 10.4208 12.8844 9.81897 12.5715L7.38312 11.3084C7.14432 11.1845 6.85832 11.1845 6.61883 11.3084L4.18298 12.5715C3.58113 12.8844 2.87724 12.3798 2.99247 11.7185L3.45687 9.04501C3.50269 8.78212 3.41453 8.51443 3.22085 8.32821L1.2501 6.43455C0.762787 5.96695 1.03074 5.15088 1.70409 5.05366L4.42941 4.66137C4.69667 4.62303 4.92783 4.45736 5.04723 4.21842L6.26481 1.78459C6.56608 1.18281 7.43588 1.18281 7.73715 1.78459Z" fill="#469ED7" stroke="#469ED7" stroke-width="1.0724" stroke-linecap="round" stroke-linejoin="round"/>
</svg>
