<svg width="14" height="14" viewBox="0 0 14 14" fill="none" xmlns="http://www.w3.org/2000/svg">
<path fill-rule="evenodd" clip-rule="evenodd" d="M7.73715 1.78471L8.95542 4.21854C9.07482 4.45748 9.30529 4.62316 9.57254 4.66149L12.2979 5.05378C12.9712 5.151 13.2392 5.96707 12.7519 6.43467L10.7811 8.32833C10.5874 8.51455 10.4993 8.78224 10.5451 9.04513L11.0102 11.7186C11.1247 12.3799 10.4208 12.8845 9.81897 12.5716L7.38312 11.3085C7.14432 11.1846 6.85832 11.1846 6.61883 11.3085L4.18298 12.5716C3.58113 12.8845 2.87724 12.3799 2.99247 11.7186L3.45687 9.04513C3.50269 8.78224 3.41453 8.51455 3.22085 8.32833L1.2501 6.43467C0.762787 5.96707 1.03074 5.151 1.70409 5.05378L4.42941 4.66149C4.69667 4.62316 4.92783 4.45748 5.04723 4.21854L6.26481 1.78471C6.56608 1.18293 7.43588 1.18293 7.73715 1.78471Z" fill="#101820" stroke="#101820" stroke-width="1.0724" stroke-linecap="round" stroke-linejoin="round"/>
</svg>
