<svg width="44" height="44" viewBox="0 0 44 44" fill="none" xmlns="http://www.w3.org/2000/svg">
<mask id="mask0_342_704" style="mask-type:alpha" maskUnits="userSpaceOnUse" x="0" y="0" width="44" height="44">
<g clip-path="url(#clip0_342_704)">
<path d="M17.3965 0.00745313L18.733 0.00195312H25.267L26.6053 0.00745313L28.281 0.0257865L29.0748 0.0386198L29.8412 0.0587865L30.58 0.0844531L31.2913 0.113786L31.977 0.152286L32.637 0.19812L33.2695 0.25312L33.88 0.31362C37.07 0.672953 39.2572 1.44295 40.9072 3.09295C42.5572 4.74295 43.3272 6.92829 43.6865 10.1201L43.7488 10.7306L43.802 11.365L43.8478 12.025L43.8845 12.7088L43.9303 13.7868L43.9523 14.5385L43.9762 15.7191L43.9927 17.3966L44 19.1933L43.9982 25.2671L43.9927 26.6055L43.9743 28.2811L43.9615 29.075L43.9413 29.8413L43.9157 30.5801L43.8863 31.2915L43.8478 31.9771L43.802 32.6371L43.747 33.2696L43.6865 33.8801C43.3272 37.0701 42.5572 39.2573 40.9072 40.9073C39.2572 42.5573 37.0718 43.3273 33.88 43.6866L33.2695 43.749L32.6352 43.8021L31.9752 43.848L31.2913 43.8846L30.2133 43.9305L29.4617 43.9525L28.281 43.9763L26.6035 43.9928L24.8068 44.0001L18.733 43.9983L17.3947 43.9928L15.719 43.9745L14.9252 43.9616L14.1588 43.9415L13.42 43.9158L12.7087 43.8865L12.023 43.848L11.363 43.8021L10.7305 43.7471L10.12 43.6866C6.93 43.3273 4.74283 42.5573 3.09283 40.9073C1.44283 39.2573 0.672833 37.072 0.3135 33.8801L0.251167 33.2696L0.198 32.6353L0.152167 31.9753L0.1155 31.2915L0.0696667 30.2135L0.0476667 29.4618L0.0238333 28.2811L0.00733333 26.6036L0 24.807L0.00183333 18.7331L0.00733333 17.3948L0.0256667 15.7191L0.0385 14.9253L0.0586667 14.159L0.0843333 13.4201L0.113667 12.7088L0.152167 12.0231L0.198 11.3631L0.253 10.7306L0.3135 10.1201C0.672833 6.93012 1.44283 4.74295 3.09283 3.09295C4.74283 1.44295 6.92817 0.672953 10.12 0.31362L10.7305 0.251286L11.3648 0.19812L12.0248 0.152286L12.7087 0.11562L13.7867 0.0697865L14.5383 0.0477865L15.719 0.0239531L17.3965 0.00745313ZM12.4483 13.3835H7.425C7.66333 24.8235 13.3833 31.6985 23.4117 31.6985H23.98V25.1535C27.665 25.5201 30.4517 28.2151 31.57 31.6985H36.7767C35.3467 26.4918 31.5883 23.6135 29.2417 22.5135C31.5883 21.1568 34.8883 17.8568 35.6767 13.3835H30.9467C29.92 17.0135 26.8767 20.3135 23.98 20.6251V13.3835H19.25V26.0701C16.3167 25.3368 12.6133 21.7801 12.4483 13.3835Z" fill="black"/>
</g>
</mask>
<g mask="url(#mask0_342_704)">
<circle cx="22" cy="22" r="22" fill="#F1F1F1"/>
</g>
<defs>
<clipPath id="clip0_342_704">
<rect width="44" height="44" fill="white"/>
</clipPath>
</defs>
</svg>
