<svg width="160" height="16" viewBox="0 0 160 16" fill="none" xmlns="http://www.w3.org/2000/svg">
<path d="M89.8086 15.83C89.227 15.83 88.7374 15.6313 88.3398 15.2339C87.9422 14.8366 87.7438 14.3399 87.7438 13.7438C87.7438 13.1335 87.9422 12.6403 88.3398 12.2642C88.7374 11.8881 89.227 11.7001 89.8086 11.7001C90.3902 11.7001 90.8798 11.8881 91.2774 12.2642C91.6749 12.6403 91.8734 13.1335 91.8734 13.7438C91.8734 14.3399 91.6749 14.8366 91.2774 15.2339C90.8798 15.6313 90.3902 15.83 89.8086 15.83Z" fill="#1D1D1F"/>
<path d="M125.002 0.75791L118.659 12.5516C118.049 13.687 117.315 14.5457 116.456 15.1275C115.597 15.7094 114.664 16.0003 113.657 16.0003C112.876 16.0003 112.067 15.8301 111.23 15.4894L112.06 12.8709C112.656 13.0555 113.153 13.1477 113.551 13.1477C113.976 13.1477 114.359 13.0449 114.7 12.839C115.04 12.6333 115.352 12.3104 115.636 11.8704L115.764 11.7001L109.889 0.75791H113.571L117.531 8.76229L121.618 0.75791H125.002Z" fill="#1D1D1F"/>
<path d="M102.009 0.75791C103.328 0.75791 104.475 0.977917 105.447 1.41787C106.419 1.85782 107.167 2.48226 107.692 3.29126C108.217 4.10021 108.479 5.05819 108.479 6.16517C108.479 7.25795 108.217 8.21237 107.692 9.02845C107.167 9.84445 106.419 10.4689 105.447 10.9018C104.475 11.3347 103.328 11.5511 102.009 11.5511H99.0074V15.6597H95.5594V0.75791H102.009ZM101.817 8.74101C102.853 8.74101 103.641 8.51757 104.18 8.07045C104.719 7.62338 104.989 6.9883 104.989 6.16517C104.989 5.32784 104.719 4.68564 104.18 4.23857C103.641 3.79149 102.853 3.56797 101.817 3.56797H99.0074V8.74101H101.817Z" fill="#1D1D1F"/>
<path d="M73.094 5.65426C74.9104 5.65426 76.3046 6.0587 77.2766 6.86765C78.2487 7.67665 78.7347 8.87581 78.7347 10.4654C78.7347 12.1542 78.199 13.4422 77.1276 14.3292C76.0562 15.2162 74.5485 15.6597 72.6044 15.6597H65.8781V0.75791H69.3051V5.65426H73.094ZM72.4128 13.1051C73.3068 13.1051 74.0057 12.8852 74.5095 12.4452C75.0132 12.0053 75.2652 11.3665 75.2652 10.5293C75.2652 8.98229 74.3144 8.20877 72.4128 8.20877H69.3051V13.1051H72.4128ZM80.6292 0.75791H84.0564V15.6597H80.6292V0.75791Z" fill="#1D1D1F"/>
<path d="M39.2387 0.75791C40.5583 0.75791 41.7043 0.977917 42.6763 1.41787C43.6483 1.85782 44.3969 2.48226 44.9219 3.29126C45.447 4.10021 45.7095 5.05819 45.7095 6.16517C45.7095 7.25795 45.447 8.21237 44.9219 9.02845C44.3969 9.84445 43.6483 10.4689 42.6763 10.9018C41.7043 11.3347 40.5583 11.5511 39.2387 11.5511H36.2374V15.6597H32.7891V0.75791H39.2387ZM39.0471 8.74101C40.083 8.74101 40.8705 8.51757 41.4098 8.07045C41.9491 7.62338 42.2187 6.9883 42.2187 6.16517C42.2187 5.32784 41.9491 4.68564 41.4098 4.23857C40.8705 3.79149 40.083 3.56797 39.0471 3.56797H36.2374V8.74101H39.0471Z" fill="#1D1D1F"/>
<path d="M30.0394 0.75791L23.6963 12.5516C23.0861 13.687 22.3518 14.5457 21.4932 15.1275C20.6347 15.7094 19.7016 16.0003 18.6942 16.0003C17.9137 16.0003 17.1048 15.8301 16.2675 15.4894L17.0977 12.8709C17.6937 13.0555 18.1903 13.1477 18.5877 13.1477C19.0134 13.1477 19.3966 13.0449 19.7371 12.839C20.0777 12.6333 20.3899 12.3104 20.6737 11.8704L20.8014 11.7001L14.9266 0.75791H18.609L22.5682 8.76229L26.655 0.75791H30.0394Z" fill="#1D1D1F"/>
<path d="M5.81102 9.65626H3.42699V15.6595H0V0.757714H3.42699V6.7823H5.89616L9.81272 0.757714H13.4526L8.57816 7.95316L13.6016 15.6595H9.68504L5.81102 9.65626Z" fill="#1D1D1F"/>
<path d="M143.741 0.575683H140.738C139.996 0.575683 139.394 1.17764 139.394 1.92019V14.2906C139.394 15.0331 139.996 15.6351 140.738 15.6351H143.741C144.483 15.6351 145.085 15.0331 145.085 14.2906V1.92019C145.085 1.17764 144.483 0.575683 143.741 0.575683Z" fill="#1D1D1F"/>
<path d="M135.173 0.575683H132.17C131.428 0.575683 130.826 1.17764 130.826 1.92019V14.2906C130.826 15.0331 131.428 15.6351 132.17 15.6351H135.173C135.915 15.6351 136.518 15.0331 136.518 14.2906V1.92019C136.518 1.17764 135.915 0.575683 135.173 0.575683Z" fill="#1D1D1F"/>
<path d="M56.3579 15.9152C54.8395 15.9152 53.4665 15.5852 52.2391 14.9253C51.0117 14.2653 50.0466 13.3499 49.3442 12.179C48.6418 11.0082 48.2906 9.68485 48.2906 8.20877C48.2906 6.73284 48.6418 5.40942 49.3442 4.23855C50.0466 3.06768 51.0117 2.15233 52.2391 1.49237C53.4665 0.832421 54.8465 0.502441 56.3792 0.502441C57.6705 0.502441 58.8377 0.729512 59.8807 1.18372C60.9237 1.63786 61.8 2.29069 62.5095 3.1422L60.2957 5.18591C59.2882 4.02211 58.0394 3.44024 56.5495 3.44024C55.627 3.44024 54.804 3.64249 54.0803 4.04699C53.3566 4.45143 52.7925 5.01555 52.3881 5.7394C51.9837 6.46319 51.7815 7.28632 51.7815 8.20877C51.7815 9.13125 51.9837 9.95445 52.3881 10.6783C52.7925 11.4021 53.3566 11.9661 54.0803 12.3707C54.804 12.7752 55.627 12.9773 56.5495 12.9773C58.0394 12.9773 59.2882 12.3885 60.2957 11.2105L62.5095 13.2541C61.8 14.1198 60.9201 14.7798 59.87 15.234C58.8199 15.6881 57.6492 15.9152 56.3579 15.9152Z" fill="#1D1D1F"/>
<path d="M151.146 0.687696L148.566 2.22277C147.927 2.60237 147.717 3.42748 148.097 4.0657L154.42 14.6982C154.799 15.3364 155.624 15.546 156.262 15.1664L158.843 13.6314C159.482 13.2518 159.691 12.4266 159.312 11.7884L152.989 1.15598C152.61 0.517756 151.784 0.308097 151.146 0.687696Z" fill="#1D1D1F"/>
</svg>
