<svg width="64" height="64" viewBox="0 0 64 64" fill="none" xmlns="http://www.w3.org/2000/svg">
<mask id="path-1-inside-1_274_2067" fill="white">
<path d="M46.4252 46.8906C45.7223 49.6459 44.8298 52.1683 43.7907 54.3975C46.3519 53.6343 48.7578 52.6253 50.9439 51.4094L46.4252 46.8906Z"/>
<path d="M32.3299 56.0922C36.0682 56.0621 39.6557 55.5533 42.9844 54.6348C44.1141 52.3151 45.067 49.6332 45.8086 46.6882C41.7081 47.6454 37.1462 48.1887 32.3299 48.2103V56.0922Z"/>
<path d="M42.5833 55.4194C39.3581 56.2559 35.9173 56.7259 32.3299 56.7561V63.9956C36.2838 63.8274 39.8798 60.6022 42.5833 55.4237V55.4194Z"/>
<path d="M43.4068 55.2082C41.4622 59.0888 39.0347 61.9777 36.3269 63.4954C42.0314 62.1156 47.046 58.0669 50.5946 52.3494C48.3783 53.5136 45.9681 54.4838 43.4068 55.2125V55.2082Z"/>
<path d="M17.5749 46.8906L13.0561 51.4094C15.2465 52.6253 17.6482 53.6343 20.2094 54.3975C19.1616 52.1683 18.2734 49.6459 17.5749 46.8906Z"/>
<path d="M27.6774 63.4912C24.9696 61.9735 22.542 59.0846 20.5974 55.2039C18.0275 54.4753 15.6216 53.5051 13.4096 52.3409C16.9539 58.0583 21.9729 62.1071 27.6774 63.4869V63.4912Z"/>
<path d="M31.67 63.9956V56.7561C28.0826 56.7259 24.6332 56.2602 21.4123 55.4194C24.1158 60.5979 27.7118 63.8231 31.67 63.9912V63.9956Z"/>
<path d="M32.3299 47.5417C36.3701 47.4555 40.0264 45.83 42.7472 43.2213L32.3299 32.7997V47.5461V47.5417Z"/>
<path d="M56.0922 32.3299H48.2145C48.1843 37.1419 47.6454 41.7081 46.6925 45.8129C49.6331 45.0713 52.3151 44.1141 54.6391 42.9844C55.5532 39.66 56.0663 36.0682 56.0922 32.3299Z"/>
<path d="M43.6871 43.2216L46.0759 45.6017C46.6752 42.9887 47.1064 40.1818 47.3436 37.2411C46.5674 39.4962 45.3084 41.527 43.6915 43.2173L43.6871 43.2216Z"/>
<path d="M56.7562 32.3299C56.726 35.9173 56.2604 39.3667 55.4196 42.5877C60.598 39.8842 63.8233 36.2881 63.9957 32.3299H56.7562Z"/>
<path d="M55.2038 43.4024C54.4795 45.9722 53.5136 48.3782 52.3494 50.5902C58.0669 47.0459 62.1114 42.027 63.4911 36.3224C61.982 39.0303 59.0845 41.4578 55.2038 43.4024Z"/>
<path d="M46.8951 46.4207L51.4138 50.9395C52.6255 48.7491 53.6301 46.3474 54.4019 43.7862C52.1727 44.834 49.646 45.7222 46.8951 46.4207Z"/>
<path d="M37.2409 47.3393C40.1816 47.1021 42.9929 46.6709 45.6058 46.0716L43.2171 43.6871C41.5312 45.3084 39.5003 46.5674 37.2409 47.3393Z"/>
<path d="M31.6702 32.7998L21.2486 43.2214C23.9693 45.83 27.6343 47.4556 31.6702 47.5418V32.7955V32.7998Z"/>
<path d="M32.7999 32.3299L43.2172 42.7515C45.8259 40.0308 47.46 36.3657 47.542 32.3299H32.7956H32.7999Z"/>
<path d="M9.36524 42.9844C11.685 44.1141 14.3712 45.0713 17.3119 45.8129C16.3547 41.7081 15.8114 37.1419 15.7898 32.3299H7.90785C7.93803 36.0682 8.44682 39.66 9.36524 42.9844Z"/>
<path d="M17.1049 46.4207C14.3496 45.7179 11.8272 44.8297 9.59801 43.7862C10.3612 46.3474 11.3702 48.7534 12.5861 50.9395L17.1049 46.4207Z"/>
<path d="M26.7547 47.3393C24.4996 46.5631 22.4688 45.3084 20.7786 43.6871L18.3984 46.0716C21.0114 46.6709 23.8184 47.1021 26.759 47.3393H26.7547Z"/>
<path d="M31.6701 56.0922V48.2103C26.8582 48.1887 22.292 47.6454 18.1871 46.6882C18.9331 49.6332 19.886 52.3151 21.0157 54.6348C24.3401 55.5576 27.9318 56.0664 31.6701 56.0922Z"/>
<path d="M20.3128 43.2215C18.6916 41.5313 17.4325 39.5005 16.6607 37.2454C16.8978 40.186 17.329 42.993 17.9284 45.6059L20.3171 43.2258L20.3128 43.2215Z"/>
<path d="M20.7786 42.7515L31.2002 32.3299H16.4538C16.5401 36.3701 18.1656 40.0351 20.7743 42.7515H20.7786Z"/>
<path d="M8.57614 42.5877C7.73966 39.3624 7.26968 35.913 7.2395 32.3299H0C0.16816 36.2881 3.39336 39.8842 8.57614 42.5877Z"/>
<path d="M11.6548 50.5902C10.4906 48.3782 9.52478 45.9679 8.8004 43.4024C4.91978 41.4578 2.02658 39.0303 0.513139 36.3224C1.8886 42.027 5.93737 47.0459 11.6548 50.5902Z"/>
<path d="M55.4238 21.4123C56.2603 24.6375 56.7303 28.0783 56.7605 31.6657H64C63.8318 27.7118 60.6066 24.1158 55.4238 21.4123Z"/>
<path d="M32.3299 31.1959L42.7472 20.7786C40.0264 18.1699 36.3657 16.5358 32.3299 16.4538V31.2002V31.1959Z"/>
<path d="M46.8951 17.5749C49.6417 18.2777 52.1727 19.1702 54.4019 20.2094C53.6344 17.6482 52.6255 15.2422 51.4138 13.0561L46.8951 17.5749Z"/>
<path d="M63.4869 27.6733C62.1071 21.9688 58.0626 16.9541 52.3452 13.4055C53.5094 15.6218 54.4795 18.0321 55.1996 20.5933C59.0802 22.5379 61.9734 24.9655 63.4869 27.6733Z"/>
<path d="M46.6925 18.1914C47.6411 22.2919 48.1843 26.8538 48.2145 31.6701H56.0922C56.062 27.9318 55.5532 24.3443 54.6391 21.0156C52.3151 19.886 49.6331 18.933 46.6925 18.1957V18.1914Z"/>
<path d="M43.6872 20.7787C45.3041 22.4646 46.5675 24.4954 47.3393 26.7548C47.1021 23.8142 46.6709 21.0029 46.0716 18.3899L43.6829 20.7787H43.6872Z"/>
<path d="M32.7999 31.6659H47.5462C47.46 27.6257 45.8259 23.9693 43.2215 21.2486L32.8042 31.6659H32.7999Z"/>
<path d="M36.3226 0.508878C39.0304 2.01801 41.458 4.91553 43.4026 8.79615C45.9638 9.52053 48.3741 10.4864 50.5903 11.6506C47.0374 5.93313 42.0271 1.88865 36.3226 0.508878Z"/>
<path d="M32.3299 7.90803V15.7857C37.1419 15.8159 41.7081 16.3548 45.8086 17.3078C45.067 14.3671 44.1184 11.6852 42.9844 9.3611C39.6513 8.44269 36.0682 7.9339 32.3299 7.90803Z"/>
<path d="M46.4252 17.1049L50.9439 12.5861C48.7535 11.3745 46.3519 10.3698 43.7907 9.59801C44.8298 11.8315 45.7267 14.3539 46.4252 17.1049Z"/>
<path d="M45.6058 17.9239C42.9929 17.3246 40.1816 16.8934 37.2409 16.6562C39.5046 17.4324 41.5355 18.6914 43.2171 20.3083L45.6058 17.9196V17.9239Z"/>
<path d="M20.7786 20.3083C22.4688 18.6914 24.4997 17.4281 26.7548 16.6562C23.8141 16.8934 21.0071 17.3246 18.3942 17.9239L20.7743 20.3127L20.7786 20.3083Z"/>
<path d="M31.6701 7.90803C27.9318 7.93821 24.3401 8.447 21.0157 9.3611C19.886 11.6852 18.9331 14.3671 18.1871 17.3078C22.292 16.3592 26.8582 15.8159 31.6701 15.7857V7.90803Z"/>
<path d="M31.6702 16.4539C27.63 16.5401 23.965 18.1743 21.2486 20.7786L31.6702 31.1959V16.4496V16.4539Z"/>
<path d="M17.1049 17.5749L12.5861 13.0561C11.3702 15.2465 10.3655 17.6482 9.59801 20.2094C11.8272 19.1702 14.3496 18.2734 17.1049 17.5749Z"/>
<path d="M7.90359 31.6658H15.7856C15.8071 26.8539 16.3504 22.2877 17.3076 18.1871C14.367 18.9288 11.6807 19.8774 9.36098 21.0071C8.43825 24.3401 7.92946 27.9232 7.90359 31.6615V31.6658Z"/>
<path d="M7.24379 31.6657C7.27397 28.0783 7.73963 24.6375 8.58043 21.4123C3.40196 24.1158 0.176733 27.7118 0.00426136 31.6657H7.24379Z"/>
<path d="M20.3128 20.7787L17.9241 18.3899C17.3248 21.0029 16.8936 23.8142 16.6564 26.7548C17.4326 24.4911 18.6873 22.4603 20.3085 20.7787H20.3128Z"/>
<path d="M31.2001 31.6659L20.7785 21.2486C18.1699 23.9693 16.5443 27.63 16.4581 31.6659H31.2044H31.2001Z"/>
<path d="M0.513139 27.6733C2.02227 24.9655 4.91978 22.5379 8.8004 20.5933C9.52478 18.0321 10.4906 15.6218 11.6548 13.4055C5.93737 16.9585 1.8886 21.9688 0.513139 27.6733Z"/>
<path d="M13.4054 11.6506C15.6173 10.4864 18.0276 9.51622 20.5931 8.79615C22.5377 4.91553 24.9653 2.02232 27.6731 0.508878C21.9686 1.88865 16.9497 5.93313 13.4054 11.6506Z"/>
<path d="M17.5749 17.1049C18.2777 14.3582 19.1659 11.8315 20.2094 9.59801C17.6482 10.3655 15.2422 11.3745 13.0561 12.5861L17.5749 17.1049Z"/>
<path d="M32.3299 0V7.23951C35.9173 7.26969 39.3581 7.73537 42.5833 8.57617C39.8798 3.39339 36.2838 0.172472 32.3299 0Z"/>
<path d="M31.67 0C27.7118 0.16816 24.1158 3.39339 21.4123 8.57617C24.6375 7.73968 28.0869 7.26969 31.67 7.23951V0Z"/>
</mask>
<path d="M46.4252 46.8906C45.7223 49.6459 44.8298 52.1683 43.7907 54.3975C46.3519 53.6343 48.7578 52.6253 50.9439 51.4094L46.4252 46.8906Z" stroke="#99FF18" stroke-width="2" mask="url(#path-1-inside-1_274_2067)"/>
<path d="M32.3299 56.0922C36.0682 56.0621 39.6557 55.5533 42.9844 54.6348C44.1141 52.3151 45.067 49.6332 45.8086 46.6882C41.7081 47.6454 37.1462 48.1887 32.3299 48.2103V56.0922Z" stroke="#99FF18" stroke-width="2" mask="url(#path-1-inside-1_274_2067)"/>
<path d="M42.5833 55.4194C39.3581 56.2559 35.9173 56.7259 32.3299 56.7561V63.9956C36.2838 63.8274 39.8798 60.6022 42.5833 55.4237V55.4194Z" stroke="#99FF18" stroke-width="2" mask="url(#path-1-inside-1_274_2067)"/>
<path d="M43.4068 55.2082C41.4622 59.0888 39.0347 61.9777 36.3269 63.4954C42.0314 62.1156 47.046 58.0669 50.5946 52.3494C48.3783 53.5136 45.9681 54.4838 43.4068 55.2125V55.2082Z" stroke="#99FF18" stroke-width="2" mask="url(#path-1-inside-1_274_2067)"/>
<path d="M17.5749 46.8906L13.0561 51.4094C15.2465 52.6253 17.6482 53.6343 20.2094 54.3975C19.1616 52.1683 18.2734 49.6459 17.5749 46.8906Z" stroke="#99FF18" stroke-width="2" mask="url(#path-1-inside-1_274_2067)"/>
<path d="M27.6774 63.4912C24.9696 61.9735 22.542 59.0846 20.5974 55.2039C18.0275 54.4753 15.6216 53.5051 13.4096 52.3409C16.9539 58.0583 21.9729 62.1071 27.6774 63.4869V63.4912Z" stroke="#99FF18" stroke-width="2" mask="url(#path-1-inside-1_274_2067)"/>
<path d="M31.67 63.9956V56.7561C28.0826 56.7259 24.6332 56.2602 21.4123 55.4194C24.1158 60.5979 27.7118 63.8231 31.67 63.9912V63.9956Z" stroke="#99FF18" stroke-width="2" mask="url(#path-1-inside-1_274_2067)"/>
<path d="M32.3299 47.5417C36.3701 47.4555 40.0264 45.83 42.7472 43.2213L32.3299 32.7997V47.5461V47.5417Z" stroke="#99FF18" stroke-width="2" mask="url(#path-1-inside-1_274_2067)"/>
<path d="M56.0922 32.3299H48.2145C48.1843 37.1419 47.6454 41.7081 46.6925 45.8129C49.6331 45.0713 52.3151 44.1141 54.6391 42.9844C55.5532 39.66 56.0663 36.0682 56.0922 32.3299Z" stroke="#99FF18" stroke-width="2" mask="url(#path-1-inside-1_274_2067)"/>
<path d="M43.6871 43.2216L46.0759 45.6017C46.6752 42.9887 47.1064 40.1818 47.3436 37.2411C46.5674 39.4962 45.3084 41.527 43.6915 43.2173L43.6871 43.2216Z" stroke="#99FF18" stroke-width="2" mask="url(#path-1-inside-1_274_2067)"/>
<path d="M56.7562 32.3299C56.726 35.9173 56.2604 39.3667 55.4196 42.5877C60.598 39.8842 63.8233 36.2881 63.9957 32.3299H56.7562Z" stroke="#99FF18" stroke-width="2" mask="url(#path-1-inside-1_274_2067)"/>
<path d="M55.2038 43.4024C54.4795 45.9722 53.5136 48.3782 52.3494 50.5902C58.0669 47.0459 62.1114 42.027 63.4911 36.3224C61.982 39.0303 59.0845 41.4578 55.2038 43.4024Z" stroke="#99FF18" stroke-width="2" mask="url(#path-1-inside-1_274_2067)"/>
<path d="M46.8951 46.4207L51.4138 50.9395C52.6255 48.7491 53.6301 46.3474 54.4019 43.7862C52.1727 44.834 49.646 45.7222 46.8951 46.4207Z" stroke="#99FF18" stroke-width="2" mask="url(#path-1-inside-1_274_2067)"/>
<path d="M37.2409 47.3393C40.1816 47.1021 42.9929 46.6709 45.6058 46.0716L43.2171 43.6871C41.5312 45.3084 39.5003 46.5674 37.2409 47.3393Z" stroke="#99FF18" stroke-width="2" mask="url(#path-1-inside-1_274_2067)"/>
<path d="M31.6702 32.7998L21.2486 43.2214C23.9693 45.83 27.6343 47.4556 31.6702 47.5418V32.7955V32.7998Z" stroke="#99FF18" stroke-width="2" mask="url(#path-1-inside-1_274_2067)"/>
<path d="M32.7999 32.3299L43.2172 42.7515C45.8259 40.0308 47.46 36.3657 47.542 32.3299H32.7956H32.7999Z" stroke="#99FF18" stroke-width="2" mask="url(#path-1-inside-1_274_2067)"/>
<path d="M9.36524 42.9844C11.685 44.1141 14.3712 45.0713 17.3119 45.8129C16.3547 41.7081 15.8114 37.1419 15.7898 32.3299H7.90785C7.93803 36.0682 8.44682 39.66 9.36524 42.9844Z" stroke="#99FF18" stroke-width="2" mask="url(#path-1-inside-1_274_2067)"/>
<path d="M17.1049 46.4207C14.3496 45.7179 11.8272 44.8297 9.59801 43.7862C10.3612 46.3474 11.3702 48.7534 12.5861 50.9395L17.1049 46.4207Z" stroke="#99FF18" stroke-width="2" mask="url(#path-1-inside-1_274_2067)"/>
<path d="M26.7547 47.3393C24.4996 46.5631 22.4688 45.3084 20.7786 43.6871L18.3984 46.0716C21.0114 46.6709 23.8184 47.1021 26.759 47.3393H26.7547Z" stroke="#99FF18" stroke-width="2" mask="url(#path-1-inside-1_274_2067)"/>
<path d="M31.6701 56.0922V48.2103C26.8582 48.1887 22.292 47.6454 18.1871 46.6882C18.9331 49.6332 19.886 52.3151 21.0157 54.6348C24.3401 55.5576 27.9318 56.0664 31.6701 56.0922Z" stroke="#99FF18" stroke-width="2" mask="url(#path-1-inside-1_274_2067)"/>
<path d="M20.3128 43.2215C18.6916 41.5313 17.4325 39.5005 16.6607 37.2454C16.8978 40.186 17.329 42.993 17.9284 45.6059L20.3171 43.2258L20.3128 43.2215Z" stroke="#99FF18" stroke-width="2" mask="url(#path-1-inside-1_274_2067)"/>
<path d="M20.7786 42.7515L31.2002 32.3299H16.4538C16.5401 36.3701 18.1656 40.0351 20.7743 42.7515H20.7786Z" stroke="#99FF18" stroke-width="2" mask="url(#path-1-inside-1_274_2067)"/>
<path d="M8.57614 42.5877C7.73966 39.3624 7.26968 35.913 7.2395 32.3299H0C0.16816 36.2881 3.39336 39.8842 8.57614 42.5877Z" stroke="#99FF18" stroke-width="2" mask="url(#path-1-inside-1_274_2067)"/>
<path d="M11.6548 50.5902C10.4906 48.3782 9.52478 45.9679 8.8004 43.4024C4.91978 41.4578 2.02658 39.0303 0.513139 36.3224C1.8886 42.027 5.93737 47.0459 11.6548 50.5902Z" stroke="#99FF18" stroke-width="2" mask="url(#path-1-inside-1_274_2067)"/>
<path d="M55.4238 21.4123C56.2603 24.6375 56.7303 28.0783 56.7605 31.6657H64C63.8318 27.7118 60.6066 24.1158 55.4238 21.4123Z" stroke="#99FF18" stroke-width="2" mask="url(#path-1-inside-1_274_2067)"/>
<path d="M32.3299 31.1959L42.7472 20.7786C40.0264 18.1699 36.3657 16.5358 32.3299 16.4538V31.2002V31.1959Z" stroke="#99FF18" stroke-width="2" mask="url(#path-1-inside-1_274_2067)"/>
<path d="M46.8951 17.5749C49.6417 18.2777 52.1727 19.1702 54.4019 20.2094C53.6344 17.6482 52.6255 15.2422 51.4138 13.0561L46.8951 17.5749Z" stroke="#99FF18" stroke-width="2" mask="url(#path-1-inside-1_274_2067)"/>
<path d="M63.4869 27.6733C62.1071 21.9688 58.0626 16.9541 52.3452 13.4055C53.5094 15.6218 54.4795 18.0321 55.1996 20.5933C59.0802 22.5379 61.9734 24.9655 63.4869 27.6733Z" stroke="#99FF18" stroke-width="2" mask="url(#path-1-inside-1_274_2067)"/>
<path d="M46.6925 18.1914C47.6411 22.2919 48.1843 26.8538 48.2145 31.6701H56.0922C56.062 27.9318 55.5532 24.3443 54.6391 21.0156C52.3151 19.886 49.6331 18.933 46.6925 18.1957V18.1914Z" stroke="#99FF18" stroke-width="2" mask="url(#path-1-inside-1_274_2067)"/>
<path d="M43.6872 20.7787C45.3041 22.4646 46.5675 24.4954 47.3393 26.7548C47.1021 23.8142 46.6709 21.0029 46.0716 18.3899L43.6829 20.7787H43.6872Z" stroke="#99FF18" stroke-width="2" mask="url(#path-1-inside-1_274_2067)"/>
<path d="M32.7999 31.6659H47.5462C47.46 27.6257 45.8259 23.9693 43.2215 21.2486L32.8042 31.6659H32.7999Z" stroke="#99FF18" stroke-width="2" mask="url(#path-1-inside-1_274_2067)"/>
<path d="M36.3226 0.508878C39.0304 2.01801 41.458 4.91553 43.4026 8.79615C45.9638 9.52053 48.3741 10.4864 50.5903 11.6506C47.0374 5.93313 42.0271 1.88865 36.3226 0.508878Z" stroke="#99FF18" stroke-width="2" mask="url(#path-1-inside-1_274_2067)"/>
<path d="M32.3299 7.90803V15.7857C37.1419 15.8159 41.7081 16.3548 45.8086 17.3078C45.067 14.3671 44.1184 11.6852 42.9844 9.3611C39.6513 8.44269 36.0682 7.9339 32.3299 7.90803Z" stroke="#99FF18" stroke-width="2" mask="url(#path-1-inside-1_274_2067)"/>
<path d="M46.4252 17.1049L50.9439 12.5861C48.7535 11.3745 46.3519 10.3698 43.7907 9.59801C44.8298 11.8315 45.7267 14.3539 46.4252 17.1049Z" stroke="#99FF18" stroke-width="2" mask="url(#path-1-inside-1_274_2067)"/>
<path d="M45.6058 17.9239C42.9929 17.3246 40.1816 16.8934 37.2409 16.6562C39.5046 17.4324 41.5355 18.6914 43.2171 20.3083L45.6058 17.9196V17.9239Z" stroke="#99FF18" stroke-width="2" mask="url(#path-1-inside-1_274_2067)"/>
<path d="M20.7786 20.3083C22.4688 18.6914 24.4997 17.4281 26.7548 16.6562C23.8141 16.8934 21.0071 17.3246 18.3942 17.9239L20.7743 20.3127L20.7786 20.3083Z" stroke="#99FF18" stroke-width="2" mask="url(#path-1-inside-1_274_2067)"/>
<path d="M31.6701 7.90803C27.9318 7.93821 24.3401 8.447 21.0157 9.3611C19.886 11.6852 18.9331 14.3671 18.1871 17.3078C22.292 16.3592 26.8582 15.8159 31.6701 15.7857V7.90803Z" stroke="#99FF18" stroke-width="2" mask="url(#path-1-inside-1_274_2067)"/>
<path d="M31.6702 16.4539C27.63 16.5401 23.965 18.1743 21.2486 20.7786L31.6702 31.1959V16.4496V16.4539Z" stroke="#99FF18" stroke-width="2" mask="url(#path-1-inside-1_274_2067)"/>
<path d="M17.1049 17.5749L12.5861 13.0561C11.3702 15.2465 10.3655 17.6482 9.59801 20.2094C11.8272 19.1702 14.3496 18.2734 17.1049 17.5749Z" stroke="#99FF18" stroke-width="2" mask="url(#path-1-inside-1_274_2067)"/>
<path d="M7.90359 31.6658H15.7856C15.8071 26.8539 16.3504 22.2877 17.3076 18.1871C14.367 18.9288 11.6807 19.8774 9.36098 21.0071C8.43825 24.3401 7.92946 27.9232 7.90359 31.6615V31.6658Z" stroke="#99FF18" stroke-width="2" mask="url(#path-1-inside-1_274_2067)"/>
<path d="M7.24379 31.6657C7.27397 28.0783 7.73963 24.6375 8.58043 21.4123C3.40196 24.1158 0.176733 27.7118 0.00426136 31.6657H7.24379Z" stroke="#99FF18" stroke-width="2" mask="url(#path-1-inside-1_274_2067)"/>
<path d="M20.3128 20.7787L17.9241 18.3899C17.3248 21.0029 16.8936 23.8142 16.6564 26.7548C17.4326 24.4911 18.6873 22.4603 20.3085 20.7787H20.3128Z" stroke="#99FF18" stroke-width="2" mask="url(#path-1-inside-1_274_2067)"/>
<path d="M31.2001 31.6659L20.7785 21.2486C18.1699 23.9693 16.5443 27.63 16.4581 31.6659H31.2044H31.2001Z" stroke="#99FF18" stroke-width="2" mask="url(#path-1-inside-1_274_2067)"/>
<path d="M0.513139 27.6733C2.02227 24.9655 4.91978 22.5379 8.8004 20.5933C9.52478 18.0321 10.4906 15.6218 11.6548 13.4055C5.93737 16.9585 1.8886 21.9688 0.513139 27.6733Z" stroke="#99FF18" stroke-width="2" mask="url(#path-1-inside-1_274_2067)"/>
<path d="M13.4054 11.6506C15.6173 10.4864 18.0276 9.51622 20.5931 8.79615C22.5377 4.91553 24.9653 2.02232 27.6731 0.508878C21.9686 1.88865 16.9497 5.93313 13.4054 11.6506Z" stroke="#99FF18" stroke-width="2" mask="url(#path-1-inside-1_274_2067)"/>
<path d="M17.5749 17.1049C18.2777 14.3582 19.1659 11.8315 20.2094 9.59801C17.6482 10.3655 15.2422 11.3745 13.0561 12.5861L17.5749 17.1049Z" stroke="#99FF18" stroke-width="2" mask="url(#path-1-inside-1_274_2067)"/>
<path d="M32.3299 0V7.23951C35.9173 7.26969 39.3581 7.73537 42.5833 8.57617C39.8798 3.39339 36.2838 0.172472 32.3299 0Z" stroke="#99FF18" stroke-width="2" mask="url(#path-1-inside-1_274_2067)"/>
<path d="M31.67 0C27.7118 0.16816 24.1158 3.39339 21.4123 8.57617C24.6375 7.73968 28.0869 7.26969 31.67 7.23951V0Z" stroke="#99FF18" stroke-width="2" mask="url(#path-1-inside-1_274_2067)"/>
</svg>
