<svg width="360" height="509" viewBox="0 0 360 509" fill="none" xmlns="http://www.w3.org/2000/svg">
<path d="M235.823 75.3157L335.097 203.595C339.013 208.655 341.097 215.396 341.287 222.25C341.477 229.103 339.772 236.042 336.145 241.494C334.822 243.483 334.844 246.021 335.662 247.907C336.072 248.852 336.692 249.658 337.472 250.149C338.26 250.646 339.2 250.814 340.205 250.491L352.049 246.677C353.958 246.063 355.844 246.73 357.276 248.273C358.711 249.819 359.673 252.236 359.673 255.041V491.172C359.673 496.032 358.226 500.42 355.902 503.585C353.578 506.749 350.395 508.673 346.909 508.673H13.0909C9.60508 508.673 6.42179 506.749 4.09804 503.585C1.77441 500.42 0.327273 496.032 0.327273 491.172V17.8284C0.327273 12.9676 1.77441 8.58002 4.09804 5.4155C6.42179 2.25081 9.60508 0.327273 13.0909 0.327273H214.862C216.351 0.327273 217.812 1.07125 218.96 2.4625L219.293 2.86586L219.546 2.65754L219.293 2.86588C219.537 3.16074 219.763 3.48185 219.971 3.82653L227.219 15.836C231.101 22.2688 232.126 31.0815 229.879 38.8498C226.218 51.5029 228.557 65.9269 235.823 75.3157ZM266.35 15.1805C264.282 12.5084 263.93 8.77753 264.831 5.7033C265.735 2.61702 267.849 0.327273 270.596 0.327273H346.909C350.395 0.327273 353.578 2.25081 355.902 5.41551C358.226 8.58003 359.673 12.9676 359.673 17.8284V126.241C359.673 130.205 357.887 133.079 355.683 134.251C354.583 134.837 353.375 135.002 352.209 134.68C351.042 134.357 349.888 133.538 348.913 132.1C319.044 88.0464 292.775 49.3262 292.327 48.7471L266.35 15.1805Z" fill="#1D1D1F" stroke="#1D1D1F" stroke-width="0.654545"/>
</svg>
