<svg width="64" height="64" viewBox="0 0 64 64" fill="none" xmlns="http://www.w3.org/2000/svg">
<path d="M32 0C14.3542 0 0 14.3542 0 32C0 49.6458 14.3542 64 32 64C49.6458 64 64 49.6458 64 32C64 14.3542 49.6458 0 32 0ZM17.6264 18.4845C16.6908 22.4984 16.1624 26.968 16.1382 31.6752H8.42539C8.45448 28.02 8.94895 24.5054 9.85063 21.2477C12.1242 20.1424 14.7469 19.2116 17.6264 18.4845ZM10.0833 20.4624C10.8347 17.9561 11.8188 15.6049 13.0065 13.4622L17.4277 17.8833C14.7372 18.5717 12.2648 19.4395 10.0833 20.4624ZM16.1382 32.3248C16.1624 37.032 16.6908 41.5016 17.6264 45.5155C14.7469 44.7884 12.1242 43.8576 9.85063 42.7523C8.9538 39.4946 8.45448 35.9848 8.42539 32.3248H16.1382ZM17.4277 46.1166L13.0065 50.5378C11.8188 48.3951 10.8347 46.0439 10.0833 43.5376C12.2648 44.5605 14.7372 45.4283 17.4277 46.1166ZM17.8882 46.5772C18.5766 49.2677 19.4443 51.74 20.4672 53.9215C17.9609 53.1701 15.6098 52.186 13.4671 50.9983L17.8882 46.5772ZM16.9914 37.1338C17.7476 39.3443 18.9789 41.3319 20.5642 42.985L18.2324 45.3168C17.6458 42.7572 17.2241 40.0133 16.9914 37.1338ZM21.0247 43.4407C22.6729 45.0259 24.6654 46.2572 26.8759 47.0135C23.9964 46.7808 21.2525 46.359 18.6929 45.7724L21.0247 43.4407ZM21.0247 42.5245C18.4748 39.863 16.8799 36.2806 16.7926 32.3296H31.2195L21.0247 42.5245ZM16.7926 31.68C16.875 27.7291 18.4699 24.1466 21.0247 21.4852L31.2195 31.68H16.7926ZM18.6881 18.2324C21.2477 17.6458 23.9915 17.2241 26.8711 16.9914C24.6605 17.7476 22.6729 18.9789 21.0198 20.5642L18.6881 18.2324ZM20.5642 21.0247C18.9789 22.6729 17.7476 24.6653 16.9914 26.8759C17.2241 23.9964 17.6458 21.2525 18.2324 18.6929L20.5642 21.0247ZM17.8882 17.4277L13.4671 13.0065C15.6098 11.8188 17.9609 10.8347 20.4672 10.0833C19.4443 12.2648 18.5766 14.7372 17.8882 17.4277ZM13.8112 12.0903C17.2871 6.49598 22.193 2.53537 27.7728 1.1877C25.121 2.66626 22.7456 5.49735 20.8453 9.29314C18.3342 10.0058 15.9782 10.9462 13.8112 12.0903ZM24.6654 1.52704C19.9436 3.50977 15.8522 7.35888 12.8756 12.4102L10.0833 9.61794C14.0633 5.72034 19.0759 2.87472 24.6654 1.52704ZM9.62279 10.0785L12.4151 12.8708C7.36374 15.8473 3.51947 19.9388 1.53189 24.6605C2.87957 19.071 5.7252 14.0585 9.62279 10.0785ZM12.0951 13.8064C10.9559 15.9733 10.0106 18.3342 9.298 20.8405C5.50221 22.7408 2.67112 25.1162 1.1877 27.7679C2.53538 22.1833 6.49599 17.2774 12.0903 13.8064H12.0951ZM9.08469 21.6404C8.26542 24.7962 7.80489 28.1654 7.78065 31.6752H0.693239C0.862911 27.8018 4.01395 24.2824 9.08469 21.6404ZM7.78065 32.3248C7.80973 35.8346 8.26542 39.2086 9.08469 42.3596C4.01395 39.7128 0.858063 36.1933 0.693239 32.3248H7.78065ZM9.298 43.1595C10.0106 45.6706 10.9511 48.0267 12.0951 50.1936C6.50084 46.7178 2.54023 41.8118 1.19256 36.2321C2.67112 38.8838 5.5022 41.2592 9.30283 43.1595H9.298ZM1.53189 39.3395C3.51462 44.0612 7.36374 48.1527 12.4151 51.1292L9.62279 53.9215C5.7252 49.9415 2.87957 44.9289 1.53189 39.3395ZM10.0833 54.3772L12.8756 51.5849C15.8522 56.6363 19.9436 60.4854 24.6654 62.4681C19.0759 61.1204 14.0633 58.2748 10.0833 54.3772ZM13.8112 51.9049C15.9782 53.0441 18.339 53.9894 20.8453 54.702C22.7456 58.4978 25.121 61.3289 27.7728 62.8074C22.1882 61.4598 17.2822 57.4992 13.8064 51.9049H13.8112ZM31.68 63.3068C27.8067 63.1371 24.2872 59.986 21.6452 54.9153C24.8011 55.7346 28.1703 56.1951 31.68 56.2242V63.3116V63.3068ZM31.68 55.5698C28.02 55.5407 24.5102 55.0462 21.2525 54.1445C20.1473 51.8709 19.2165 49.2483 18.4893 46.3687C22.5033 47.2995 26.9729 47.8327 31.68 47.857V55.5698ZM31.68 47.2025C27.7291 47.1201 24.1466 45.5252 21.4852 42.9705L31.68 32.7708V47.1977V47.2025ZM31.68 31.2098L21.4852 21.015C24.1466 18.4651 27.7291 16.8702 31.68 16.7829V31.2098ZM31.68 16.1285C26.9729 16.1527 22.5033 16.6811 18.4893 17.6167C19.2165 14.7372 20.1473 12.1145 21.2525 9.84093C24.5102 8.9441 28.02 8.44478 31.68 8.41569V16.1285ZM31.68 7.76609C28.1703 7.79518 24.7963 8.25087 21.6452 9.07014C24.2921 3.99939 27.8115 0.843508 31.68 0.678685V7.76609ZM53.9264 9.60824L51.1341 12.4005C48.1576 7.34919 44.066 3.50008 39.3443 1.51735C44.9338 2.86502 49.9464 5.71065 53.9264 9.60824ZM47.0135 26.8565C46.2572 24.646 45.0259 22.6584 43.4407 21.0053L45.7725 18.6735C46.359 21.2331 46.7808 23.977 47.0135 26.8565ZM43.5377 10.0688C46.0439 10.8202 48.3951 11.8043 50.5378 12.992L46.1166 17.4131C45.4283 14.7226 44.5605 12.2503 43.5377 10.0688ZM42.9802 20.5496C41.3319 18.9644 39.3395 17.7331 37.1338 16.9768C40.0133 17.2095 42.7572 17.6313 45.3168 18.2178L42.985 20.5496H42.9802ZM42.9802 21.4658C45.5301 24.1272 47.125 27.7097 47.2122 31.6607H32.7853L42.9802 21.4658ZM47.2122 32.3102C47.1298 36.2612 45.5349 39.8437 42.9802 42.5051L32.7853 32.3102H47.2122ZM45.3168 45.7579C42.7572 46.3445 40.0133 46.7662 37.1338 46.9989C39.3443 46.2427 41.3319 45.0114 42.985 43.4261L45.3168 45.7579ZM43.4407 42.9656C45.0259 41.3174 46.2572 39.3249 47.0135 37.1144C46.7808 39.9939 46.359 42.7378 45.7725 45.2974L43.4407 42.9656ZM46.1166 46.5626L50.5378 50.9838C48.3951 52.1715 46.0439 53.1556 43.5377 53.907C44.5605 51.7255 45.4283 49.2531 46.1166 46.5626ZM46.5772 46.1021C49.2677 45.4137 51.74 44.546 53.9215 43.5231C53.1701 46.0294 52.186 48.3805 50.9983 50.5232L46.5772 46.1021ZM46.3784 45.501C47.314 41.487 47.8425 37.0174 47.8667 32.3102H55.5795C55.5504 35.9655 55.0559 39.4801 54.1542 42.7378C51.8806 43.843 49.258 44.7738 46.3784 45.501ZM47.8667 31.6607C47.8425 26.9535 47.314 22.4839 46.3784 18.4699C49.258 19.1971 51.8806 20.1279 54.1542 21.2331C55.0511 24.4908 55.5504 28.0006 55.5795 31.6607H47.8667ZM46.5772 17.8688L50.9983 13.4477C52.186 15.5904 53.1701 17.9415 53.9215 20.4478C51.74 19.4249 49.2677 18.5572 46.5772 17.8688ZM50.1985 12.0757C48.0315 10.9365 45.6707 9.99121 43.1644 9.27859C41.264 5.4828 38.8886 2.65172 36.2369 1.17316C41.8215 2.52083 46.7275 6.48144 50.1985 12.0757ZM32.3248 0.68838C36.1982 0.858052 39.7176 4.00909 42.3596 9.07983C39.2038 8.26056 35.8346 7.80003 32.3248 7.77579V0.68838ZM32.3248 8.42539C35.9849 8.45447 39.4946 8.94895 42.7523 9.85063C43.8576 12.1242 44.7884 14.7469 45.5155 17.6264C41.5016 16.6957 37.032 16.1624 32.3248 16.1382V8.42539ZM32.3248 16.7926C36.2757 16.875 39.8582 18.4699 42.5196 21.0247L32.3248 31.2195V16.7926ZM32.3248 32.7853L42.5196 42.9801C39.8582 45.5301 36.2757 47.125 32.3248 47.2122V32.7853ZM32.3248 47.8667C37.032 47.8424 41.5016 47.314 45.5155 46.3784C44.7884 49.258 43.8576 51.8806 42.7523 54.1542C39.4946 55.051 35.9849 55.5504 32.3248 55.5794V47.8667ZM32.3248 56.229C35.8346 56.2 39.2086 55.7443 42.3596 54.9202C39.7128 59.9909 36.1933 63.1468 32.3248 63.3116V56.2242V56.229ZM43.1595 54.7117C45.6707 53.9991 48.0267 53.0586 50.1936 51.9145C46.7178 57.5089 41.8119 61.4695 36.2321 62.8171C38.8838 61.3386 41.2592 58.5075 43.1595 54.7117ZM39.3395 62.4778C44.0612 60.4951 48.1527 56.646 51.1292 51.5946L53.9215 54.3869C49.9415 58.2845 44.929 61.1301 39.3395 62.4778ZM54.3821 53.9264L51.5898 51.1341C56.6411 48.1575 60.4854 44.066 62.473 39.3443C61.1253 44.9338 58.2797 49.9464 54.3821 53.9264ZM51.9097 50.1984C53.0489 48.0315 53.9942 45.6706 54.7069 43.1644C58.5026 41.264 61.3337 38.8886 62.8172 36.2369C61.4695 41.8215 57.5089 46.7275 51.9146 50.1984H51.9097ZM54.9202 42.3645C55.7394 39.2086 56.2 35.8394 56.2242 32.3296H63.3116C63.1419 36.203 59.9909 39.7225 54.9202 42.3645ZM56.2242 31.68C56.1951 28.1703 55.7394 24.7962 54.9202 21.6452C59.9909 24.2921 63.1468 27.8115 63.3116 31.68H56.2242ZM54.7069 20.8453C53.9942 18.3342 53.0538 15.9782 51.9097 13.8112C57.504 17.2871 61.4646 22.193 62.8123 27.7728C61.3337 25.121 58.5027 22.7456 54.702 20.8453H54.7069ZM51.5898 12.8708L54.3821 10.0785C58.2797 14.0585 61.1253 19.071 62.473 24.6605C60.4902 19.9388 56.6411 15.8473 51.5898 12.8708Z" fill="#99FF18"/>
</svg>
