<svg width="360" height="509" viewBox="0 0 360 509" fill="none" xmlns="http://www.w3.org/2000/svg">
<path d="M286.191 508.498L286.059 508.5H13.0909C9.67323 508.5 6.53714 506.614 4.23726 503.482C1.93758 500.35 0.5 496 0.5 491.172V17.8284C0.5 13.0005 1.93758 8.64964 4.23726 5.51773C6.53714 2.38556 9.67323 0.5 13.0909 0.5H164.65L166.056 0.583267C172.225 0.948544 177.786 6.20903 180.167 14.2401C183.79 26.457 192.549 34.6053 202.424 34.6053H339.838C345.11 34.6053 349.941 37.4709 353.502 42.2108C357.064 46.9506 359.331 53.5394 359.455 60.8884L359.455 60.8898L359.456 60.9363L359.456 60.9378C359.46 61.1257 359.469 61.3125 359.477 61.4932L359.477 61.4997C359.489 61.7631 359.5 62.0135 359.5 62.2623V426.234L359.238 431.868C359.023 436.497 357.537 440.928 354.996 444.542L316.073 499.899C312.431 505.079 306.955 508.119 301.155 508.225L286.191 508.498Z" fill="#1D1D1F" stroke="#1D1D1F"/>
</svg>
