<svg width="360" height="509" viewBox="0 0 360 509" fill="none" xmlns="http://www.w3.org/2000/svg">
<path d="M359.455 60.8884L359.455 60.8888L359.456 60.9363L359.456 60.9377C359.461 61.1483 359.47 61.3381 359.478 61.5214C359.489 61.7683 359.5 62.0035 359.5 62.2623V491.172C359.5 496 358.062 500.35 355.763 503.482C353.463 506.614 350.327 508.5 346.909 508.5H13.0909C9.67323 508.5 6.53714 506.614 4.23726 503.482C1.93758 500.35 0.5 496 0.5 491.172V17.8284C0.5 13.0005 1.93758 8.64964 4.23726 5.51773C6.53714 2.38556 9.67322 0.5 13.0909 0.5H164.65L166.056 0.583267C172.224 0.948544 177.785 6.20903 180.167 14.2401C183.79 26.457 192.549 34.6053 202.424 34.6053H339.838C345.11 34.6053 349.941 37.4709 353.502 42.2108C357.064 46.9506 359.331 53.5393 359.455 60.8884Z" fill="#1D1D1F" stroke="#1D1D1F"/>
</svg>
