<svg width="44" height="44" viewBox="0 0 44 44" fill="none" xmlns="http://www.w3.org/2000/svg">
<path d="M43.9949 24.6835L41.1619 19.3317C37.0822 21.4906 33.7678 22.8032 31.2541 23.2543C34.1834 21.2524 36.844 17.8062 39.2665 12.8852L33.8337 10.2043C32.1815 13.5542 30.6358 15.703 29.237 17.0714C30.0327 13.3971 29.0191 8.21766 24.6708 0.00756836L19.3191 2.84056C21.478 6.92027 22.7906 10.2347 23.2416 12.7433C21.2398 9.81407 17.7936 7.15846 12.8777 4.73091L10.1967 10.1638C13.5466 11.8159 15.6955 13.3616 17.0638 14.7604C13.3895 13.9647 8.21009 14.9783 0 19.3216L2.83299 24.6733C6.90762 22.5144 10.217 21.2068 12.7307 20.7507C9.79636 22.7779 7.14075 26.219 4.7284 31.1147L10.1613 33.7956C11.8033 30.4609 13.3541 28.307 14.7579 26.9286C13.9622 30.6028 14.9758 35.7823 19.3241 43.9924L24.6759 41.1594C22.5169 37.0847 21.2094 33.7754 20.7533 31.2617C22.7805 34.196 26.2216 36.8516 31.1173 39.264L33.7982 33.8311C30.4635 32.1891 28.3096 30.6434 26.9311 29.2395C27.6761 29.4017 28.4768 29.4879 29.3587 29.4879C32.8252 29.4879 37.4522 28.1398 44 24.6733L43.9949 24.6835Z" fill="#3A5EFB"/>
</svg>
