<svg width="44" height="44" viewBox="0 0 44 44" fill="none" xmlns="http://www.w3.org/2000/svg">
<path d="M44 22C44 9.87289 34.1328 0 22 0C9.86721 0 0 9.86718 0 22C0 34.1328 9.86721 44 22 44C34.1328 44 44 34.1328 44 22ZM33.7276 20.8871C33.6534 17.8625 33.2597 15.0205 32.6205 12.4581C34.578 11.8931 36.3699 11.1683 37.9336 10.3009C40.1422 13.297 41.5232 16.938 41.7401 20.8871H33.7276ZM31.5019 20.8871H23.1072V13.8734C25.6581 13.8049 28.1292 13.5082 30.4348 13.0117C31.0397 15.4143 31.422 18.0794 31.5019 20.8871ZM23.1072 11.6534V2.36835C25.8522 3.06459 28.2776 6.30038 29.8127 10.8773C27.7069 11.3224 25.447 11.5907 23.1072 11.6534ZM20.8872 2.36835V11.6534C18.5474 11.5907 16.2874 11.3224 14.1816 10.8773C15.7167 6.30038 18.1422 3.06459 20.8872 2.36835ZM20.8872 13.8734V20.8871H12.4924C12.5722 18.0794 12.9489 15.4086 13.5595 13.0117C15.8651 13.5139 18.3362 13.8106 20.8872 13.8734ZM10.2724 20.8871H2.25993C2.47679 16.938 3.86355 13.3027 6.06641 10.3009C7.63009 11.1683 9.42205 11.8931 11.3795 12.4581C10.7346 15.0205 10.3466 17.8625 10.2724 20.8871ZM10.2724 23.1071C10.3466 26.1318 10.7403 28.9738 11.3795 31.5362C9.42205 32.1012 7.63009 32.8259 6.06641 33.6934C3.85785 30.6973 2.47679 27.0563 2.25993 23.1071H10.2724ZM12.4981 23.1071H20.8929V30.1209C18.3419 30.1893 15.8708 30.4861 13.5652 30.9826C12.9603 28.5857 12.578 25.9149 12.5038 23.1071H12.4981ZM20.8929 32.3408V41.6259C18.1479 40.9297 15.7225 37.6939 14.1873 33.117C16.2931 32.6718 18.5531 32.4036 20.8929 32.3408ZM23.1128 41.6259V32.3408C25.4526 32.4036 27.7126 32.6718 29.8184 33.117C28.2833 37.6939 25.8578 40.9297 23.1128 41.6259ZM23.1128 30.1209V23.1071H31.5077C31.4278 25.9149 31.0511 28.5857 30.4462 30.9826C28.1406 30.4804 25.6695 30.1836 23.1185 30.1209H23.1128ZM33.7276 23.1071H41.7401C41.5232 27.0506 40.1364 30.6916 37.9336 33.6934C36.3699 32.8259 34.578 32.1012 32.6205 31.5362C33.2654 28.9738 33.6534 26.1318 33.7276 23.1071ZM36.4897 8.5546C35.16 9.25655 33.6477 9.85006 32.0041 10.3294C31.0511 7.43035 29.7499 4.99922 28.2034 3.22438C31.4049 4.28586 34.2412 6.14059 36.4897 8.5546ZM15.7967 3.22438C14.2444 4.99922 12.9432 7.43035 11.9959 10.3294C10.3523 9.85577 8.84568 9.26225 7.51597 8.5546C9.75878 6.13489 12.6008 4.28015 15.8023 3.22438H15.7967ZM7.51026 35.4397C8.83996 34.7377 10.3523 34.1442 11.9959 33.6648C12.9489 36.5639 14.2501 38.995 15.7967 40.7699C12.5951 39.7084 9.75877 37.8537 7.51026 35.4397ZM28.2034 40.7699C29.7557 38.995 31.0568 36.5639 32.0041 33.6648C33.6477 34.1385 35.1544 34.732 36.4841 35.4397C34.2413 37.8594 31.3992 39.7141 28.1977 40.7699H28.2034Z" fill="#3A5EFB"/>
</svg>
