<svg width="24" height="24" viewBox="0 0 24 24" fill="none" xmlns="http://www.w3.org/2000/svg">
<path d="M24 11.4147H19.3751C19.1058 7.63976 16.239 4.58642 12.5829 4.0886V0H11.4171V4.02098C7.32614 4.08161 3.98368 7.32614 3.69106 11.4171H0V12.5829H3.69106C3.98368 16.6739 7.32614 19.9184 11.4171 19.979V24H12.5829V19.9067C16.239 19.4089 19.1116 16.3556 19.3751 12.5806H24V11.4147ZM18.2069 11.4147H12.5829V5.26611C15.5954 5.74993 17.9446 8.2833 18.2069 11.4147ZM11.4171 5.18449V11.4147H4.86038C5.14835 7.96736 7.96851 5.24628 11.4171 5.18449ZM4.86038 12.5806H11.4171V18.8108C7.96851 18.7502 5.14835 16.028 4.86038 12.5806ZM12.5829 18.7292V12.5806H18.2069C17.9446 15.7109 15.5954 18.2454 12.5829 18.7292Z" fill="#1D1D1F"/>
</svg>
