<svg width="24" height="25" viewBox="0 0 24 25" fill="none" xmlns="http://www.w3.org/2000/svg">
<path d="M7.78603 15.3963L1.17991 22.0013L1.17171 15.9669L0 15.9681L0.0117143 24.0201H8.04967V22.8484H1.99074L8.61443 16.2247L7.78603 15.3963Z" fill="#1D1D1F"/>
<path d="M22.8283 22.0071L16.228 15.3823L15.3984 16.2095L22.0139 22.8484H15.8706V24.0202H24V15.9681H22.8283V22.0071Z" fill="#1D1D1F"/>
<path d="M15.9234 0V1.17171H22.0093L15.3879 7.79423L16.2163 8.62264L22.8283 2.00948V8.11295H24V0H15.9234Z" fill="#1D1D1F"/>
<path d="M1.17991 2.01886L7.78486 8.62381L8.61327 7.7954L1.99074 1.17171H8.07545V0H0.0117143L0 8.11177L1.17171 8.11295L1.17991 2.01886Z" fill="#1D1D1F"/>
</svg>
