<svg width="20" height="6" viewBox="0 0 20 6" fill="none" xmlns="http://www.w3.org/2000/svg">
<g clip-path="url(#clip0_236_10)">
<path d="M4.12743 0H0V6H4.12743C5.56 6 6.72486 4.9607 6.72486 3.6827V2.3173C6.72514 1.0393 5.56 0 4.12743 0ZM5.03343 3.6827C5.03343 4.12826 4.62743 4.49113 4.12771 4.49113H1.69057V1.50861H4.12743C4.62686 1.50861 5.03314 1.8707 5.03314 2.3173V3.6827H5.03343ZM7.20229 1.50861H9.56343V5.98748H11.2543V1.50861H13.6154V0H7.20229M20 1.50861V0H14.5397V5.98748H16.2306V4.22348H19.0826V2.71565H16.2306V1.50861" fill="#141414"/>
</g>
<defs>
<clipPath id="clip0_236_10">
<rect width="20" height="6" fill="white"/>
</clipPath>
</defs>
</svg> 