<svg width="20" height="20" viewBox="0 0 20 20" fill="none" xmlns="http://www.w3.org/2000/svg">
<path fill-rule="evenodd" clip-rule="evenodd" d="M11.7492 11.7492C10.4649 13.0744 10.3773 14.7265 10.2605 18.346C13.6348 18.346 15.9641 18.3343 17.1667 17.1667C18.3343 15.9641 18.346 13.5239 18.346 10.2605C14.7265 10.3773 13.0744 10.4649 11.7492 11.7492ZM10.0854 18.346C6.71114 18.346 4.38184 18.3343 3.17924 17.1667C2.01168 15.9641 2 13.5239 2 10.2605C5.61946 10.3773 7.27157 10.4649 8.59676 11.7492C9.88109 13.0744 9.96866 14.7265 10.0854 18.346ZM8.59676 8.59676C7.27157 9.88109 5.61946 9.96866 2 10.0854C2 6.82206 2.01168 4.38184 3.17924 3.17924C4.38184 2.01168 6.71698 2 10.0854 2C9.96866 5.61946 9.88109 7.27157 8.59676 8.59676ZM10.2605 2C10.3715 5.61946 10.4649 7.27157 11.7492 8.59676C13.0744 9.88109 14.7265 9.96866 18.346 10.0854C18.346 6.82206 18.3343 4.38184 17.1667 3.17924C15.9641 2.01168 13.6348 2 10.2605 2Z" fill="#141414"/>
</svg> 