<svg width="20" height="20" viewBox="0 0 20 20" fill="none" xmlns="http://www.w3.org/2000/svg">
<path d="M10.5259 16.2981C3.92307 16.2981 0.156923 11.6817 0 4H3.30745C3.41609 9.63818 5.85442 12.0264 7.78578 12.5188V4H10.9001V8.86262C12.8073 8.65335 14.8111 6.43747 15.4871 4H18.6014C18.3467 5.26414 17.8389 6.46108 17.1099 7.51595C16.3808 8.57082 15.4462 9.46093 14.3645 10.1306C15.572 10.7425 16.6385 11.6086 17.4937 12.6717C18.3488 13.7348 18.9732 14.9708 19.3256 16.2981H15.8975C15.5811 15.1453 14.9382 14.1133 14.0492 13.3315C13.1602 12.5497 12.0648 12.0529 10.9001 11.9033V16.2981H10.5259Z" fill="#141414"/>
</svg> 