<svg width="20" height="20" viewBox="0 0 20 20" fill="none" xmlns="http://www.w3.org/2000/svg">
<path d="M10.0008 1.66666C14.6033 1.66666 18.3342 5.3975 18.3342 10C18.3342 14.6025 14.6033 18.3333 10.0008 18.3333C8.52815 18.3357 7.08138 17.946 5.80917 17.2042L1.67083 18.3333L2.7975 14.1933C2.05508 12.9207 1.66504 11.4733 1.6675 10C1.6675 5.3975 5.39833 1.66666 10.0008 1.66666ZM7.16083 6.08333L6.99417 6.09C6.88627 6.09657 6.78082 6.12492 6.68417 6.17333C6.59377 6.22452 6.51125 6.28852 6.43917 6.36333C6.33917 6.4575 6.2825 6.53916 6.22167 6.61833C5.91343 7.01908 5.74748 7.51109 5.75 8.01666C5.75167 8.425 5.85833 8.8225 6.025 9.19416C6.36583 9.94583 6.92667 10.7417 7.66667 11.4792C7.845 11.6567 8.02 11.835 8.20833 12.0008C9.12782 12.8104 10.2235 13.3942 11.4083 13.7058L11.8817 13.7783C12.0358 13.7867 12.19 13.775 12.345 13.7675C12.5877 13.755 12.8247 13.6893 13.0392 13.575C13.1483 13.5188 13.2548 13.4576 13.3583 13.3917C13.3583 13.3917 13.3942 13.3683 13.4625 13.3167C13.575 13.2333 13.6442 13.1742 13.7375 13.0767C13.8067 13.005 13.8667 12.9208 13.9125 12.825C13.9775 12.6892 14.0425 12.43 14.0692 12.2142C14.0892 12.0492 14.0833 11.9592 14.0808 11.9033C14.0775 11.8142 14.0033 11.7217 13.9225 11.6825L13.4375 11.465C13.4375 11.465 12.7125 11.1492 12.2692 10.9475C12.2228 10.9272 12.1731 10.9157 12.1225 10.9133C12.0655 10.9075 12.0079 10.9139 11.9535 10.9321C11.8992 10.9504 11.8494 10.9801 11.8075 11.0192C11.8033 11.0175 11.7475 11.065 11.145 11.795C11.1104 11.8415 11.0628 11.8766 11.0082 11.8959C10.9536 11.9152 10.8944 11.9178 10.8383 11.9033C10.784 11.8888 10.7309 11.8704 10.6792 11.8483C10.5758 11.805 10.54 11.7883 10.4692 11.7583C9.99089 11.5496 9.54807 11.2676 9.15667 10.9225C9.05167 10.8308 8.95417 10.7308 8.85417 10.6342C8.52632 10.3202 8.2406 9.965 8.00417 9.5775L7.955 9.49833C7.91968 9.44513 7.89113 9.38775 7.87 9.3275C7.83833 9.205 7.92083 9.10666 7.92083 9.10666C7.92083 9.10666 8.12333 8.885 8.2175 8.765C8.30917 8.64833 8.38667 8.535 8.43667 8.45416C8.535 8.29583 8.56583 8.13333 8.51417 8.0075C8.28083 7.4375 8.03917 6.87 7.79083 6.30666C7.74167 6.195 7.59583 6.115 7.46333 6.09916C7.41833 6.09416 7.37333 6.08916 7.32833 6.08583C7.21642 6.08027 7.10428 6.08138 6.9925 6.08916L7.16 6.0825L7.16083 6.08333Z" fill="#141414"/>
</svg> 