<svg width="20" height="20" viewBox="0 0 20 20" fill="none" xmlns="http://www.w3.org/2000/svg">
<path fill-rule="evenodd" clip-rule="evenodd" d="M2.49281 16.0631C2.15578 15.9634 1.84827 15.786 1.59622 15.5459C1.34417 15.3059 1.15498 15.0101 1.04461 14.6836C0.413944 12.9963 0.227079 5.95058 1.4417 4.55967C1.84595 4.1072 2.41669 3.82863 3.03005 3.78441C6.2885 3.44239 16.3558 3.48799 17.5121 3.89842C17.8373 4.00141 18.1344 4.17491 18.3811 4.40592C18.6279 4.63693 18.8179 4.91945 18.9369 5.23232C19.626 6.97666 19.6493 13.3155 18.8435 14.9915C18.6297 15.4277 18.2718 15.7811 17.8274 15.9947C16.6128 16.5876 4.10452 16.5762 2.49281 16.0631ZM7.66663 12.7569L13.5061 9.79267L7.66663 6.80564V12.7569Z" fill="#141414"/>
</svg> 