<svg width="24" height="24" viewBox="0 0 24 24" fill="none" xmlns="http://www.w3.org/2000/svg">
<circle cx="12" cy="12" r="12" fill="#D9D9D9"/>
<path d="M13.0579 11.9999L16.2829 8.7824C16.4242 8.64117 16.5035 8.44962 16.5035 8.2499C16.5035 8.05017 16.4242 7.85862 16.2829 7.71739C16.1417 7.57617 15.9502 7.49683 15.7504 7.49683C15.5507 7.49683 15.3592 7.57617 15.2179 7.71739L12.0004 10.9424L8.78294 7.71739C8.64171 7.57617 8.45017 7.49683 8.25044 7.49683C8.05072 7.49683 7.85917 7.57617 7.71794 7.71739C7.57671 7.85862 7.49737 8.05017 7.49737 8.2499C7.49737 8.44962 7.57671 8.64117 7.71794 8.7824L10.9429 11.9999L7.71794 15.2174C7.64765 15.2871 7.59185 15.3701 7.55377 15.4615C7.5157 15.5529 7.49609 15.6509 7.49609 15.7499C7.49609 15.8489 7.5157 15.9469 7.55377 16.0383C7.59185 16.1297 7.64765 16.2127 7.71794 16.2824C7.78766 16.3527 7.87062 16.4085 7.96201 16.4466C8.0534 16.4846 8.15143 16.5042 8.25044 16.5042C8.34945 16.5042 8.44748 16.4846 8.53888 16.4466C8.63027 16.4085 8.71322 16.3527 8.78294 16.2824L12.0004 13.0574L15.2179 16.2824C15.2877 16.3527 15.3706 16.4085 15.462 16.4466C15.5534 16.4846 15.6514 16.5042 15.7504 16.5042C15.8495 16.5042 15.9475 16.4846 16.0389 16.4466C16.1303 16.4085 16.2132 16.3527 16.2829 16.2824C16.3532 16.2127 16.409 16.1297 16.4471 16.0383C16.4852 15.9469 16.5048 15.8489 16.5048 15.7499C16.5048 15.6509 16.4852 15.5529 16.4471 15.4615C16.409 15.3701 16.3532 15.2871 16.2829 15.2174L13.0579 11.9999Z" fill="white"/>
</svg>
