<svg width="32" height="32" viewBox="0 0 32 32" fill="none" xmlns="http://www.w3.org/2000/svg">
<path d="M12.6675 13.4685V14.432M19.1349 13.4685V14.432M14.2844 17.3955C14.9311 18.159 16.5803 19.2281 18.0031 17.3955M5.39171 25.0858C5.17613 24.4859 4.55095 22.7951 3.77486 20.8316C2.80475 18.3772 1.1879 16.5773 2.48138 13.6321C3.77486 10.6868 3.77485 7.74157 5.39171 6.43257C7.00856 5.12357 9.7572 4.95995 11.5357 3.65094C13.3143 2.34194 16.7097 1.36019 19.4583 2.50557C22.2069 3.65094 25.764 3.81456 26.5724 6.43257C27.3809 9.05058 28.6743 11.505 29.3211 13.1412C29.9678 14.7775 30.4529 17.2318 29.3211 19.0317C28.1893 20.8316 27.2192 23.4496 26.5724 25.0858C25.9257 26.7221 25.764 27.8675 23.5004 28.0311C21.2368 28.1947 21.0751 29.9946 18.4882 29.9946C15.9012 29.9946 12.8292 30.1582 10.5656 28.6856C8.30204 27.213 6.4342 27.8675 5.39171 25.0858ZM12.6675 22.3188C12.6675 23.5839 12.0113 24.6095 10.4039 24.6095C8.79661 24.6095 8.14035 23.5839 8.14035 22.3188C8.14035 21.0536 8.9583 20.3407 10.5656 20.3407C12.173 20.3407 12.6675 21.0536 12.6675 22.3188ZM12.6675 8.41588C12.6675 9.57972 12.105 10.5232 10.7273 10.5232C9.3496 10.5232 8.78709 9.57972 8.78709 8.41588C8.78709 7.25204 9.48819 6.5962 10.8659 6.5962C12.2436 6.5962 12.6675 7.25204 12.6675 8.41588ZM23.6621 22.6461C23.6621 23.9112 23.1675 24.595 21.5602 24.595C19.9529 24.595 19.4583 24.0603 19.4583 22.7951C19.4583 21.53 19.7817 21.4861 21.3985 20.668C22.8537 20.1771 23.6621 21.3809 23.6621 22.6461Z" stroke="#101820" stroke-linecap="round"/>
</svg>
