<svg width="25" height="24" viewBox="0 0 25 24" fill="none" xmlns="http://www.w3.org/2000/svg">
    <g clip-path="url(#clip0_3_5097)">
        <path fill-rule="evenodd" clip-rule="evenodd" d="M11.3899 18.6668H13.6121C14.2232 18.6668 14.7232 18.1668 14.7232 17.5557C14.7232 16.9446 14.2232 16.4446 13.6121 16.4446H11.3899C10.7788 16.4446 10.2788 16.9446 10.2788 17.5557C10.2788 18.1668 10.7788 18.6668 11.3899 18.6668ZM2.50098 6.44461C2.50098 7.05572 3.00098 7.55572 3.61209 7.55572H21.3899C22.001 7.55572 22.501 7.05572 22.501 6.44461C22.501 5.8335 22.001 5.3335 21.3899 5.3335H3.61209C3.00098 5.3335 2.50098 5.8335 2.50098 6.44461ZM6.94542 13.1113H18.0565C18.6676 13.1113 19.1676 12.6113 19.1676 12.0002C19.1676 11.3891 18.6676 10.8891 18.0565 10.8891H6.94542C6.33431 10.8891 5.83431 11.3891 5.83431 12.0002C5.83431 12.6113 6.33431 13.1113 6.94542 13.1113Z" fill="#101820"/>
    </g>
    <defs>
        <clipPath id="clip0_3_5097">
            <rect width="20" height="13.3333" fill="white" transform="translate(2.50098 5.3335)"/>
        </clipPath>
    </defs>
</svg>
