<svg width="239" height="24" viewBox="0 0 239 24" fill="none" xmlns="http://www.w3.org/2000/svg">
<path d="M186.017 22.9915C185.145 22.9915 184.411 22.6967 183.816 22.1071C183.22 21.5175 182.922 20.7805 182.922 19.8962C182.922 18.9906 183.22 18.2589 183.816 17.7009C184.411 17.1429 185.145 16.8639 186.017 16.8639C186.888 16.8639 187.622 17.1429 188.218 17.7009C188.813 18.2589 189.111 18.9906 189.111 19.8962C189.111 20.7805 188.813 21.5175 188.218 22.1071C187.622 22.6967 186.888 22.9915 186.017 22.9915Z" fill="white"/>
<path d="M238.753 0.629039L229.249 18.1273C228.334 19.8119 227.234 21.0858 225.947 21.9491C224.661 22.8125 223.263 23.2441 221.753 23.2441C220.584 23.2441 219.372 22.9915 218.117 22.4861L219.361 18.6011C220.254 18.8749 220.998 19.0117 221.594 19.0117C222.232 19.0117 222.806 18.8591 223.316 18.5537C223.826 18.2484 224.294 17.7693 224.72 17.1166L224.911 16.8639L216.108 0.629039H221.626L227.558 12.5051L233.682 0.629039H238.753Z" fill="white"/>
<path d="M204.299 0.629039C206.277 0.629039 207.994 0.955459 209.451 1.60821C210.907 2.26097 212.029 3.18745 212.815 4.38776C213.602 5.58799 213.995 7.00935 213.995 8.65176C213.995 10.2731 213.602 11.6892 212.815 12.9C212.029 14.1107 210.907 15.0373 209.451 15.6795C207.994 16.3217 206.277 16.6429 204.299 16.6429H199.802V22.7388H194.635V0.629039H204.299ZM204.012 12.4736C205.565 12.4736 206.745 12.142 207.553 11.4786C208.361 10.8153 208.765 9.87304 208.765 8.65176C208.765 7.40942 208.361 6.45659 207.553 5.79327C206.745 5.12994 205.565 4.79832 204.012 4.79832H199.802V12.4736H204.012Z" fill="white"/>
<path d="M160.971 7.89373C163.693 7.89373 165.782 8.49379 167.239 9.69402C168.695 10.8943 169.423 12.6736 169.423 15.032C169.423 17.5377 168.621 19.4487 167.015 20.7647C165.41 22.0807 163.151 22.7388 160.238 22.7388H150.159V0.629039H155.294V7.89373H160.971ZM159.951 18.9485C161.29 18.9485 162.337 18.6222 163.092 17.9694C163.847 17.3167 164.225 16.369 164.225 15.1267C164.225 12.8315 162.8 11.6839 159.951 11.6839H155.294V18.9485H159.951ZM172.262 0.629039H177.397V22.7388H172.262V0.629039Z" fill="white"/>
<path d="M110.243 0.629039C112.221 0.629039 113.938 0.955459 115.394 1.60821C116.851 2.26097 117.973 3.18745 118.759 4.38776C119.546 5.58799 119.939 7.00935 119.939 8.65176C119.939 10.2731 119.546 11.6892 118.759 12.9C117.973 14.1107 116.851 15.0373 115.394 15.6795C113.938 16.3217 112.221 16.6429 110.243 16.6429H105.746V22.7388H100.579V0.629039H110.243ZM109.956 12.4736C111.508 12.4736 112.689 12.142 113.497 11.4786C114.305 10.8153 114.709 9.87304 114.709 8.65176C114.709 7.40942 114.305 6.45659 113.497 5.79327C112.689 5.12994 111.508 4.79832 109.956 4.79832H105.746V12.4736H109.956Z" fill="white"/>
<path d="M96.4568 0.629039L86.9521 18.1273C86.0377 19.8119 84.9374 21.0858 83.6509 21.9491C82.3645 22.8125 80.9664 23.2441 79.4567 23.2441C78.2872 23.2441 77.0752 22.9915 75.8206 22.4861L77.0646 18.6011C77.9576 18.8749 78.7018 19.0117 79.2972 19.0117C79.9352 19.0117 80.5093 18.8591 81.0196 18.5537C81.5299 18.2484 81.9977 17.7693 82.423 17.1166L82.6143 16.8639L73.8113 0.629039H79.3291L85.2617 12.5051L91.3855 0.629039H96.4568Z" fill="white"/>
<path d="M60.153 13.8318H56.5807V22.7388H51.4456V0.629042H56.5807V9.56768H60.2806L66.1493 0.629042H71.6033L64.2993 11.3049L71.8266 22.7388H65.9579L60.153 13.8318Z" fill="white"/>
<path d="M135.894 23.1178C133.619 23.1178 131.562 22.6282 129.723 21.6491C127.883 20.6699 126.437 19.3117 125.385 17.5745C124.332 15.8374 123.806 13.8739 123.806 11.6839C123.806 9.494 124.332 7.53046 125.385 5.79325C126.437 4.05604 127.883 2.69793 129.723 1.71876C131.562 0.739587 133.63 0.25 135.926 0.25C137.861 0.25 139.61 0.586904 141.173 1.2608C142.736 1.93461 144.049 2.90322 145.112 4.16661L141.795 7.19884C140.285 5.47211 138.414 4.6088 136.181 4.6088C134.799 4.6088 133.566 4.90887 132.482 5.50903C131.397 6.1091 130.552 6.94608 129.946 8.02005C129.34 9.09393 129.037 10.3152 129.037 11.6839C129.037 13.0526 129.34 14.2739 129.946 15.3478C130.552 16.4217 131.397 17.2587 132.482 17.8588C133.566 18.459 134.799 18.759 136.181 18.759C138.414 18.759 140.285 17.8852 141.795 16.1374L145.112 19.1696C144.049 20.4541 142.731 21.4332 141.157 22.1071C139.584 22.7809 137.829 23.1178 135.894 23.1178Z" fill="white"/>
<path d="M7.51239 0.656146H3.01344C1.90092 0.656146 0.999023 1.54926 0.999023 2.65098V21.0049C0.999023 22.1066 1.90092 22.9997 3.01344 22.9997H7.51239C8.62491 22.9997 9.52679 22.1066 9.52679 21.0049V2.65098C9.52679 1.54926 8.62491 0.656146 7.51239 0.656146Z" fill="white"/>
<path d="M20.3501 0.656137H15.8512C14.7386 0.656137 13.8368 1.54926 13.8368 2.65097V21.0048C13.8368 22.1066 14.7386 22.9997 15.8512 22.9997H20.3501C21.4626 22.9997 22.3645 22.1066 22.3645 21.0048V2.65097C22.3645 1.54926 21.4626 0.656137 20.3501 0.656137Z" fill="white"/>
<path d="M31.4461 0.821773L27.579 3.09935C26.6227 3.66256 26.3085 4.88677 26.8772 5.83371L36.3515 21.609C36.9202 22.5559 38.1564 22.867 39.1127 22.3038L42.9798 20.0262C43.9361 19.463 44.2503 18.2388 43.6816 17.2919L34.2074 1.51657C33.6387 0.569635 32.4024 0.258564 31.4461 0.821773Z" fill="white"/>
</svg>
