<svg width="24" height="24" viewBox="0 0 24 24" fill="none" xmlns="http://www.w3.org/2000/svg">
<circle cx="12" cy="12" r="12" fill="#A9AAAA"/>
<path d="M13.0575 11.9999L16.2825 8.7824C16.4237 8.64117 16.503 8.44962 16.503 8.2499C16.503 8.05017 16.4237 7.85862 16.2825 7.71739C16.1412 7.57617 15.9497 7.49683 15.75 7.49683C15.5502 7.49683 15.3587 7.57617 15.2175 7.71739L12 10.9424L8.78245 7.71739C8.64123 7.57617 8.44968 7.49683 8.24995 7.49683C8.05023 7.49683 7.85868 7.57617 7.71745 7.71739C7.57623 7.85862 7.49689 8.05017 7.49689 8.2499C7.49689 8.44962 7.57623 8.64117 7.71745 8.7824L10.9425 11.9999L7.71745 15.2174C7.64716 15.2871 7.59136 15.3701 7.55329 15.4615C7.51521 15.5529 7.49561 15.6509 7.49561 15.7499C7.49561 15.8489 7.51521 15.9469 7.55329 16.0383C7.59136 16.1297 7.64716 16.2127 7.71745 16.2824C7.78718 16.3527 7.87013 16.4085 7.96152 16.4466C8.05292 16.4846 8.15095 16.5042 8.24995 16.5042C8.34896 16.5042 8.44699 16.4846 8.53839 16.4466C8.62978 16.4085 8.71273 16.3527 8.78245 16.2824L12 13.0574L15.2175 16.2824C15.2872 16.3527 15.3701 16.4085 15.4615 16.4466C15.5529 16.4846 15.6509 16.5042 15.75 16.5042C15.849 16.5042 15.947 16.4846 16.0384 16.4466C16.1298 16.4085 16.2127 16.3527 16.2825 16.2824C16.3527 16.2127 16.4085 16.1297 16.4466 16.0383C16.4847 15.9469 16.5043 15.8489 16.5043 15.7499C16.5043 15.6509 16.4847 15.5529 16.4466 15.4615C16.4085 15.3701 16.3527 15.2871 16.2825 15.2174L13.0575 11.9999Z" fill="white"/>
</svg>
