<svg width="126" height="26" viewBox="0 0 126 26" fill="none" xmlns="http://www.w3.org/2000/svg">
<path d="M4.09051 4.94019H1.40217C0.907015 4.94019 0.505615 5.34159 0.505615 5.83674V20.1816C0.505615 20.6767 0.907015 21.0781 1.40217 21.0781H4.09051C4.58566 21.0781 4.98706 20.6767 4.98706 20.1816V5.83674C4.98706 5.34159 4.58566 4.94019 4.09051 4.94019Z" fill="white"/>
<path d="M10.0065 4.94019H7.31818C6.82303 4.94019 6.42163 5.34159 6.42163 5.83674V20.1816C6.42163 20.6767 6.82303 21.0781 7.31818 21.0781H10.0065C10.5017 21.0781 10.9031 20.6767 10.9031 20.1816V5.83674C10.9031 5.34159 10.5017 4.94019 10.0065 4.94019Z" fill="white"/>
<path d="M15.452 4.94967L12.9257 5.86914C12.4604 6.03849 12.2181 6.55384 12.3845 7.02019L17.205 20.5308C17.3714 20.9972 17.8835 21.2379 18.3488 21.0686L20.875 20.1491C21.3403 19.9798 21.5826 19.4644 21.4162 18.9981L16.5957 5.48745C16.4293 5.02109 15.9172 4.78032 15.452 4.94967Z" fill="white"/>
<path d="M40.6784 20.8129L35.5573 13.8844H33.6208V20.8129H30.9096V5.21289H33.6208V11.6036H35.6004L40.4848 5.21289H43.6908L37.8166 12.6364L43.9275 20.8129H40.6784Z" fill="white"/>
<path d="M45.8599 24.5786H44.6979V22.6205H45.6662C46.7851 22.6205 47.2585 22.5345 47.7749 21.0283L47.904 20.7485L43.7081 9.23682H46.5054L49.1305 17.5425L51.7556 9.23682H54.3807L50.3139 20.7916C49.2165 23.7825 48.4634 24.5786 45.8599 24.5786Z" fill="white"/>
<path d="M58.3798 15.0249C58.3798 17.693 59.6924 19.0056 61.3707 19.0056C63.1782 19.0056 64.2325 17.4993 64.2325 15.0249C64.2325 12.5934 63.1782 11.0657 61.3707 11.0657C59.6924 11.0657 58.3798 12.3567 58.3798 15.0249ZM55.9269 9.23672H58.4874V10.786C59.176 9.64555 60.3809 8.97852 61.9302 8.97852C64.7705 8.97852 66.9007 11.3239 66.9007 15.0249C66.9007 18.7473 64.7705 21.0927 61.9302 21.0927C60.3809 21.0927 59.176 20.4257 58.4874 19.2853V24.5785H55.9269V9.23672Z" fill="white"/>
<path d="M74.0075 8.97852C76.5465 8.97852 78.7413 10.6353 79.1931 13.1959H76.6971C76.4604 11.9694 75.4061 11.1087 74.0075 11.1087C72.3937 11.1087 70.9735 12.2922 70.9735 15.0249C70.9735 17.7791 72.4367 18.9625 73.9429 18.9625C75.2124 18.9625 76.4389 18.4031 76.7832 16.8538H79.2792C78.7628 19.565 76.3744 21.0927 73.8999 21.0927C70.5432 21.0927 68.3269 18.4891 68.3269 15.0464C68.3269 11.6036 70.5432 8.97852 74.0075 8.97852Z" fill="white"/>
<path d="M85.7871 20.8131H81.376V9.23682H83.9366V13.1314H85.7225C88.9071 13.1314 90.263 14.3364 90.263 16.897C90.263 19.8233 88.6273 20.8131 85.7871 20.8131ZM83.9366 15.1541V18.7905H85.4213C86.9705 18.7905 87.7021 18.3386 87.7021 16.8754C87.7021 15.5629 86.949 15.1541 85.3998 15.1541H83.9366ZM94.4804 20.8131H91.9198V9.23682H94.4804V20.8131Z" fill="white"/>
<path d="M105.092 15.0249C105.092 17.693 106.405 19.0056 108.083 19.0056C109.89 19.0056 110.945 17.4993 110.945 15.0249C110.945 12.5934 109.89 11.0657 108.083 11.0657C106.405 11.0657 105.092 12.3567 105.092 15.0249ZM102.639 9.23672H105.2V10.786C105.888 9.64555 107.093 8.97852 108.642 8.97852C111.483 8.97852 113.613 11.3239 113.613 15.0249C113.613 18.7473 111.483 21.0927 108.642 21.0927C107.093 21.0927 105.888 20.4257 105.2 19.2853V24.5785H102.639V9.23672Z" fill="white"/>
<path d="M116.316 24.5786H115.154V22.6205H116.122C117.241 22.6205 117.715 22.5345 118.231 21.0283L118.36 20.7485L114.164 9.23682H116.961L119.587 17.5425L122.212 9.23682H124.837L120.77 20.7916C119.673 23.7825 118.919 24.5786 116.316 24.5786Z" fill="white"/>
<path d="M99.4742 17.8547H97.7708C97.4242 17.8547 97.1432 18.1357 97.1432 18.4823V20.1858C97.1432 20.5324 97.4242 20.8134 97.7708 20.8134H99.4742C99.8208 20.8134 100.102 20.5324 100.102 20.1858V18.4823C100.102 18.1357 99.8208 17.8547 99.4742 17.8547Z" fill="white"/>
</svg> 