<svg width="126" height="26" viewBox="0 0 126 26" fill="none" xmlns="http://www.w3.org/2000/svg">
  <path d="M4.09051 4.94006H1.40217C0.907015 4.94006 0.505615 5.34146 0.505615 5.83662V20.1814C0.505615 20.6766 0.907015 21.078 1.40217 21.078H4.09051C4.58566 21.078 4.98706 20.6766 4.98706 20.1814V5.83662C4.98706 5.34146 4.58566 4.94006 4.09051 4.94006Z" fill="#141414"/>
  <path d="M10.0065 4.94006H7.31818C6.82303 4.94006 6.42163 5.34146 6.42163 5.83662V20.1814C6.42163 20.6766 6.82303 21.078 7.31818 21.078H10.0065C10.5017 21.078 10.9031 20.6766 10.9031 20.1814V5.83662C10.9031 5.34146 10.5017 4.94006 10.0065 4.94006Z" fill="#141414"/>
  <path d="M15.452 4.94967L12.9257 5.86914C12.4604 6.03849 12.2181 6.55384 12.3845 7.02019L17.205 20.5308C17.3714 20.9972 17.8835 21.2379 18.3488 21.0686L20.875 20.1491C21.3403 19.9798 21.5826 19.4644 21.4162 18.9981L16.5957 5.48745C16.4293 5.02109 15.9172 4.78032 15.452 4.94967Z" fill="#141414"/>
  <path d="M40.6785 20.8131L35.5574 13.8845H33.6208V20.8131H30.9097V5.21301H33.6208V11.6037H35.6004L40.4848 5.21301H43.6909L37.8167 12.6365L43.9276 20.8131H40.6785Z" fill="#141414"/>
  <path d="M45.8599 24.5785H44.6979V22.6204H45.6662C46.7851 22.6204 47.2585 22.5343 47.7749 21.0281L47.904 20.7484L43.7081 9.23669H46.5054L49.1305 17.5423L51.7556 9.23669H54.3807L50.3139 20.7915C49.2165 23.7823 48.4634 24.5785 45.8599 24.5785Z" fill="#141414"/>
  <path d="M58.3798 15.0249C58.3798 17.693 59.6924 19.0056 61.3707 19.0056C63.1782 19.0056 64.2325 17.4993 64.2325 15.0249C64.2325 12.5934 63.1782 11.0657 61.3707 11.0657C59.6924 11.0657 58.3798 12.3567 58.3798 15.0249ZM55.9269 9.23672H58.4874V10.786C59.176 9.64555 60.3809 8.97852 61.9302 8.97852C64.7705 8.97852 66.9007 11.3239 66.9007 15.0249C66.9007 18.7473 64.7705 21.0927 61.9302 21.0927C60.3809 21.0927 59.176 20.4257 58.4874 19.2853V24.5785H55.9269V9.23672Z" fill="#141414"/>
  <path d="M74.0075 8.97852C76.5465 8.97852 78.7413 10.6353 79.1931 13.1959H76.6971C76.4604 11.9694 75.4061 11.1087 74.0075 11.1087C72.3937 11.1087 70.9735 12.2922 70.9735 15.0249C70.9735 17.7791 72.4367 18.9625 73.9429 18.9625C75.2124 18.9625 76.4389 18.4031 76.7832 16.8538H79.2792C78.7628 19.565 76.3744 21.0927 73.8999 21.0927C70.5432 21.0927 68.3269 18.4891 68.3269 15.0464C68.3269 11.6036 70.5432 8.97852 74.0075 8.97852Z" fill="#141414"/>
  <path d="M85.7871 20.813H81.3761V9.23669H83.9366V13.1313H85.7226C88.9071 13.1313 90.2631 14.3363 90.2631 16.8968C90.2631 19.8232 88.6274 20.813 85.7871 20.813ZM83.9366 15.1539V18.7903H85.4213C86.9706 18.7903 87.7022 18.3385 87.7022 16.8753C87.7022 15.5628 86.9491 15.1539 85.3998 15.1539H83.9366ZM94.4805 20.813H91.9199V9.23669H94.4805V20.813Z" fill="#141414"/>
  <path d="M105.092 15.0249C105.092 17.693 106.405 19.0056 108.083 19.0056C109.89 19.0056 110.945 17.4993 110.945 15.0249C110.945 12.5934 109.89 11.0657 108.083 11.0657C106.405 11.0657 105.092 12.3567 105.092 15.0249ZM102.639 9.23672H105.2V10.786C105.888 9.64555 107.093 8.97852 108.642 8.97852C111.483 8.97852 113.613 11.3239 113.613 15.0249C113.613 18.7473 111.483 21.0927 108.642 21.0927C107.093 21.0927 105.888 20.4257 105.2 19.2853V24.5785H102.639V9.23672Z" fill="#141414"/>
  <path d="M116.316 24.5785H115.154V22.6204H116.122C117.241 22.6204 117.715 22.5343 118.231 21.0281L118.36 20.7484L114.164 9.23669H116.961L119.587 17.5423L122.212 9.23669H124.837L120.77 20.7915C119.673 23.7823 118.919 24.5785 116.316 24.5785Z" fill="#141414"/>
  <path d="M99.4742 17.8546H97.7708C97.4242 17.8546 97.1432 18.1356 97.1432 18.4822V20.1856C97.1432 20.5323 97.4242 20.8132 97.7708 20.8132H99.4742C99.8208 20.8132 100.102 20.5323 100.102 20.1856V18.4822C100.102 18.1356 99.8208 17.8546 99.4742 17.8546Z" fill="#141414"/>
</svg>