<svg width="48" height="48" viewBox="0 0 48 48" fill="none" xmlns="http://www.w3.org/2000/svg">
    <path d="M13.7268 34.8236L35.25 25.5976C35.4725 25.5028 35.6622 25.3447 35.7955 25.143C35.9289 24.9412 36 24.7047 36 24.4629C36 24.221 35.9289 23.9845 35.7955 23.7828C35.6622 23.581 35.4725 23.4229 35.25 23.3281L13.7268 14.1021C13.5404 14.0209 13.3367 13.9872 13.1341 14.0043C12.9315 14.0214 12.7364 14.0887 12.5663 14.2001C12.3961 14.3114 12.2564 14.4634 12.1597 14.6423C12.063 14.8211 12.0124 15.0212 12.0123 15.2246L12 20.9106C12 21.5273 12.4564 22.0577 13.0731 22.1317L30.5013 24.4629L13.0731 26.7817C12.4564 26.868 12 27.3984 12 28.0151L12.0123 33.7012C12.0123 34.5769 12.9127 35.1813 13.7268 34.8236Z" fill="white"/>
</svg>
