<svg width="56" height="56" viewBox="0 0 56 56" fill="none" xmlns="http://www.w3.org/2000/svg">
<path d="M30.9934 43.9044C14.1862 43.9044 4.59963 32.1536 4.2002 12.6001H12.6192C12.8957 26.9518 19.1024 33.031 24.0185 34.2844V12.6001H31.9459V24.9777C36.8006 24.445 41.9012 18.8046 43.6218 12.6001H51.5492C50.9008 15.8179 49.6083 18.8647 47.7526 21.5498C45.8969 24.2349 43.5178 26.5006 40.7643 28.2053C43.8379 29.7628 46.5527 31.9674 48.7295 34.6736C50.9063 37.3797 52.4957 40.5259 53.3927 43.9044H44.6665C43.8613 40.9699 42.2247 38.343 39.9618 36.353C37.6989 34.363 34.9105 33.0983 31.9459 32.7176V43.9044H30.9934V43.9044Z" fill="#101820"/>
</svg>
