<svg width="24" height="24" viewBox="0 0 24 24" fill="none" xmlns="http://www.w3.org/2000/svg">
<path d="M19.4995 1.99988H4.49951C3.83647 1.99988 3.20059 2.26327 2.73174 2.73211C2.2629 3.20095 1.99951 3.83684 1.99951 4.49988L1.99951 21.1655C1.99952 21.3251 2.04511 21.4813 2.13092 21.6159C2.21674 21.7504 2.3392 21.8576 2.48389 21.9249C2.594 21.9742 2.71325 21.9997 2.83389 21.9999C3.03213 21.9996 3.22379 21.9287 3.37451 21.7999L8.27139 17.603C8.72461 17.2139 9.30218 17 9.89951 16.9999H19.4995C20.1626 16.9999 20.7984 16.7365 21.2673 16.2676C21.7361 15.7988 21.9995 15.1629 21.9995 14.4999V4.49988C21.9995 3.83684 21.7361 3.20095 21.2673 2.73211C20.7984 2.26327 20.1626 1.99988 19.4995 1.99988V1.99988ZM20.3339 14.4999C20.3331 14.7209 20.2449 14.9327 20.0886 15.089C19.9323 15.2453 19.7205 15.3334 19.4995 15.3343H9.89951C8.90471 15.3348 7.94279 15.6905 7.18701 16.3374L3.66514 19.3561V4.49988C3.66596 4.27884 3.75413 4.06709 3.91043 3.9108C4.06673 3.7545 4.27847 3.66633 4.49951 3.6655H19.4995C19.7205 3.66633 19.9323 3.7545 20.0886 3.9108C20.2449 4.06709 20.3331 4.27884 20.3339 4.49988V14.4999Z" fill="#A9AAAA"/>
<path d="M16.1649 6.90305H7.83366C7.72 6.89609 7.60612 6.91246 7.49903 6.95116C7.39194 6.98986 7.2939 7.05008 7.21095 7.12809C7.12801 7.20611 7.06191 7.30028 7.01673 7.40481C6.97155 7.50933 6.94824 7.62199 6.94824 7.73586C6.94824 7.84973 6.97155 7.9624 7.01673 8.06692C7.06191 8.17145 7.12801 8.26562 7.21095 8.34363C7.2939 8.42165 7.39194 8.48186 7.49903 8.52057C7.60612 8.55927 7.72 8.57564 7.83366 8.56868H16.1649C16.2786 8.57564 16.3924 8.55927 16.4995 8.52057C16.6066 8.48186 16.7047 8.42165 16.7876 8.34363C16.8706 8.26562 16.9366 8.17145 16.9818 8.06692C17.027 7.9624 17.0503 7.84973 17.0503 7.73586C17.0503 7.62199 17.027 7.50933 16.9818 7.40481C16.9366 7.30028 16.8706 7.20611 16.7876 7.12809C16.7047 7.05008 16.6066 6.98986 16.4995 6.95116C16.3924 6.91246 16.2786 6.89609 16.1649 6.90305Z" fill="#A9AAAA"/>
<path d="M16.1649 10.2374H7.83366C7.72 10.2304 7.60612 10.2468 7.49903 10.2855C7.39194 10.3242 7.2939 10.3844 7.21095 10.4624C7.12801 10.5405 7.06191 10.6346 7.01673 10.7392C6.97155 10.8437 6.94824 10.9563 6.94824 11.0702C6.94824 11.1841 6.97155 11.2968 7.01673 11.4013C7.06191 11.5058 7.12801 11.6 7.21095 11.678C7.2939 11.756 7.39194 11.8162 7.49903 11.8549C7.60612 11.8936 7.72 11.91 7.83366 11.903H16.1649C16.2786 11.91 16.3924 11.8936 16.4995 11.8549C16.6066 11.8162 16.7047 11.756 16.7876 11.678C16.8706 11.6 16.9366 11.5058 16.9818 11.4013C17.027 11.2968 17.0503 11.1841 17.0503 11.0702C17.0503 10.9563 17.027 10.8437 16.9818 10.7392C16.9366 10.6346 16.8706 10.5405 16.7876 10.4624C16.7047 10.3844 16.6066 10.3242 16.4995 10.2855C16.3924 10.2468 16.2786 10.2304 16.1649 10.2374Z" fill="#A9AAAA"/>
</svg>
