<?xml version="1.0" encoding="utf-8"?>
<!-- Generator: Adobe Illustrator 26.3.1, SVG Export Plug-In . SVG Version: 6.00 Build 0)  -->
<svg version="1.1" id="Слой_1" xmlns="http://www.w3.org/2000/svg" xmlns:xlink="http://www.w3.org/1999/xlink" x="0px" y="0px"
	 viewBox="0 0 18 18" style="enable-background:new 0 0 18 18;" xml:space="preserve">
<style type="text/css">
	.st0{fill:none;stroke:#A9AAAA;stroke-width:0.75;stroke-miterlimit:10;}
	.st1{fill:#A9AAAA;}
	.st2{fill:none;stroke:#A9AAAA;stroke-miterlimit:10;}
	.st3{fill:none;stroke:#A9AAAA;stroke-width:0.75;stroke-linecap:round;stroke-miterlimit:10;}
	.st4{fill:none;stroke:#0A9AAA;stroke-width:0.75;stroke-linecap:round;stroke-miterlimit:10;}
</style>
<path class="st0" d="M3.34,12.56l-2.78,3.4c0,0-0.19,0.25,0,0.38c0.33,0.22,0.6-2.31,5.86,0.27c6.46,3.17,7.74-2.48,7.74-2.48
	l-7.29-1.75c0,0-1.95-0.69-3-0.24C3.53,12.29,3.34,12.56,3.34,12.56z"/>
<path class="st0" d="M3.13,12.1c0,0,0.15-5.3,2.43-7.05s7.26-0.58,7.26-0.58s3.41,0.77,4.33,3.41s0,6.16,0,6.16s-0.63,0.5-2.76,0
	c-1.54-0.36-5.87-1.37-8.14-1.89c-0.86-0.2-1.43-0.33-1.43-0.33S3.85,11.61,3.13,12.1z"/>
<circle class="st0" cx="11.74" cy="2.79" r="0.74"/>
<circle class="st1" cx="12.08" cy="1.52" r="0.66"/>
<circle class="st1" cx="12.3" cy="0.54" r="0.51"/>
<path class="st0" d="M12.84,2.87l2.95-0.65c0.68-0.15,1.32,0.41,1.25,1.1l-0.01,0.15c-0.07,0.7-0.79,1.13-1.43,0.85l-2.78-1.19
	C12.69,3.08,12.71,2.9,12.84,2.87z"/>
<path class="st0" d="M10.75,2.83L7.73,2.94C7.03,2.96,6.51,2.3,6.7,1.62l0.04-0.15C6.93,0.8,7.72,0.51,8.31,0.9l2.51,1.68
	C10.93,2.65,10.88,2.83,10.75,2.83z"/>
<path class="st0" d="M9.72,4.09c0,0-1.02,0.23-1.68,1.95c-1.18,3.08-1.68,5.85-1.68,5.85"/>
<path class="st0" d="M13.24,4.59c0,0,1.17,0.48,1.24,2.26c0.05,1.35-0.11,3.8-0.82,6.63"/>
</svg>
