<?xml version="1.0" encoding="utf-8"?>
<!-- Generator: Adobe Illustrator 26.3.1, SVG Export Plug-In . SVG Version: 6.00 Build 0)  -->
<svg version="1.1" id="Слой_1" xmlns="http://www.w3.org/2000/svg" xmlns:xlink="http://www.w3.org/1999/xlink" x="0px" y="0px"
	 viewBox="0 0 18 18" style="enable-background:new 0 0 18 18;" xml:space="preserve">
<style type="text/css">
	.st0{fill:none;stroke:#A9AAAA;stroke-width:0.75;stroke-miterlimit:10;}
	.st1{fill:#A9AAAA;}
	.st2{fill:none;stroke:#A9AAAA;stroke-miterlimit:10;}
	.st3{fill:none;stroke:#A9AAAA;stroke-width:0.75;stroke-linecap:round;stroke-miterlimit:10;}
	.st4{fill:none;stroke:#0A9AAA;stroke-width:0.75;stroke-linecap:round;stroke-miterlimit:10;}
</style>
<g>
	<path class="st0" d="M7.59,0.51h2.84c0.79,0,1.06,0.7,0.89,1.54L10.6,4.51c-0.4,0.69-2.81,0.69-3.21,0L6.7,2.05
		C6.48,1.17,6.79,0.51,7.59,0.51z"/>
	<path class="st0" d="M9.4,17.23l2.81-2.08c0.13-0.1,0.2-0.26,0.17-0.43l-1.38-8.77c-0.72,0.2-1.28,0.33-1.93,0.33
		c-0.55,0-1.05-0.03-1.65-0.21C7.29,6.04,7.37,6.07,6.99,5.95l-1.38,8.77c-0.03,0.16,0.04,0.33,0.18,0.43l2.84,2.08
		C8.86,17.4,9.17,17.4,9.4,17.23z"/>
</g>
<line class="st0" x1="6.49" y1="8.58" x2="9.82" y2="6.23"/>
<line class="st0" x1="6.15" y1="10.87" x2="11.16" y2="7.23"/>
<line class="st0" x1="5.85" y1="13.14" x2="11.55" y2="9.12"/>
<line class="st0" x1="5.85" y1="15.2" x2="11.85" y2="10.96"/>
<line class="st0" x1="7.16" y1="16.39" x2="12.08" y2="12.81"/>
</svg>
