<svg id="Слой_1" data-name="Слой 1" xmlns="http://www.w3.org/2000/svg" viewBox="0 0 18 18"><defs><style>.cls-1{fill:none;stroke:#a9aaaa;stroke-linecap:round;stroke-miterlimit:10;}.cls-2{fill:#a9aaaa;}</style></defs><polygon class="cls-1" points="13.78 6.79 11.77 7.5 11.83 5.37 10.53 3.69 12.58 3.08 13.78 1.33 14.98 3.08 17.03 3.69 15.73 5.37 15.79 7.5 13.78 6.79"/><path class="cls-2" d="M.57,16.11a41.35,41.35,0,0,0,8.1-.24c1.31-.26,2.59-.64,3.88-1a38.58,38.58,0,0,0,4-1.15c.54-.2,1.3-.43,1.32-1.13s-.68-1-1.26-1.09a9.75,9.75,0,0,0-3,.52,12,12,0,0,1-4.88-.16l.13.47a7.4,7.4,0,0,0,1.37-1.86,3.38,3.38,0,0,0,.61-1.91C10.69,7.21,9.17,7.23,8.35,8s-1,1.63-1.83,2.19A12.84,12.84,0,0,1,4,11a2.72,2.72,0,0,0-1.54,3.21A.29.29,0,0,0,3,14.1c-.38-1.45.62-2.43,2-2.75a4.5,4.5,0,0,0,2.49-1.21A9.53,9.53,0,0,0,8.32,9a2.45,2.45,0,0,1,.76-.84.79.79,0,0,1,1.19.89A6.22,6.22,0,0,1,8.47,12a.29.29,0,0,0,.13.48,13.22,13.22,0,0,0,6.16-.06,6.06,6.06,0,0,1,1.57-.3c.51,0,1.32.39.6.9a5.43,5.43,0,0,1-1.41.52c-.54.17-1.07.32-1.61.46A41.85,41.85,0,0,1,7.4,15.48a64.82,64.82,0,0,1-6.83.06.29.29,0,0,0,0,.57Z"/><path class="cls-2" d="M8.35,12a7.2,7.2,0,0,1-1.83,1.24.28.28,0,1,0,.29.49,7.6,7.6,0,0,0,1.94-1.33.28.28,0,1,0-.4-.4Z"/><path class="cls-2" d="M3.26,11.51a5.16,5.16,0,0,1-2.78.15.29.29,0,0,0-.36.27c.09,1.3.11,2.6.16,3.9,0,.37.59.37.57,0,0-1.3-.07-2.6-.16-3.9l-.36.28a5.8,5.8,0,0,0,3.09-.15.29.29,0,0,0-.16-.55Z"/><path class="cls-2" d="M17.22,11.84a1.78,1.78,0,0,0,.52-1.14.94.94,0,0,0-.42-.71c-.84-.59-1.65.44-2.23.93a12.35,12.35,0,0,1-1.45,1c-.31.19,0,.69.28.49a14.41,14.41,0,0,0,1.44-1L16,10.9a2,2,0,0,1,.6-.47.41.41,0,0,1,.39,0l.05,0s0,0,0,0l0,0,.06.07s0,0,0,0,0,0,0,0,0,.12,0,.06a.31.31,0,0,1,0,.17,1.36,1.36,0,0,1-.33.57.3.3,0,0,0,0,.41.28.28,0,0,0,.4,0Z"/><path class="cls-2" d="M15.84,11a.87.87,0,0,0-.31-1.19,1,1,0,0,0-1.34.1c-.45.37-.87.78-1.32,1.15s-.93.75-1.42,1.1c-.29.22,0,.71.29.49.76-.55,1.49-1.13,2.19-1.75.17-.14.34-.29.5-.45s.32-.3.52-.29a.56.56,0,0,1,.35.19.27.27,0,0,1,0,.36.28.28,0,0,0,.49.29Z"/><path class="cls-2" d="M10.62,12.39a3.46,3.46,0,0,1,.92-1.33,1.41,1.41,0,0,1,.39-.19l.08,0s.07,0,0,0h.23s0,0,0,0l.08,0h0l0,0,.09,0s0,0,0,0l.07.07a1.88,1.88,0,0,1,.14.24.29.29,0,0,0,.39.11.3.3,0,0,0,.1-.39,1.17,1.17,0,0,0-.85-.72,1.43,1.43,0,0,0-1,.19,2.23,2.23,0,0,0-.89.91c-.13.23-.26.47-.38.71s.31.61.49.29Z"/></svg>