<svg id="Слой_1" data-name="Слой 1" xmlns="http://www.w3.org/2000/svg" viewBox="0 0 18 18"><defs><style>.cls-1{fill:#a9aaaa;}.cls-2,.cls-3{fill:none;stroke:#a9aaaa;stroke-miterlimit:10;}.cls-3{stroke-width:0.25px;}</style></defs><path class="cls-1" d="M7.67,1.85C11.9,8.77,9.66,18,9.66,18h-4a15.74,15.74,0,0,0,2.65-5.11A16.75,16.75,0,0,0,7.67,1.85Z"/><path class="cls-2" d="M14.73,5.1A5.36,5.36,0,0,0,16.15.62a5.3,5.3,0,0,0-5.84,6.07A5.3,5.3,0,0,0,14.73,5.1Z"/><path class="cls-3" d="M10.66,6.32A16.08,16.08,0,0,1,15.84,1"/><path class="cls-2" d="M4.52,9.17a4.22,4.22,0,0,0,3.7-.6,4.23,4.23,0,0,0-6.42-2A4.22,4.22,0,0,0,4.52,9.17Z"/><path class="cls-3" d="M2.31,6.72A12.2,12.2,0,0,1,7.73,8.43"/></svg>