<svg id="Слой_1" data-name="Слой 1" xmlns="http://www.w3.org/2000/svg" viewBox="0 0 18 18"><defs><style>.cls-1{fill:#a9aaaa;}.cls-2{fill:none;stroke:#a9aaaa;stroke-miterlimit:10;stroke-width:2px;}</style></defs><path class="cls-1" d="M1.3,9.72A9.9,9.9,0,0,1,8.75,6a10.61,10.61,0,0,1,7.94,3.24c.67.69,1.73-.37,1.06-1.07a12.14,12.14,0,0,0-9-3.67A11.37,11.37,0,0,0,.23,8.66c-.62.73.44,1.8,1.07,1.06Z"/><path class="cls-1" d="M16.7,8.28A9.9,9.9,0,0,1,9.25,12,10.61,10.61,0,0,1,1.31,8.75C.64,8.06-.42,9.12.25,9.82a12.14,12.14,0,0,0,9,3.67,11.33,11.33,0,0,0,8.51-4.15c.63-.73-.43-1.8-1.06-1.06Z"/><circle class="cls-2" cx="9.01" cy="9.01" r="3.19"/><path class="cls-1" d="M10.24,9.05l.8-.63a.63.63,0,0,0,.16-.24.73.73,0,0,0,0-.58A.63.63,0,0,0,11,7.36a.75.75,0,0,0-.53-.22l-.2,0a.69.69,0,0,0-.33.19L9.18,8A.61.61,0,0,0,9,8.23a.64.64,0,0,0,0,.58.61.61,0,0,0,.15.24.75.75,0,0,0,.53.22l.2,0a.61.61,0,0,0,.33-.19Z"/><path class="cls-1" d="M8.22,3c0,.56.07,1.13.09,1.69a.77.77,0,0,0,.22.53.75.75,0,0,0,.53.22.77.77,0,0,0,.75-.75c0-.56-.05-1.13-.09-1.69A.87.87,0,0,0,9.5,2.5.81.81,0,0,0,9,2.28a.77.77,0,0,0-.53.22A.73.73,0,0,0,8.22,3Z"/><path class="cls-1" d="M2.05,5.1A13.08,13.08,0,0,0,2.8,6.28.55.55,0,0,0,3,6.49a.66.66,0,0,0,.26.14.83.83,0,0,0,.58-.08.74.74,0,0,0,.34-.45.78.78,0,0,0-.07-.58,9.78,9.78,0,0,1-.75-1.18A.79.79,0,0,0,2.9,4a.83.83,0,0,0-.58.08A.74.74,0,0,0,2,4.52a.79.79,0,0,0,.07.58Z"/><path class="cls-1" d="M15.31,4.55l-.82,1.27a.74.74,0,0,0-.08.58.81.81,0,0,0,.34.45.79.79,0,0,0,.58.07.81.81,0,0,0,.45-.34l.83-1.27a.78.78,0,0,0,.07-.58.81.81,0,0,0-.34-.45.74.74,0,0,0-.58-.07.81.81,0,0,0-.45.34Z"/><path class="cls-1" d="M9.88,15c0-.56-.07-1.12-.08-1.68a.82.82,0,0,0-.22-.54.76.76,0,0,0-.53-.21.74.74,0,0,0-.75.75c0,.56,0,1.12.08,1.68a.87.87,0,0,0,.22.53.77.77,0,0,0,.53.22.73.73,0,0,0,.53-.22A.71.71,0,0,0,9.88,15Z"/><path class="cls-1" d="M16.05,12.9a13.24,13.24,0,0,0-.75-1.19.55.55,0,0,0-.19-.21.64.64,0,0,0-.26-.13.78.78,0,0,0-.58.07.76.76,0,0,0-.34.45.77.77,0,0,0,.07.58,9.78,9.78,0,0,1,.75,1.18.75.75,0,0,0,.45.35.74.74,0,0,0,.58-.08.71.71,0,0,0,.34-.45.75.75,0,0,0-.07-.57Z"/><path class="cls-1" d="M2.79,13.44l.83-1.27a.75.75,0,0,0,.07-.57.74.74,0,0,0-.34-.45.79.79,0,0,0-.58-.08.82.82,0,0,0-.45.35l-.83,1.27a.76.76,0,0,0,.27,1,.79.79,0,0,0,.58.08.82.82,0,0,0,.45-.35Z"/></svg>