<svg id="Слой_1" data-name="Слой 1" xmlns="http://www.w3.org/2000/svg" viewBox="0 0 18 18"><defs><style>.cls-1{fill:none;stroke:#a9aaaa;stroke-linecap:round;stroke-miterlimit:10;stroke-width:0.5px;fill-rule:evenodd;}</style></defs><path class="cls-1" d="M15.14,10a1.07,1.07,0,0,0,.8-.59,2.09,2.09,0,0,1,.51-.73c.33-.25.84-.15,1.11-.48a1.09,1.09,0,0,0,.12-.87,7.15,7.15,0,0,0-1.05-2.7A1.5,1.5,0,0,0,16,4a1.51,1.51,0,0,0-1.27.26,3,3,0,0,1-1.21.55,2.44,2.44,0,0,1-1.14-.31A22.78,22.78,0,0,0,7.92,3.08,1.75,1.75,0,0,0,7,3a1.87,1.87,0,0,0-.65.44c-.32.31-.64.72-.93,1.06s-1.2,1-1,1.56c.26.9,1.42.75,2,.48a3,3,0,0,0,1.19-1A1.74,1.74,0,0,1,8,5.13a1.19,1.19,0,0,1,1,0,8.09,8.09,0,0,1,1.84,1.12l2.61,1.93c.72.53,1.67,1.15,1.73,2a.86.86,0,0,1-.39.89,2.32,2.32,0,0,1-.49.21.73.73,0,0,1,0,.49,1,1,0,0,1-1.41.46.82.82,0,0,1-.67,1.12,3.77,3.77,0,0,1-.72,0c.09.27.24.57-.18.86A.64.64,0,0,1,10.5,14c-.06-.07-.06.16-.07.25-.06.46-.31,1.15-1,1.13a.8.8,0,0,1-.77-.91.89.89,0,0,1-1.25.6,1.12,1.12,0,0,1-.58-.81c0-.31.2-.64.28-.93a3.05,3.05,0,0,1-.78.61.88.88,0,0,1-.84-.22c-.35-.3-.29-.6-.22-1.34A.87.87,0,0,1,4,12.6a1.84,1.84,0,0,1-.26-1.49.74.74,0,0,0,0-.29.7.7,0,0,0-.14-.27,8.58,8.58,0,0,1-.52-.71A3.35,3.35,0,0,0,1.18,8.09C.89,8,.47,7.93.35,7.66A1,1,0,0,1,.29,7.2,12.44,12.44,0,0,1,.81,5a2.94,2.94,0,0,1,.43-1,1.2,1.2,0,0,1,.94-.52A2.51,2.51,0,0,1,3,3.68a4.19,4.19,0,0,0,3.38-.2"/><path class="cls-1" d="M7.06,13.47a3.09,3.09,0,0,1,.44-.63,1.1,1.1,0,0,1,.66-.35.69.69,0,0,1,.65.31,1.06,1.06,0,0,1,.08.47,3.67,3.67,0,0,1-.21,1.18"/><path class="cls-1" d="M8.89,13.47c0-.24.35-.38.6-.39a.93.93,0,0,1,.68.25,1.1,1.1,0,0,1,.21.36,1.51,1.51,0,0,1,.06.37,2.1,2.1,0,0,1-.14.65"/><path class="cls-1" d="M5.29,12.53a1.81,1.81,0,0,1,.51-.63,1.49,1.49,0,0,1,.8-.23.89.89,0,0,1,.67.39,1.08,1.08,0,0,1,0,1"/><path class="cls-1" d="M3.77,11c0-.31.5-.55.8-.5a1,1,0,0,1,.66.43,2.14,2.14,0,0,1,.22.69,2.5,2.5,0,0,1-.16.84"/><path class="cls-1" d="M10.4,8.77a6.11,6.11,0,0,0,.85.3l.35.16a10.22,10.22,0,0,1,2,1.26,2.09,2.09,0,0,1,.64.75"/><path class="cls-1" d="M9,10.36a3.08,3.08,0,0,1,.53,0,3.46,3.46,0,0,1,1,.43q1,.59,2,1.2a1.74,1.74,0,0,1,.38.27"/><path class="cls-1" d="M7.94,11.73c.67.32,1.37.55,2,.88a12.27,12.27,0,0,0,1.51.72"/></svg>