<svg id="Слой_1" data-name="Слой 1" xmlns="http://www.w3.org/2000/svg" viewBox="0 0 18 18"><defs><style>.cls-1,.cls-2{fill:none;stroke:#a9aaaa;stroke-miterlimit:10;}.cls-1{stroke-linecap:round;stroke-width:0.75px;}.cls-3{fill:#a9aaaa;}</style></defs><rect class="cls-1" x="1.92" y="17.4" width="14.15" height="0.23" rx="0.12"/><rect class="cls-1" x="1.92" y="0.37" width="14.15" height="0.23" rx="0.12"/><path class="cls-2" d="M11.31,9.34a.44.44,0,0,1-.09-.65,5.61,5.61,0,0,0,3.41-5.16V.79H3.38V3.53A5.63,5.63,0,0,0,6.79,8.7a.43.43,0,0,1-.12.67,5.63,5.63,0,0,0-3.28,5.1v2.74H14.64V14.47A5.62,5.62,0,0,0,11.31,9.34Z"/><path class="cls-3" d="M4.88,5.18S8.11,6.74,9.14,6.26,11,4.83,11.76,4.83a7.06,7.06,0,0,1,1.63.23,5.8,5.8,0,0,1-2.25,2.63A5.57,5.57,0,0,1,8.32,8l-.73-.1a3.34,3.34,0,0,1-2.2-1.3A2.68,2.68,0,0,1,4.88,5.18Z"/><path class="cls-3" d="M8.77,7.62a9.88,9.88,0,0,1-.32,3A3.3,3.3,0,0,1,6,12.92a1.91,1.91,0,0,0-.53.19,1.79,1.79,0,0,0-.94,1.69c0,.54.11,1.37.11,1.37h8.86a16.12,16.12,0,0,0,0-2,2.28,2.28,0,0,0-1.59-1.26,3.08,3.08,0,0,1-2-1.6,8.24,8.24,0,0,1-.68-3.7"/></svg>