<svg id="Слой_1" data-name="Слой 1" xmlns="http://www.w3.org/2000/svg" viewBox="0 0 18 18"><defs><style>.cls-1,.cls-2,.cls-3{fill:none;stroke:#a9aaaa;stroke-miterlimit:10;}.cls-1,.cls-2{stroke-width:0.75px;}.cls-2,.cls-3{stroke-linecap:round;}.cls-3{stroke-width:0.25px;}.cls-4{fill:#a9aaaa;}</style></defs><rect class="cls-1" x="2.4" y="0.71" width="13.21" height="16.58"/><line class="cls-2" x1="4.89" y1="3.61" x2="13.11" y2="3.61"/><line class="cls-2" x1="4.89" y1="5.14" x2="13.11" y2="5.14"/><line class="cls-2" x1="4.14" y1="7.76" x2="14.05" y2="7.76"/><line class="cls-2" x1="4.14" y1="9" x2="14.05" y2="9"/><line class="cls-2" x1="4.14" y1="10.24" x2="14.05" y2="10.24"/><circle class="cls-2" cx="5.49" cy="14.22" r="1.74"/><circle class="cls-3" cx="5.49" cy="14.22" r="0.97"/><path class="cls-4" d="M9.69,15.46a7.82,7.82,0,0,0,.67-3.41c0-.06-.1-.06-.1,0a4.08,4.08,0,0,0,.51,2.59,0,0,0,0,0,.08,0,4.2,4.2,0,0,0,.79-1.12,0,0,0,1,0-.08,0c-.22.28-1.91,3.22-.5,2.75.52-.17.87-.93,1.13-1.36s.55-1,.81-1.48c.07-.16.41-.65.32-.84-.45-1-2.18,1.47-2.05,2,.27,1.11,2.17-1.5,2.46-1.54.52-.08.29,1.18.08,1.51a1.67,1.67,0,0,1-2.18.56,8.41,8.41,0,0,1-2-1.83c-.3-.33-.51-.45,0-.24.35.13.68.29,1,.42a22.88,22.88,0,0,0,2.78.86,0,0,0,1,0,0-.09A23.42,23.42,0,0,1,9,12.62.05.05,0,0,0,9,12.7c.88,1,2.26,3,3.8,2.66a1.7,1.7,0,0,0,1.16-2.51s0,0-.07,0a3.51,3.51,0,0,0-.89.79c-.22.23-.44.46-.68.68s-.29.3-.41.33c-.47.07-.46-.31-.33-.58a4.65,4.65,0,0,1,.75-1.15c.59-.61,1-.53.67.33a9.45,9.45,0,0,1-1.12,2c-.2.31-1.23,1.62-1.18.4a8.41,8.41,0,0,1,.82-1.92c-.17-.07-.37.77-.66.66s-.43-1.32-.49-1.65c-.13-.72-.06,0-.09.37a7.43,7.43,0,0,1-.64,2.31c0,.06.06.11.09.05Z"/></svg>