<?xml version="1.0" encoding="utf-8"?>
<!-- Generator: Adobe Illustrator 26.3.1, SVG Export Plug-In . SVG Version: 6.00 Build 0)  -->
<svg version="1.1" id="Слой_1" xmlns="http://www.w3.org/2000/svg" xmlns:xlink="http://www.w3.org/1999/xlink" x="0px" y="0px"
	 viewBox="0 0 18 18" style="enable-background:new 0 0 18 18;" xml:space="preserve">
<style type="text/css">
	.st0{fill:none;stroke:#A9AAAA;stroke-width:0.75;stroke-miterlimit:10;}
	.st1{fill:#A9AAAA;}
	.st2{fill:none;stroke:#A9AAAA;stroke-miterlimit:10;}
	.st3{fill:none;stroke:#A9AAAA;stroke-width:0.75;stroke-linecap:round;stroke-miterlimit:10;}
	.st4{fill:none;stroke:#0A9AAA;stroke-width:0.75;stroke-linecap:round;stroke-miterlimit:10;}
</style>
<path class="st2" d="M7.87,6.51c-1.11-0.45-1.9-1.54-1.9-2.81c0-1.67,1.35-3.03,3.03-3.03s3.03,1.35,3.03,3.03
	c0,1.19-0.69,2.23-1.7,2.72"/>
<g>
	<circle class="st2" cx="2.45" cy="4.79" r="1.94"/>
	<circle class="st2" cx="15.55" cy="4.79" r="1.94"/>
</g>
<g>
	<path class="st3" d="M7.82,12.02V5.73c0-0.66,0.54-1.2,1.2-1.2h0c0.66,0,1.2,0.54,1.2,1.2v3.83"/>
	<path class="st3" d="M12.46,8.63h0.79c0.23,0,0.42,0.19,0.42,0.42v2.34"/>
	<path class="st3" d="M10.22,7.86h1.47c0.23,0,0.42,0.19,0.42,0.42v2.34"/>
	<path class="st3" d="M13.91,9.45h0.57c0.38,0,0.67,0.29,0.67,0.62l-0.11,3.25c0,0.48-0.14,0.96-0.39,1.37l-0.75,1.2
		c-0.32,0.51-0.45,0.74-1.21,0.91l-3.67,0.52c-0.59,0-0.98-0.42-1.31-0.91l-3.34-5.3c-0.32-0.48-0.23-1.13,0.2-1.51l0,0
		c0.46-0.4,1.15-0.37,1.57,0.07l1.68,1.72v0.96"/>
</g>
</svg>
