<svg width="24" height="24" viewBox="0 0 24 24" fill="none" xmlns="http://www.w3.org/2000/svg">
<path d="M1.86131 4.3124C1.25 5.51217 1.25 7.08275 1.25 10.2239V13.7761C1.25 13.8972 1.25 14.016 1.25004 14.1325L4.7804 10.8278L7.93263 14.1294L14.9707 7.5376L18.4436 11.4426L22.6876 7.48146L22.7261 7.52272C22.6797 6.05991 22.5426 5.1052 22.1387 4.3124C21.601 3.25706 20.7429 2.39904 19.6876 1.86131C18.4878 1.25 16.9173 1.25 13.7761 1.25H10.2239C7.08275 1.25 5.51217 1.25 4.3124 1.86131C3.25706 2.39904 2.39904 3.25706 1.86131 4.3124Z" fill="#141414"/>
<path d="M22.7494 9.34181L18.3503 13.4476L14.8791 9.54453L7.8775 16.1022L4.72502 12.8003L1.26281 16.0412C1.29647 17.7551 1.41855 18.8186 1.86131 19.6876C2.39904 20.7429 3.25706 21.601 4.3124 22.1387C5.51217 22.75 7.08275 22.75 10.2239 22.75H13.7761C16.9173 22.75 18.4878 22.75 19.6876 22.1387C20.7429 21.601 21.601 20.7429 22.1387 19.6876C22.75 18.4878 22.75 16.9173 22.75 13.7761V10.2239C22.75 9.91508 22.75 9.62143 22.7494 9.34181Z" fill="#141414"/>
</svg> 