<svg width="24" height="24" viewBox="0 0 24 24" fill="none" xmlns="http://www.w3.org/2000/svg">
<path d="M4.78793 19.2943H14.1061C15.7629 19.2943 17.1061 17.9512 17.1061 16.2943V14.874L21.0596 17.6969C21.1685 17.7744 21.2965 17.8205 21.4298 17.8302C21.5631 17.8399 21.6965 17.8128 21.8154 17.7518C21.9344 17.6908 22.0343 17.5983 22.1042 17.4845C22.1742 17.3706 22.2115 17.2397 22.2121 17.106V6.89396C22.2115 6.76032 22.1742 6.62941 22.1042 6.51553C22.0343 6.40166 21.9344 6.30919 21.8154 6.24822C21.6965 6.18725 21.5631 6.16012 21.4298 6.1698C21.2965 6.17949 21.1685 6.2256 21.0596 6.30312L17.1061 9.12603V7.70566C17.1061 6.0488 15.7629 4.70566 14.1061 4.70566H4.78793C3.13108 4.70566 1.78793 6.0488 1.78793 7.70566V16.2943C1.78793 17.9512 3.13108 19.2943 4.78793 19.2943Z" fill="#141414"/>
</svg> 