<svg width="24" height="24" viewBox="0 0 24 24" fill="none" xmlns="http://www.w3.org/2000/svg">
<path d="M4.2958 9.00383L1.06827 21.243C0.944698 21.7116 1.52017 22.0423 1.86285 21.6997L8.451 15.1115C8.80238 14.7601 8.96266 14.2608 8.88144 13.7706L8.87122 13.7089C8.65781 12.4207 9.78926 11.3121 11.0728 11.5517C11.8135 11.6899 12.4002 12.2566 12.5641 12.9919L12.5833 13.0781C12.8722 14.3736 11.7384 15.5406 10.435 15.2892C9.95441 15.1965 9.45911 15.3483 9.11299 15.6944L2.60879 22.1986C2.25999 22.5474 2.61162 23.1355 3.08564 22.999C7.44711 21.743 10.5175 21.0587 15.0569 19.724C15.652 19.549 16.122 19.0905 16.3157 18.5013L18.1255 12.9946C18.3113 12.4295 18.6272 11.9159 19.0479 11.4953L22.131 8.41217C22.5017 8.04145 22.5017 7.44039 22.131 7.06967L16.9845 1.92316C16.6137 1.55244 16.0127 1.55244 15.6419 1.92316L12.5707 4.9944C12.1425 5.42262 11.6181 5.74221 11.0412 5.92649L5.55389 7.6794C4.93574 7.87687 4.46127 8.37636 4.2958 9.00383Z" fill="#141414"/>
</svg> 