<svg width="24" height="24" viewBox="0 0 24 24" fill="none" xmlns="http://www.w3.org/2000/svg">
<path fill-rule="evenodd" clip-rule="evenodd" d="M2.22218 6.04187C1.73578 6.9965 1.73578 8.24617 1.73578 10.7455V13.2545C1.73578 15.7538 1.73578 17.0035 2.22218 17.9581C2.65004 18.7978 3.33275 19.4805 4.17246 19.9084C5.12708 20.3948 6.37676 20.3948 8.8761 20.3948H15.1239C17.6232 20.3948 18.8729 20.3948 19.8275 19.9084C20.6672 19.4805 21.35 18.7978 21.7778 17.9581C22.2642 17.0035 22.2642 15.7538 22.2642 13.2545V10.7455C22.2642 8.24617 22.2642 6.9965 21.7778 6.04187C21.35 5.20216 20.6672 4.51945 19.8275 4.0916C18.8729 3.60519 17.6232 3.60519 15.1239 3.60519H8.8761C6.37676 3.60519 5.12708 3.60519 4.17246 4.0916C3.33275 4.51945 2.65004 5.20216 2.22218 6.04187ZM16.9537 13.4231C17.7397 13.4231 18.3769 12.786 18.3769 12C18.3769 11.214 17.7397 10.5769 16.9537 10.5769C16.1678 10.5769 15.5306 11.214 15.5306 12C15.5306 12.786 16.1678 13.4231 16.9537 13.4231Z" fill="#141414"/>
</svg> 