<svg width="24" height="24" viewBox="0 0 24 24" fill="none" xmlns="http://www.w3.org/2000/svg">
<path d="M20.6044 12.2633C20.6044 14.13 20 15.8544 18.9867 17.2766C15.2342 21.3888 8.75324 21.384 4.99556 17.2766C4 15.8722 3.37778 14.13 3.37778 12.2633V12.1566C1.45778 11.73 0 10.0055 0 7.94331C0 5.57886 1.93778 3.64108 4.30222 3.64108C5.52889 3.64108 6.66667 4.15664 7.41333 4.97442C8.78467 4.10363 10.3756 3.64121 12 3.64121C13.6244 3.64121 15.2153 4.10363 16.5867 4.97442C17.3333 4.15664 18.4711 3.64108 19.6978 3.64108C22.0622 3.64108 24 5.57886 24 7.94331C24 10.0233 22.5422 11.7477 20.6044 12.1566V12.2633Z" fill="#141414"/>
</svg> 