<svg width="24" height="24" viewBox="0 0 24 24" fill="none" xmlns="http://www.w3.org/2000/svg">
<path fill-rule="evenodd" clip-rule="evenodd" d="M1.25 10.2239C1.25 7.08275 1.25 5.51217 1.86131 4.3124C2.39904 3.25706 3.25706 2.39904 4.3124 1.86131C5.51217 1.25 7.08275 1.25 10.2239 1.25H13.7761C16.9173 1.25 18.4878 1.25 19.6876 1.86131C20.7429 2.39904 21.601 3.25706 22.1387 4.3124C22.75 5.51217 22.75 7.08275 22.75 10.2239V13.7761C22.75 16.9173 22.75 18.4878 22.1387 19.6876C21.601 20.7429 20.7429 21.601 19.6876 22.1387C18.4878 22.75 16.9173 22.75 13.7761 22.75H2.74565C2.22212 22.75 1.96036 22.75 1.7604 22.6481C1.58451 22.5585 1.44151 22.4155 1.35189 22.2396C1.25 22.0396 1.25 21.7779 1.25 21.2543V10.2239ZM10.1565 12C10.1565 12.8232 9.48913 13.4905 8.66596 13.4905C7.84278 13.4905 7.17546 12.8232 7.17546 12C7.17546 11.1768 7.84278 10.5095 8.66596 10.5095C9.48913 10.5095 10.1565 11.1768 10.1565 12ZM15.334 13.4905C16.1572 13.4905 16.8245 12.8232 16.8245 12C16.8245 11.1768 16.1572 10.5095 15.334 10.5095C14.5109 10.5095 13.8435 11.1768 13.8435 12C13.8435 12.8232 14.5109 13.4905 15.334 13.4905Z" fill="#141414"/>
</svg> 