<svg width="24" height="24" viewBox="0 0 24 24" fill="none" xmlns="http://www.w3.org/2000/svg">
<path fill-rule="evenodd" clip-rule="evenodd" d="M10.9787 2.80861C10.1662 2.80861 9.38688 3.1314 8.81231 3.70597C8.23773 4.28055 7.91494 5.05983 7.91494 5.8724V6.89367H4.85115C4.03858 6.89367 3.25929 7.21646 2.68472 7.79103C2.11015 8.36561 1.78735 9.14489 1.78735 9.95746V18.1276C1.78735 18.9402 2.11015 19.7194 2.68472 20.294C3.25929 20.8686 4.03858 21.1914 4.85115 21.1914H19.1489C19.9614 21.1914 20.7407 20.8686 21.3153 20.294C21.8899 19.7194 22.2127 18.9402 22.2127 18.1276V9.95746C22.2127 9.14489 21.8899 8.36561 21.3153 7.79103C20.7407 7.21646 19.9614 6.89367 19.1489 6.89367H16.0851V5.8724C16.0851 5.05983 15.7623 4.28055 15.1877 3.70597C14.6131 3.1314 13.8338 2.80861 13.0213 2.80861H10.9787ZM14.0425 6.89367H9.95747V5.8724C9.95747 5.60155 10.0651 5.34178 10.2566 5.15026C10.4481 4.95874 10.7079 4.85114 10.9787 4.85114H13.0213C13.2921 4.85114 13.5519 4.95874 13.7434 5.15026C13.9349 5.34178 14.0425 5.60155 14.0425 5.8724V6.89367Z" fill="#141414"/>
</svg> 