<svg width="24" height="24" viewBox="0 0 24 24" fill="none" xmlns="http://www.w3.org/2000/svg">
<path d="M20.8221 4.86592C20.8221 3.35866 19.1931 2.41467 17.8861 3.16241L16.8736 3.73408C14.1046 5.2975 10.9786 6.11902 7.79874 6.11902H7.08407C5.86733 6.1178 4.69353 6.56873 3.79055 7.38427C2.88757 8.19981 2.31983 9.32177 2.19755 10.5324C2.07527 11.743 2.40717 12.9558 3.12881 13.9354C3.85046 14.9151 4.91037 15.5916 6.10279 15.8338V19.3664C6.10279 20.017 6.36125 20.641 6.82132 21.1011C7.28138 21.5611 7.90537 21.8196 8.556 21.8196C9.20664 21.8196 9.83062 21.5611 10.2907 21.1011C10.7508 20.641 11.0092 20.017 11.0092 19.3664V15.9319C12.0845 15.9319 13.1416 16.2097 14.0779 16.7384L17.8861 18.8885C19.1941 19.6362 20.8221 18.6913 20.8221 17.185V4.86592Z" fill="#141414"/>
</svg> 