<svg width="24" height="24" viewBox="0 0 24 24" fill="none" xmlns="http://www.w3.org/2000/svg">
<path fill-rule="evenodd" clip-rule="evenodd" d="M1.86131 4.3124C1.25 5.51217 1.25 7.08275 1.25 10.2239V13.7761C1.25 16.9173 1.25 18.4878 1.86131 19.6876C2.39904 20.7429 3.25706 21.601 4.3124 22.1387C5.51217 22.75 7.08275 22.75 10.2239 22.75H13.7761C16.9173 22.75 18.4878 22.75 19.6876 22.1387C20.7429 21.601 21.601 20.7429 22.1387 19.6876C22.75 18.4878 22.75 16.9173 22.75 13.7761V10.2239C22.75 7.08275 22.75 5.51217 22.1387 4.3124C21.601 3.25706 20.7429 2.39904 19.6876 1.86131C18.4878 1.25 16.9173 1.25 13.7761 1.25H10.2239C7.08275 1.25 5.51217 1.25 4.3124 1.86131C3.25706 2.39904 2.39904 3.25706 1.86131 4.3124ZM7.14945 13.4905C7.97262 13.4905 8.63994 12.8232 8.63994 12C8.63994 11.1768 7.97262 10.5095 7.14945 10.5095C6.32627 10.5095 5.65895 11.1768 5.65895 12C5.65895 12.8232 6.32627 13.4905 7.14945 13.4905ZM13.4905 12C13.4905 12.8232 12.8232 13.4905 12 13.4905C11.1768 13.4905 10.5095 12.8232 10.5095 12C10.5095 11.1768 11.1768 10.5095 12 10.5095C12.8232 10.5095 13.4905 11.1768 13.4905 12ZM16.8506 13.4905C17.6737 13.4905 18.341 12.8232 18.341 12C18.341 11.1768 17.6737 10.5095 16.8506 10.5095C16.0274 10.5095 15.3601 11.1768 15.3601 12C15.3601 12.8232 16.0274 13.4905 16.8506 13.4905Z" fill="#141414"/>
</svg> 