<svg width="24" height="24" viewBox="0 0 24 24" fill="none" xmlns="http://www.w3.org/2000/svg">
<path fill-rule="evenodd" clip-rule="evenodd" d="M1.25 10.2239C1.25 7.08275 1.25 5.51217 1.86131 4.3124C2.39904 3.25706 3.25706 2.39904 4.3124 1.86131C5.51217 1.25 7.08275 1.25 10.2239 1.25H13.7761C16.9173 1.25 18.4878 1.25 19.6876 1.86131C20.7429 2.39904 21.601 3.25706 22.1387 4.3124C22.75 5.51217 22.75 7.08275 22.75 10.2239V13.7761C22.75 16.9173 22.75 18.4878 22.1387 19.6876C21.601 20.7429 20.7429 21.601 19.6876 22.1387C18.4878 22.75 16.9173 22.75 13.7761 22.75H10.2239C7.08275 22.75 5.51217 22.75 4.3124 22.1387C3.25706 21.601 2.39904 20.7429 1.86131 19.6876C1.25 18.4878 1.25 16.9173 1.25 13.7761V10.2239ZM14.3086 8.69991C14.5824 8.42612 15.0263 8.42612 15.3001 8.69991L18.1044 11.5043C18.3782 11.778 18.3782 12.222 18.1044 12.4957L15.3001 15.3001C15.0263 15.5739 14.5824 15.5739 14.3086 15.3001C14.0348 15.0263 14.0348 14.5824 14.3086 14.3086L16.6172 12L14.3086 9.6914C14.0348 9.4176 14.0348 8.9737 14.3086 8.69991ZM9.6914 9.6914C9.96519 9.4176 9.96519 8.9737 9.6914 8.69991C9.4176 8.42612 8.9737 8.42612 8.69991 8.69991L5.89556 11.5043C5.62177 11.778 5.62177 12.222 5.89556 12.4957L8.69991 15.3001C8.9737 15.5739 9.4176 15.5739 9.6914 15.3001C9.96519 15.0263 9.96519 14.5824 9.6914 14.3086L7.38279 12L9.6914 9.6914Z" fill="#141414"/>
</svg> 