<svg width="24" height="24" viewBox="0 0 24 24" fill="none" xmlns="http://www.w3.org/2000/svg">
<path fill-rule="evenodd" clip-rule="evenodd" d="M1.86131 4.3124C1.25 5.51217 1.25 7.08275 1.25 10.2239V13.7761C1.25 16.9173 1.25 18.4878 1.86131 19.6876C2.39904 20.7429 3.25706 21.601 4.3124 22.1387C5.51217 22.75 7.08275 22.75 10.2239 22.75H13.7761C16.9173 22.75 18.4878 22.75 19.6876 22.1387C20.7429 21.601 21.601 20.7429 22.1387 19.6876C22.75 18.4878 22.75 16.9173 22.75 13.7761V10.2239C22.75 7.08275 22.75 5.51217 22.1387 4.3124C21.601 3.25706 20.7429 2.39904 19.6876 1.86131C18.4878 1.25 16.9173 1.25 13.7761 1.25H10.2239C7.08275 1.25 5.51217 1.25 4.3124 1.86131C3.25706 2.39904 2.39904 3.25706 1.86131 4.3124ZM11.0096 7.48177C10.6224 7.48177 10.3086 7.79566 10.3086 8.18286C10.3086 8.57006 10.6224 8.88395 11.0096 8.88395L14.1246 8.88394L7.68714 15.3214C7.41335 15.5952 7.41335 16.0391 7.68714 16.3128C7.96093 16.5866 8.40484 16.5866 8.67863 16.3128L15.116 9.87543V12.8803C15.116 13.2675 15.4299 13.5814 15.8171 13.5814C16.2043 13.5814 16.5182 13.2675 16.5182 12.8803V8.18286C16.5182 7.99692 16.4444 7.81859 16.3129 7.68711C16.1814 7.55563 16.0031 7.48177 15.8171 7.48177L11.0096 7.48177Z" fill="#141414"/>
</svg> 