<svg width="24" height="24" viewBox="0 0 24 24" fill="none" xmlns="http://www.w3.org/2000/svg">
<path d="M17.4609 17.5275C19.1451 15.8546 20.3863 13.7888 21.0725 11.5163L12.4838 2.92661C10.2112 3.61294 8.14529 4.85429 6.47242 6.53865C4.79954 8.22301 3.57235 10.2974 2.90158 12.5746L11.4255 21.0985C13.7026 20.4276 15.7767 19.2004 17.4609 17.5275Z" fill="#141414"/>
<path d="M9.75596 21.4797L2.52046 14.2442C2.39277 15.0083 2.327 15.7938 2.327 16.5947V17.562C2.327 18.102 2.43336 18.6367 2.64003 19.1355C2.84669 19.6344 3.14959 20.0876 3.53144 20.4694C3.9133 20.8511 4.36661 21.1539 4.8655 21.3605C5.36439 21.567 5.89909 21.6733 6.43904 21.6731H7.40635C8.20729 21.6731 8.99178 21.6073 9.75596 21.4797Z" fill="#141414"/>
<path d="M21.4633 9.85547L14.1447 2.53678C14.9408 2.39845 15.7591 2.32687 16.5949 2.32687H17.5622C18.6525 2.32687 19.6982 2.76 20.4691 3.53098C21.2401 4.30196 21.6732 5.34763 21.6732 6.43795V7.40527C21.6732 8.24006 21.6017 9.05937 21.4633 9.85547Z" fill="#141414"/>
</svg> 