<svg width="40" height="40" viewBox="0 0 40 40" fill="none" xmlns="http://www.w3.org/2000/svg">
<path fill-rule="evenodd" clip-rule="evenodd" d="M6.53438 30.7401C5.9216 30.5588 5.36248 30.2363 4.90421 29.7998C4.44594 29.3632 4.10195 28.8255 3.90129 28.2319C2.75462 25.1641 2.41486 12.3536 4.62326 9.82472C5.35826 9.00205 6.39598 8.49555 7.51117 8.41516C13.4356 7.79329 31.7399 7.87621 33.8421 8.62245C34.4334 8.80971 34.9736 9.12516 35.4222 9.54517C35.8709 9.96518 36.2163 10.4789 36.4327 11.0477C37.6856 14.2192 37.728 25.7445 36.2628 28.7916C35.8742 29.5848 35.2235 30.2273 34.4154 30.6158C32.207 31.6937 9.46475 31.6729 6.53438 30.7401ZM15.9413 24.7288L26.5586 19.3393L15.9413 13.9083V24.7288Z" fill="white"/>
</svg>
