<svg width="40" height="40" viewBox="0 0 40 40" fill="none" xmlns="http://www.w3.org/2000/svg">
<path d="M22.138 31.3602C10.1329 31.3602 3.28531 22.9668 3 9H9.01354C9.21107 19.2512 13.6444 23.5935 17.156 24.4888V9H22.8184V17.8411C26.286 17.4606 29.9293 13.4318 31.1583 9H36.8207C36.3576 11.2984 35.4344 13.4747 34.1089 15.3926C32.7833 17.3106 31.084 18.929 29.1172 20.1465C31.3126 21.2591 33.2518 22.8338 34.8067 24.7668C36.3615 26.6997 37.4968 28.947 38.1375 31.3602H31.9045C31.3293 29.2641 30.1603 27.3878 28.544 25.9664C26.9277 24.5449 24.9359 23.6416 22.8184 23.3696V31.3602H22.138Z" fill="white"/>
</svg>
