<svg width="32" height="32" viewBox="0 0 32 32" fill="none" xmlns="http://www.w3.org/2000/svg">
<path d="M29.138 8.87269C29.1331 8.74966 29.0975 8.62976 29.0344 8.52401C28.9713 8.41826 28.8827 8.33005 28.7767 8.26731L16.9376 1.43237C16.8264 1.36761 16.7001 1.3335 16.5714 1.3335C16.4428 1.3335 16.3164 1.36761 16.2053 1.43237L4.36616 8.26731C4.25729 8.33444 4.16683 8.42764 4.10291 8.53841C4.03899 8.64919 4.00363 8.77412 4 8.90198V22.5719C4.00041 22.7004 4.03441 22.8266 4.09864 22.9379C4.16287 23.0493 4.2551 23.1419 4.36616 23.2066L16.2053 30.0415C16.3172 30.104 16.4433 30.1367 16.5714 30.1367C16.6996 30.1367 16.8256 30.104 16.9376 30.0415L28.7767 23.2066C28.8878 23.1419 28.98 23.0493 29.0442 22.9379C29.1084 22.8266 29.1425 22.7004 29.1429 22.5719C29.138 22.5426 29.1477 8.90198 29.138 8.87269ZM16.5714 2.91165L26.9459 8.90198L16.5714 14.8923L6.19695 8.90198L16.5714 2.91165ZM5.46463 10.1713L15.8391 16.1617V28.1375L5.46463 22.1471V10.1713ZM17.3037 28.1375V16.1617L27.6782 10.1713V22.1471L17.3037 28.1375Z" fill="#101820" stroke="#101820" stroke-width="0.571429"/>
</svg>
