<svg width="32" height="32" viewBox="0 0 32 32" fill="none" xmlns="http://www.w3.org/2000/svg">
<path d="M13.2383 18.3804C13.1508 18.2929 13.0877 18.1841 13.0551 18.0647C13.0226 17.9453 13.0218 17.8194 13.0528 17.6996C13.7294 15.0848 15.3191 9.83336 16.5762 8.57622C17.0007 8.1517 17.5047 7.81495 18.0593 7.5852C18.614 7.35545 19.2084 7.23719 19.8088 7.23719C20.4091 7.23719 21.0036 7.35545 21.5583 7.5852C22.1129 7.81495 22.6169 8.1517 23.0414 8.57622C23.4659 9.00072 23.8026 9.50468 24.0324 10.0593C24.2621 10.614 24.3804 11.2084 24.3804 11.8088C24.3804 12.4091 24.2621 13.0036 24.0324 13.5583C23.8026 14.1129 23.4659 14.6169 23.0414 15.0414C21.7796 16.3031 16.5339 17.8894 13.9191 18.5659C13.7993 18.5969 13.6734 18.5961 13.5541 18.5636C13.4347 18.531 13.3258 18.4679 13.2383 18.3804ZM13.2383 18.3804L19.0048 12.6139M22.0951 7.80936L23.2379 6.09508M25.5236 8.38079L23.8094 9.52365M11.2379 19.8094H7.23793C6.63172 19.8094 6.05034 20.0502 5.62169 20.4788C5.19303 20.9075 4.95222 21.4889 4.95222 22.0951C4.95222 22.7013 5.19303 23.2827 5.62169 23.7113C6.05034 24.14 6.63172 24.3808 7.23793 24.3808H20.9522C21.5584 24.3808 22.1398 24.6216 22.5685 25.0503C22.9971 25.4789 23.2379 26.0603 23.2379 26.6665C23.2379 27.2727 22.9971 27.8541 22.5685 28.2827C22.1398 28.7114 21.5584 28.9522 20.9522 28.9522H2.6665M20.9522 11.8094C20.9522 12.4405 20.4405 12.9522 19.8094 12.9522C19.1782 12.9522 18.6665 12.4405 18.6665 11.8094C18.6665 11.1782 19.1782 10.6665 19.8094 10.6665C20.4405 10.6665 20.9522 11.1782 20.9522 11.8094ZM24.3808 2.6665L28.9522 7.23793L26.0951 8.95222L22.6665 5.52365L24.3808 2.6665Z" stroke="#101820" stroke-width="1.71429" stroke-linecap="round" stroke-linejoin="round"/>
</svg>
