<svg width="200" height="20" viewBox="0 0 200 20" fill="none" xmlns="http://www.w3.org/2000/svg">
<path d="M7.26377 12.0702H4.28374V19.5743H0V0.947021H4.28374V8.47775H7.3702L12.2659 0.947021H16.8157L10.7227 9.94133L17.002 19.5743H12.1063L7.26377 12.0702Z" fill="#469ED7"/>
<path d="M37.5488 0.947021L29.6199 15.6891C28.8571 17.1084 27.9392 18.1817 26.866 18.909C25.7929 19.6364 24.6265 20 23.3672 20C22.3916 20 21.3805 19.7872 20.3339 19.3614L21.3716 16.0883C22.1166 16.319 22.7374 16.4342 23.2341 16.4342C23.7663 16.4342 24.2452 16.3057 24.6709 16.0484C25.0966 15.7912 25.4869 15.3876 25.8416 14.8376L26.0013 14.6248L18.6577 0.947021H23.2607L28.2097 10.9525L33.3183 0.947021H37.5488Z" fill="#469ED7"/>
<path d="M49.0493 0.947021C50.6989 0.947021 52.1313 1.22203 53.3464 1.77197C54.5614 2.32191 55.4971 3.10246 56.1534 4.11371C56.8097 5.12489 57.1378 6.32237 57.1378 7.70609C57.1378 9.07207 56.8097 10.2651 56.1534 11.2852C55.4971 12.3052 54.5614 13.0858 53.3464 13.6269C52.1313 14.168 50.6989 14.4385 49.0493 14.4385H45.2977V19.5743H40.9873V0.947021H49.0493ZM48.8098 10.9259C50.1047 10.9259 51.0891 10.6466 51.7632 10.0877C52.4373 9.52886 52.7743 8.73501 52.7743 7.70609C52.7743 6.65943 52.4373 5.85668 51.7632 5.29784C51.0891 4.73899 50.1047 4.4596 48.8098 4.4596H45.2977V10.9259H48.8098Z" fill="#469ED7"/>
<path d="M70.4479 19.8936C68.5499 19.8936 66.8337 19.4811 65.2994 18.6562C63.7651 17.8313 62.5588 16.687 61.6808 15.2234C60.8028 13.7599 60.3638 12.1057 60.3638 10.2606C60.3638 8.41568 60.8028 6.76141 61.6808 5.29782C62.5588 3.83424 63.7651 2.69005 65.2994 1.8651C66.8337 1.04016 68.5587 0.627686 70.4745 0.627686C72.0887 0.627686 73.5476 0.911524 74.8514 1.47928C76.1551 2.04696 77.2505 2.863 78.1374 3.92739L75.3702 6.48202C74.1108 5.02727 72.5498 4.29994 70.6874 4.29994C69.5343 4.29994 68.5055 4.55275 67.6009 5.05837C66.6963 5.56392 65.9912 6.26907 65.4856 7.17388C64.9801 8.07862 64.7274 9.10754 64.7274 10.2606C64.7274 11.4137 64.9801 12.4427 65.4856 13.3475C65.9912 14.2522 66.6963 14.9573 67.6009 15.463C68.5055 15.9686 69.5343 16.2213 70.6874 16.2213C72.5498 16.2213 74.1108 15.4852 75.3702 14.0127L78.1374 16.5673C77.2505 17.6494 76.1507 18.4744 74.838 19.0421C73.5254 19.6097 72.062 19.8936 70.4479 19.8936Z" fill="#469ED7"/>
<path d="M91.367 7.06746C93.6375 7.06746 95.3803 7.57301 96.5953 8.58419C97.8104 9.59544 98.4179 11.0944 98.4179 13.0814C98.4179 15.1924 97.7483 16.8024 96.4091 17.9111C95.0698 19.0199 93.1852 19.5743 90.7551 19.5743H82.3472V0.947021H86.6309V7.06746H91.367ZM90.5156 16.381C91.6331 16.381 92.5067 16.1061 93.1364 15.5561C93.7661 15.0062 94.081 14.2078 94.081 13.1612C94.081 11.2275 92.8925 10.2606 90.5156 10.2606H86.6309V16.381H90.5156ZM100.786 0.947021H105.07V19.5743H100.786V0.947021Z" fill="#469ED7"/>
<path d="M112.26 19.7872C111.533 19.7872 110.921 19.5388 110.424 19.0421C109.927 18.5454 109.679 17.9245 109.679 17.1794C109.679 16.4165 109.927 15.8 110.424 15.3299C110.921 14.8598 111.533 14.6248 112.26 14.6248C112.987 14.6248 113.599 14.8598 114.096 15.3299C114.593 15.8 114.841 16.4165 114.841 17.1794C114.841 17.9245 114.593 18.5454 114.096 19.0421C113.599 19.5388 112.987 19.7872 112.26 19.7872Z" fill="#469ED7"/>
<path d="M127.512 0.947021C129.161 0.947021 130.594 1.22203 131.809 1.77197C133.024 2.32191 133.96 3.10246 134.616 4.11371C135.272 5.12489 135.6 6.32237 135.6 7.70609C135.6 9.07207 135.272 10.2651 134.616 11.2852C133.96 12.3052 133.024 13.0858 131.809 13.6269C130.594 14.168 129.161 14.4385 127.512 14.4385H123.76V19.5743H119.45V0.947021H127.512ZM127.272 10.9259C128.567 10.9259 129.552 10.6466 130.226 10.0877C130.9 9.52886 131.237 8.73501 131.237 7.70609C131.237 6.65943 130.9 5.85668 130.226 5.29784C129.552 4.73899 128.567 4.4596 127.272 4.4596H123.76V10.9259H127.272Z" fill="#469ED7"/>
<path d="M156.253 0.947021L148.324 15.6891C147.562 17.1084 146.644 18.1817 145.571 18.909C144.497 19.6364 143.331 20 142.072 20C141.096 20 140.085 19.7872 139.038 19.3614L140.076 16.0883C140.821 16.319 141.442 16.4342 141.939 16.4342C142.471 16.4342 142.95 16.3057 143.376 16.0484C143.801 15.7912 144.191 15.3876 144.546 14.8376L144.706 14.6248L137.362 0.947021H141.965L146.914 10.9525L152.023 0.947021H156.253Z" fill="#469ED7"/>
<path d="M168.966 0.719482H165.213C164.285 0.719482 163.533 1.47193 163.533 2.40011V17.8631C163.533 18.7913 164.285 19.5437 165.213 19.5437H168.966C169.894 19.5437 170.647 18.7913 170.647 17.8631V2.40011C170.647 1.47193 169.894 0.719482 168.966 0.719482Z" fill="#469ED7"/>
<path d="M179.676 0.719482H175.923C174.995 0.719482 174.242 1.47193 174.242 2.40011V17.8631C174.242 18.7913 174.995 19.5437 175.923 19.5437H179.676C180.604 19.5437 181.356 18.7913 181.356 17.8631V2.40011C181.356 1.47193 180.604 0.719482 179.676 0.719482Z" fill="#469ED7"/>
<path d="M188.932 0.859212L185.706 2.77805C184.908 3.25255 184.646 4.28394 185.12 5.08172L193.024 18.3723C193.498 19.1701 194.529 19.4321 195.327 18.9576L198.553 17.0388C199.351 16.5643 199.613 15.5329 199.139 14.7351L191.235 1.44457C190.761 0.646787 189.729 0.384713 188.932 0.859212Z" fill="#469ED7"/>
</svg>
