<svg width="32" height="32" viewBox="0 0 32 32" fill="none" xmlns="http://www.w3.org/2000/svg">
<path d="M20.4911 5.90888C20.4229 5.69883 20.2739 5.52452 20.0773 5.42427C19.8803 5.32391 19.652 5.30603 19.4418 5.37431L15.9584 6.50629C15.5211 6.6484 15.2816 7.11813 15.4238 7.55544L15.5979 8.09146L6.73715 14.6001L3.24186 15.7357C3.0318 15.804 2.8575 15.9529 2.75725 16.1496C2.65699 16.3464 2.63901 16.575 2.70729 16.785L4.83102 23.32C4.94537 23.6718 5.27178 23.8955 5.62272 23.8955C5.70809 23.8955 5.7948 23.8823 5.88029 23.8545L9.37503 22.7189L11.1706 22.7283C11.5312 24.431 13.0455 25.7126 14.8538 25.7126C16.6484 25.7126 18.1527 24.4502 18.5281 22.7671L20.3696 22.7767L20.5437 23.3129C20.6119 23.5229 20.7607 23.6972 20.9576 23.7975C21.0757 23.8576 21.2054 23.8882 21.3356 23.8882C21.4222 23.8882 21.5091 23.8746 21.5929 23.8474L25.0764 22.7156C25.5137 22.5735 25.7532 22.1037 25.6111 21.6664L20.4911 5.90888ZM6.1574 22.0134L4.54847 17.0621L6.58727 16.3997L8.19598 21.3509L6.1574 22.0134ZM14.8537 24.0473C13.9753 24.0473 13.2224 23.5047 12.9094 22.7375L16.7905 22.758C16.4726 23.5146 15.7245 24.0473 14.8537 24.0473ZM9.85109 21.056L8.09961 15.6655L16.1397 9.75978L19.8273 21.1086L9.85109 21.056ZM21.8701 22.0064L21.7678 21.6918L21.7674 21.6899L17.2649 7.83266L19.1646 7.21527L23.7698 21.3889L21.8701 22.0064Z" fill="#469ED7"/>
<path d="M23.2958 9.95651C23.417 10.0182 23.546 10.0474 23.6732 10.0474C23.9763 10.0474 24.2687 9.88134 24.4158 9.59269L25.9102 6.66061C26.1192 6.25094 25.9563 5.74945 25.5466 5.54062C25.137 5.3319 24.6355 5.49455 24.4266 5.90433L22.9322 8.83641C22.7232 9.24619 22.8861 9.74767 23.2958 9.95651Z" fill="#469ED7"/>
<path d="M29.5548 17.8745L26.6222 16.3807C26.2125 16.172 25.7111 16.3349 25.5024 16.7447C25.2935 17.1545 25.4566 17.6559 25.8663 17.8646L28.7988 19.3584C28.9199 19.42 29.0489 19.4492 29.1761 19.4492C29.4792 19.4492 29.7716 19.283 29.9187 18.9943C30.1275 18.5847 29.9645 18.0833 29.5548 17.8745Z" fill="#469ED7"/>
<path d="M25.3406 13.0441C25.455 13.396 25.7814 13.6197 26.1323 13.6197C26.2177 13.6197 26.3044 13.6064 26.3899 13.5787L29.5193 12.5617C29.9565 12.4196 30.196 11.9499 30.0538 11.5125C29.9117 11.075 29.442 10.8361 29.0045 10.9779L25.8751 11.9949C25.4379 12.1371 25.1985 12.6068 25.3406 13.0441Z" fill="#469ED7"/>
</svg>
