<svg width="32" height="32" viewBox="0 0 32 32" fill="none" xmlns="http://www.w3.org/2000/svg">
<path d="M9.64031 9.73532C9.30189 9.3969 8.75318 9.39678 8.41487 9.73521L2.92035 15.229C2.75778 15.3916 2.6665 15.6121 2.6665 15.8419C2.6665 16.0717 2.75778 16.292 2.92024 16.4546L8.39095 21.9255C8.56022 22.0948 8.78195 22.1794 9.00379 22.1794C9.22551 22.1794 9.44736 22.0948 9.61651 21.9256C9.95505 21.5872 9.95505 21.0385 9.61663 20.7002L4.75863 15.8419L9.64031 10.9608C9.97874 10.6223 9.97874 10.0736 9.64031 9.73532Z" fill="#D9D9D9"/>
<path d="M29.0796 15.2064L23.6081 9.73521C23.2698 9.3969 22.7211 9.39678 22.3826 9.73532C22.0442 10.0737 22.0442 10.6225 22.3828 10.9609L27.2414 15.8192L22.3599 20.7001C22.0213 21.0385 22.0213 21.5872 22.3598 21.9255C22.529 22.0948 22.7508 22.1794 22.9726 22.1794C23.1943 22.1794 23.4162 22.0948 23.5853 21.9256L29.0798 16.4319C29.2424 16.2695 29.3337 16.049 29.3337 15.8191C29.3335 15.5894 29.2422 15.369 29.0796 15.2064Z" fill="#D9D9D9"/>
<path d="M20.6774 9.50597C20.2945 9.21896 19.7511 9.2973 19.4644 9.68044L11.146 20.7938C10.8593 21.1769 10.9373 21.7201 11.3205 22.0068C11.4763 22.1235 11.6585 22.1796 11.8391 22.1796C12.1027 22.1796 12.3633 22.0597 12.5335 21.8323L20.8517 10.7189C21.1386 10.3358 21.0605 9.79275 20.6774 9.50597Z" fill="#D9D9D9"/>
<path d="M9.64031 9.73532C9.30189 9.3969 8.75318 9.39678 8.41487 9.73521L2.92035 15.229C2.75778 15.3916 2.6665 15.6121 2.6665 15.8419C2.6665 16.0717 2.75778 16.292 2.92024 16.4546L8.39095 21.9255C8.56022 22.0948 8.78195 22.1794 9.00379 22.1794C9.22551 22.1794 9.44736 22.0948 9.61651 21.9256C9.95505 21.5872 9.95505 21.0385 9.61663 20.7002L4.75863 15.8419L9.64031 10.9608C9.97874 10.6223 9.97874 10.0736 9.64031 9.73532Z" stroke="#D9D9D9" stroke-width="0.285714"/>
<path d="M29.0796 15.2064L23.6081 9.73521C23.2698 9.3969 22.7211 9.39678 22.3826 9.73532C22.0442 10.0737 22.0442 10.6225 22.3828 10.9609L27.2414 15.8192L22.3599 20.7001C22.0213 21.0385 22.0213 21.5872 22.3598 21.9255C22.529 22.0948 22.7508 22.1794 22.9726 22.1794C23.1943 22.1794 23.4162 22.0948 23.5853 21.9256L29.0798 16.4319C29.2424 16.2695 29.3337 16.049 29.3337 15.8191C29.3335 15.5894 29.2422 15.369 29.0796 15.2064Z" stroke="#D9D9D9" stroke-width="0.285714"/>
<path d="M20.6774 9.50597C20.2945 9.21896 19.7511 9.2973 19.4644 9.68044L11.146 20.7938C10.8593 21.1769 10.9373 21.7201 11.3205 22.0068C11.4763 22.1235 11.6585 22.1796 11.8391 22.1796C12.1027 22.1796 12.3633 22.0597 12.5335 21.8323L20.8517 10.7189C21.1386 10.3358 21.0605 9.79275 20.6774 9.50597Z" stroke="#D9D9D9" stroke-width="0.285714"/>
</svg>
