<svg width="56" height="56" viewBox="0 0 56 56" fill="none" xmlns="http://www.w3.org/2000/svg">
<path d="M32.8351 14.981C31.883 14.8051 31.0086 15.4127 30.8273 16.342C30.6461 17.2714 31.2556 18.1788 32.1817 18.3607C34.9703 18.9043 37.1234 21.0628 37.6692 23.8609V23.8629C37.8245 24.6683 38.5336 25.2539 39.3503 25.2539C39.4598 25.2539 39.5693 25.2439 39.6809 25.2239C40.6071 25.0381 41.2166 24.1327 41.0353 23.2013C40.2207 19.0222 37.0039 15.7944 32.8351 14.981Z" fill="#469ED7"/>
<path d="M32.7102 8.01732C32.2641 7.95337 31.8159 8.08528 31.4594 8.36908C31.0929 8.65689 30.8638 9.0726 30.814 9.53828C30.7085 10.4796 31.3877 11.331 32.3278 11.437C38.8111 12.1605 43.8504 17.211 44.5794 23.7145C44.677 24.5859 45.408 25.2435 46.2804 25.2435C46.3461 25.2435 46.4099 25.2395 46.4756 25.2315C46.9317 25.1815 47.338 24.9557 47.6249 24.5959C47.9097 24.2362 48.0392 23.7885 47.9874 23.3308C47.0791 15.2164 40.7989 8.91871 32.7102 8.01732Z" fill="#469ED7"/>
<path fill-rule="evenodd" clip-rule="evenodd" d="M26.0642 29.9448C34.0424 37.9207 35.8523 28.6934 40.932 33.7696C45.8293 38.6655 48.644 39.6464 42.4392 45.8494C41.662 46.474 36.724 53.9885 19.3699 36.6393C2.01378 19.288 9.5239 14.3449 10.1487 13.5679C16.3685 7.34769 17.3325 10.1788 22.2297 15.0747C27.3095 20.153 18.086 21.9688 26.0642 29.9448Z" fill="#469ED7"/>
</svg>
