<svg width="32" height="32" viewBox="0 0 32 32" fill="none" xmlns="http://www.w3.org/2000/svg">
<path d="M16.5714 4C14.085 4 11.6545 4.7373 9.58712 6.11867C7.51976 7.50003 5.90845 9.46342 4.95695 11.7605C4.00545 14.0577 3.75649 16.5854 4.24156 19.024C4.72663 21.4626 5.92395 23.7026 7.68209 25.4608C9.44024 27.2189 11.6803 28.4162 14.1189 28.9013C16.5575 29.3864 19.0852 29.1374 21.3823 28.1859C23.6794 27.2344 25.6428 25.6231 27.0242 23.5557C28.4056 21.4884 29.1429 19.0578 29.1429 16.5714C29.1429 13.2373 27.8184 10.0397 25.4608 7.68209C23.1032 5.32449 19.9056 4 16.5714 4V4ZM25.8583 9.928L24.8114 13.1543C24.8008 13.2026 24.793 13.2514 24.788 13.3006L21.4857 14.3737C21.4513 14.3345 21.4145 14.2975 21.3754 14.2629L17.2743 11.2834C17.232 11.2581 17.1881 11.2355 17.1429 11.216V7.74743C17.1882 7.72805 17.2321 7.70552 17.2743 7.68L20.0303 5.68C22.3801 6.43065 24.4244 7.92071 25.8583 9.928V9.928ZM13.1126 5.67886L15.8686 7.67886C15.9108 7.70437 15.9547 7.7269 16 7.74628V11.2149C15.9544 11.2343 15.9101 11.2569 15.8674 11.2823L11.7663 14.2629C11.7273 14.2975 11.6904 14.3345 11.656 14.3737L8.35486 13.3006C8.34989 13.2514 8.34207 13.2026 8.33143 13.1543L7.28458 9.928C8.71828 7.92029 10.7626 6.42981 13.1126 5.67886V5.67886ZM5.14686 16.4914L7.89715 14.4914C7.93381 14.4592 7.96818 14.4244 8.00001 14.3874L11.3086 15.4629C11.313 15.5095 11.3202 15.5559 11.3303 15.6017L12.8971 20.4229C12.9172 20.4698 12.9405 20.5152 12.9669 20.5589L10.924 23.3714C10.8756 23.3605 10.8266 23.3526 10.7771 23.348H7.38458C5.92882 21.3886 5.14278 19.0124 5.14286 16.5714C5.14286 16.5446 5.14686 16.5183 5.14686 16.4914ZM12.9634 27.4097L11.9143 24.1771C11.8948 24.1322 11.8724 24.0885 11.8474 24.0463L13.8949 21.2274C13.9416 21.2379 13.9889 21.2455 14.0366 21.2503H19.1063C19.1539 21.2455 19.2013 21.2379 19.248 21.2274L21.2954 24.0463C21.2702 24.0883 21.2479 24.1321 21.2286 24.1771L20.1794 27.4097C17.8385 28.1968 15.3044 28.1968 12.9634 27.4097V27.4097ZM25.7583 23.3486H22.3657C22.3163 23.3532 22.2672 23.361 22.2189 23.372L20.1749 20.5594C20.2011 20.5155 20.2244 20.4699 20.2446 20.4229L21.8114 15.6C21.8215 15.5542 21.8287 15.5078 21.8331 15.4611L25.1429 14.388C25.1752 14.4247 25.21 14.4593 25.2469 14.4914L27.9971 16.4874C27.9971 16.516 28.0011 16.5446 28.0011 16.5714C28.001 19.0128 27.2146 21.3891 25.7583 23.3486Z" fill="#D9D9D9"/>
</svg>
