<svg width="36" height="23" viewBox="0 0 36 23" fill="none" xmlns="http://www.w3.org/2000/svg">
<path d="M19.138 22.3602C7.13285 22.3602 0.285314 13.9668 0 0H6.01354C6.21107 10.2512 10.6444 14.5935 14.156 15.4888V0H19.8184V8.84113C23.286 8.46063 26.9293 4.43176 28.1583 0H33.8207C33.3576 2.29844 32.4344 4.47469 31.1089 6.39263C29.7833 8.31058 28.084 9.92896 26.1172 11.1465C28.3126 12.2591 30.2518 13.8338 31.8067 15.7668C33.3615 17.6997 34.4968 19.947 35.1375 22.3602H28.9045C28.3293 20.2641 27.1603 18.3878 25.544 16.9664C23.9277 15.5449 21.9359 14.6416 19.8184 14.3696V22.3602H19.138Z" fill="#101820"/>
</svg>
