<svg width="56" height="56" viewBox="0 0 56 56" fill="none" xmlns="http://www.w3.org/2000/svg">
<path fill-rule="evenodd" clip-rule="evenodd" d="M9.14832 43.0361C8.29043 42.7823 7.50767 42.3308 6.86609 41.7196C6.22451 41.1085 5.74293 40.3557 5.462 39.5247C3.85666 35.2296 3.381 17.295 6.47276 13.7546C7.50176 12.6028 8.95456 11.8937 10.5158 11.7812C18.8101 10.9106 44.436 11.0266 47.3791 12.0714C48.2069 12.3335 48.9632 12.7752 49.5913 13.3632C50.2194 13.9512 50.7031 14.6704 51.006 15.4668C52.76 19.9069 52.8194 36.0422 50.7682 40.3082C50.224 41.4187 49.3131 42.3182 48.1818 42.862C45.09 44.3711 13.2509 44.342 9.14832 43.0361V43.0361ZM22.318 34.6202L37.1823 27.0749L22.318 19.4716V34.6202Z" fill="#469ED7"/>
</svg>
